<?xml version="1.0" encoding="UTF-8" standalone="no"?>
<svg width="600px" height="759px" viewBox="0 0 600 759" version="1.1" xmlns="http://www.w3.org/2000/svg" xmlns:xlink="http://www.w3.org/1999/xlink" xmlns:sketch="http://www.bohemiancoding.com/sketch/ns">
    <!-- Generator: Sketch 3.3.3 (12072) - http://www.bohemiancoding.com/sketch -->
    <title>eggplant_logo_all_vertical</title>
    <desc>Created with Sketch.</desc>
    <defs></defs>
    <g id="Page-1" stroke="none" stroke-width="1" fill="none" fill-rule="evenodd" sketch:type="MSPage">
        <g id="Logos-for-ze-web" sketch:type="MSArtboardGroup" transform="translate(-50.000000, -192.000000)">
            <g id="eggplant_logo_all_vertical" sketch:type="MSLayerGroup" transform="translate(50.000000, 191.000000)">
                <g id="Logo--mark" transform="translate(132.402235, 0.000000)" sketch:type="MSShapeGroup">
                    <path d="M167.684029,56.0859449 C444.399685,56.0859449 290.866942,417.025584 290.866942,417.025584 C290.866942,417.025584 246.726355,470.919535 167.684027,470.919535 C88.6417001,470.919535 44.3141106,417.025584 44.3141106,417.025584 C44.3141106,417.025584 -109.031627,56.0859449 167.684029,56.0859449 Z" id="Triangle-1" fill="#57163E" transform="translate(167.640899, 263.502740) rotate(-180.000000) translate(-167.640899, -263.502740) "></path>
                    <path d="M189.42742,-2.24107234 C189.42742,-21.3184653 198.859987,-29.1106399 220.150637,-29.1106399 L220.150637,-65.9219475 C163.555237,-65.9219475 141.725582,-53.0245551 141.725582,-12.1828123 L141.725582,11.1937115 C141.725582,31.3458871 133.371023,39.1380617 111.541369,39.1380617 L111.541369,75.9493693 C133.371023,75.9493693 141.725582,83.7415439 141.725582,103.89372 L141.725582,127.001548 C141.725582,168.111986 163.555237,181.009379 220.150637,181.009379 L220.150637,144.198071 C198.859987,144.198071 189.42742,136.405896 189.42742,117.059808 L189.42742,89.1154575 C189.42742,72.1876299 181.342363,62.7832812 165.980754,57.4093677 C181.342363,52.3041499 189.42742,42.8998012 189.42742,25.9719736 L189.42742,-2.24107234 Z" id="{" fill="#D3FF43" transform="translate(167.597765, 57.543716) rotate(-270.000000) translate(-167.597765, -57.543716) "></path>
                    <path d="M163.734342,377.569763 C204.362603,377.569763 238.510283,354.401503 238.510283,327.496426 C238.510283,321.766641 236.516258,318.029825 234.023727,318.029825 C229.038664,318.029825 210.344679,348.920839 178.68953,348.920839 C154.511976,348.920839 138.310522,340.699843 138.310522,320.022794 C138.310522,303.08256 143.794091,293.86508 153.26571,287.387932 C157.25376,288.633538 161.24181,289.380901 165.229861,289.380901 C175.449239,289.380901 190.155174,287.138811 190.155174,276.675726 C190.155174,267.458246 179.686543,265.714398 168.470151,265.714398 C165.479114,265.714398 162.737329,265.963519 160.244798,266.461761 C154.511976,261.230219 150.274672,253.009223 150.274672,242.297016 C150.274672,241.051411 150.274672,239.556685 150.523925,238.311079 C160.494051,245.535591 170.464176,250.268891 183.923846,250.268891 C210.593932,250.268891 227.044639,236.567232 227.044639,219.128756 C227.044639,195.213132 206.605882,188.486863 186.167124,188.486863 C164.232848,188.486863 147.532888,194.216648 135.568737,201.441159 C126.595624,195.960495 118.121017,182.258836 111.889689,182.258836 C109.397157,182.258836 106.904626,184.500926 106.904626,187.7395 C106.904626,194.964011 112.637448,206.423581 120.862802,215.641061 C116.376245,222.616451 114.132967,230.339205 114.132967,238.311079 C114.132967,255.998676 120.115042,268.205609 132.328446,276.675726 C112.138942,284.6476 96.6852474,299.843986 96.6852474,326.499942 C96.6852474,362.87162 125.100105,377.569763 163.734342,377.569763 L163.734342,377.569763 Z M184.422352,213.14985 C192.647706,213.14985 199.377541,216.139303 199.377541,222.865572 C199.377541,228.595357 193.893971,231.086568 185.917871,231.086568 C174.452227,231.086568 165.479114,227.598873 157.752266,222.865572 C164.482101,216.139303 174.452227,213.14985 184.422352,213.14985 L184.422352,213.14985 Z" id="E" fill="#3D0F2E"></path>
                </g>
                <path d="M5.02793296,740.036233 C5.02793296,736.469469 5.8196741,733.738268 7.40318013,731.842547 C8.98668617,729.946826 11.2638178,728.99898 14.2346432,728.99898 C15.8041359,728.99898 17.1704149,729.25876 18.3335211,729.778328 C19.4966273,730.297896 20.4565259,731.042131 21.2132456,732.011055 C21.9699653,732.979979 22.53049,734.145479 22.8948365,735.507589 C23.259183,736.8697 23.4413535,738.379232 23.4413535,740.036233 C23.4413535,743.602996 22.6496124,746.334197 21.0661063,748.229918 C19.4826003,750.125639 17.2054687,751.073485 14.2346432,751.073485 C12.6651505,751.073485 11.2988716,750.813705 10.1357654,750.294137 C8.97265918,749.774569 8.01276063,749.030334 7.25604093,748.06141 C6.49932123,747.092486 5.93879653,745.926987 5.57445001,744.564876 C5.21010349,743.202766 5.02793296,741.693233 5.02793296,740.036233 L5.02793296,740.036233 Z M8.51723412,740.036233 C8.51723412,741.103453 8.6223325,742.128531 8.83253241,743.111498 C9.04273233,744.094464 9.37204059,744.951036 9.82046708,745.68124 C10.2688936,746.411443 10.8574445,747.001214 11.5861375,747.45057 C12.3148306,747.899926 13.197657,748.124601 14.2346432,748.124601 C18.0462684,748.152686 19.9520524,745.45659 19.9520524,740.036233 C19.9520524,738.940927 19.846954,737.901807 19.6367541,736.918841 C19.4265542,735.935874 19.0972459,735.079302 18.6488194,734.349099 C18.2003929,733.618895 17.611842,733.036145 16.8831489,732.600832 C16.1544559,732.165518 15.2716295,731.947865 14.2346432,731.947865 C10.4230181,731.91978 8.51723412,734.615876 8.51723412,740.036233 L8.51723412,740.036233 Z M28.7383649,729.504503 L31.0505524,729.504503 L31.681149,732.032118 L31.8493081,732.032118 C32.4939212,731.049152 33.3277017,730.297896 34.3506746,729.778328 C35.3736475,729.25876 36.5437428,728.99898 37.8609956,728.99898 C40.6636612,728.99898 42.7516157,729.827468 44.1249218,731.484468 C45.4982279,733.141469 46.1848707,735.851607 46.1848707,739.614963 C46.1848707,741.384303 45.9536543,742.978089 45.4912144,744.396369 C45.0287746,745.814649 44.3771647,747.015254 43.536365,747.99822 C42.6955653,748.981186 41.6796143,749.739463 40.4884815,750.273074 C39.2973486,750.806684 37.973109,751.073485 36.5157229,751.073485 C35.4787367,751.073485 34.6589693,751.010295 34.0563962,750.883914 C33.4538231,750.757533 32.8022131,750.539879 32.1015468,750.230947 L32.1015468,758.993346 L28.7383649,758.993346 L28.7383649,729.504503 Z M37.2303991,731.947865 C35.8010396,731.947865 34.6729837,732.319982 33.8461973,733.064228 C33.019411,733.808474 32.4378666,734.938868 32.1015468,736.455445 L32.1015468,746.90292 C32.6060266,747.296107 33.1805644,747.598013 33.8251774,747.808649 C34.4697905,748.019285 35.3245907,748.124601 36.3896036,748.124601 C38.3234428,748.124601 39.8578792,747.401429 40.9929587,745.955065 C42.1280383,744.5087 42.6955695,742.381312 42.6955695,739.572837 C42.6955695,738.421362 42.5974777,737.37522 42.4012911,736.434381 C42.2051045,735.493542 41.8898094,734.693139 41.4553962,734.033147 C41.0209831,733.373155 40.4604584,732.860616 39.7738053,732.495514 C39.0871523,732.130413 38.2393587,731.947865 37.2303991,731.947865 L37.2303991,731.947865 Z M66.8263992,748.882885 C65.9855996,749.556919 64.9276092,750.090522 63.6523964,750.483708 C62.3771835,750.876895 61.0249177,751.073485 59.5955583,751.073485 C57.9980389,751.073485 56.6107403,750.813705 55.4336208,750.294137 C54.2565012,749.774569 53.2895961,749.030334 52.5328764,748.06141 C51.7761567,747.092486 51.215632,745.934008 50.8512855,744.58594 C50.486939,743.237872 50.3047684,741.721318 50.3047684,740.036233 C50.3047684,736.441384 51.1035161,733.703162 52.7010355,731.821484 C54.2985549,729.939805 56.582693,728.99898 59.5535185,728.99898 C60.5064248,728.99898 61.4593168,729.104297 62.4122231,729.314932 C63.3651293,729.525568 64.2199295,729.92577 64.9766492,730.515549 C65.7333689,731.105329 66.3499461,731.940838 66.8263992,733.022101 C67.3028524,734.103364 67.5410754,735.528644 67.5410754,737.297983 C67.5410754,738.22478 67.4569967,739.249858 67.2888367,740.373248 L53.7940696,740.373248 C53.7940696,741.608977 53.9201877,742.704266 54.1724276,743.659148 C54.4246675,744.614029 54.8170348,745.421454 55.3495412,746.081445 C55.8820477,746.741437 56.575697,747.246955 57.43051,747.598014 C58.285323,747.949074 59.3293002,748.124601 60.5624731,748.124601 C61.5153793,748.124601 62.4682713,747.956095 63.4211776,747.619078 C64.3740839,747.282061 65.0887529,746.88888 65.565206,746.439524 L66.8263992,748.882885 Z M59.5955583,731.947865 C57.9419856,731.947865 56.617746,732.383172 55.6227997,733.253799 C54.6278535,734.124426 54.032296,735.612896 53.8361094,737.719252 L64.2619731,737.719252 C64.2619731,735.584811 63.8555927,734.08932 63.0428197,733.232735 C62.2300467,732.376151 61.080971,731.947865 59.5955583,731.947865 L59.5955583,731.947865 Z M86.3328539,750.567962 L86.3328539,738.561791 C86.3328539,736.37118 86.0175587,734.721225 85.386959,733.611878 C84.7563592,732.50253 83.600277,731.947865 81.9186777,731.947865 C80.433265,731.947865 79.2071172,732.348066 78.2401976,733.148482 C77.273278,733.948897 76.5936418,734.952912 76.2012686,736.160556 L76.2012686,750.567962 L72.8380868,750.567962 L72.8380868,729.504503 L75.192314,729.504503 L75.8229106,732.074245 L75.9910697,732.074245 C76.6637095,731.175533 77.5675555,730.43832 78.7026351,729.862582 C79.8377146,729.286845 81.1899805,728.99898 82.7594732,728.99898 C83.9085661,728.99898 84.9175105,729.132381 85.7863368,729.399186 C86.6551632,729.665991 87.3768387,730.136404 87.9513851,730.810438 C88.5259316,731.484472 88.9603382,732.390191 89.2546181,733.527624 C89.548898,734.665056 89.6960357,736.104378 89.6960357,737.845633 L89.6960357,750.567962 L86.3328539,750.567962 Z M116.307212,744.838701 C116.307212,743.996159 116.054976,743.336177 115.550496,742.858736 C115.046016,742.381295 114.422433,741.981094 113.679726,741.658119 C112.93702,741.335144 112.124259,741.026217 111.241419,740.731327 C110.35858,740.436437 109.545819,740.057298 108.803113,739.5939 C108.060406,739.130502 107.436822,738.53371 106.932343,737.803506 C106.427863,737.073302 106.175627,736.090351 106.175627,734.854622 C106.175627,732.83252 106.750165,731.351071 107.899257,730.410232 C109.04835,729.469393 110.645846,728.99898 112.691792,728.99898 C114.205231,728.99898 115.473418,729.132381 116.496391,729.399186 C117.519364,729.665991 118.409197,729.98194 119.165917,730.347042 L118.367161,733.127418 C117.722548,732.818486 116.94482,732.544664 116.033953,732.305943 C115.123087,732.067223 114.149176,731.947865 113.112189,731.947865 C111.879016,731.947865 110.97517,732.158497 110.400624,732.579768 C109.826077,733.00104 109.538809,733.731232 109.538809,734.770368 C109.538809,735.500572 109.791045,736.069279 110.295524,736.476508 C110.800004,736.883737 111.423588,737.248833 112.166294,737.571808 C112.909001,737.894783 113.721762,738.210731 114.604601,738.519664 C115.487441,738.828596 116.300202,739.235819 117.042908,739.741344 C117.785614,740.24687 118.409198,740.885788 118.913678,741.658119 C119.418158,742.43045 119.670394,743.448507 119.670394,744.71232 C119.670394,745.611033 119.523256,746.453562 119.228976,747.239936 C118.934696,748.026309 118.47927,748.700333 117.862684,749.262028 C117.246097,749.823723 116.482382,750.266051 115.571516,750.589025 C114.66065,750.912 113.588646,751.073485 112.355473,751.073485 C110.757954,751.073485 109.398682,750.919021 108.277615,750.610089 C107.156549,750.301157 106.21767,749.93606 105.460951,749.514789 L106.469905,746.650159 C107.114518,747.01526 107.955305,747.352272 108.992292,747.661205 C110.029278,747.970137 111.080262,748.124601 112.145274,748.124601 C113.350421,748.124601 114.345352,747.885884 115.130098,747.408443 C115.914845,746.931002 116.307212,746.07443 116.307212,744.838701 L116.307212,744.838701 Z M123.580093,740.036233 C123.580093,736.469469 124.371834,733.738268 125.95534,731.842547 C127.538846,729.946826 129.815978,728.99898 132.786803,728.99898 C134.356296,728.99898 135.722575,729.25876 136.885681,729.778328 C138.048787,730.297896 139.008686,731.042131 139.765405,732.011055 C140.522125,732.979979 141.08265,734.145479 141.446996,735.507589 C141.811343,736.8697 141.993513,738.379232 141.993513,740.036233 C141.993513,743.602996 141.201772,746.334197 139.618266,748.229918 C138.03476,750.125639 135.757628,751.073485 132.786803,751.073485 C131.21731,751.073485 129.851031,750.813705 128.687925,750.294137 C127.524819,749.774569 126.56492,749.030334 125.808201,748.06141 C125.051481,747.092486 124.490956,745.926987 124.12661,744.564876 C123.762263,743.202766 123.580093,741.693233 123.580093,740.036233 L123.580093,740.036233 Z M127.069394,740.036233 C127.069394,741.103453 127.174492,742.128531 127.384692,743.111498 C127.594892,744.094464 127.9242,744.951036 128.372627,745.68124 C128.821053,746.411443 129.409604,747.001214 130.138297,747.45057 C130.86699,747.899926 131.749817,748.124601 132.786803,748.124601 C136.598428,748.152686 138.504212,745.45659 138.504212,740.036233 C138.504212,738.940927 138.399114,737.901807 138.188914,736.918841 C137.978714,735.935874 137.649406,735.079302 137.200979,734.349099 C136.752553,733.618895 136.164002,733.036145 135.435309,732.600832 C134.706616,732.165518 133.823789,731.947865 132.786803,731.947865 C128.975178,731.91978 127.069394,734.615876 127.069394,740.036233 L127.069394,740.036233 Z M150.317388,729.504503 L150.317388,741.510675 C150.317388,742.60598 150.380447,743.567868 150.506567,744.396369 C150.632687,745.224869 150.849891,745.912935 151.158184,746.460588 C151.466477,747.00824 151.886871,747.422484 152.419377,747.703332 C152.951883,747.984179 153.624513,748.124601 154.437286,748.124601 C155.194006,748.124601 155.866635,748.005242 156.455195,747.766522 C157.043755,747.527802 157.569247,747.197811 158.031687,746.776539 C158.494126,746.355268 158.900507,745.870813 159.25084,745.323161 C159.601173,744.775508 159.888442,744.192758 160.112655,743.574894 L160.112655,729.504503 L163.475837,729.504503 L163.475837,744.58594 C163.475837,745.596991 163.51087,746.643132 163.580937,747.724395 C163.651003,748.805658 163.770115,749.753504 163.938275,750.567962 L161.626087,750.567962 L160.785292,747.239936 L160.575093,747.239936 C159.93048,748.335241 159.061667,749.247982 157.968627,749.978185 C156.875587,750.708389 155.488289,751.073485 153.806689,751.073485 C152.685623,751.073485 151.697698,750.940084 150.842886,750.673279 C149.988073,750.406474 149.273404,749.936062 148.698857,749.262028 C148.124311,748.587994 147.689904,747.682274 147.395624,746.544841 C147.101344,745.407409 146.954207,743.968087 146.954207,742.226832 L146.954207,729.504503 L150.317388,729.504503 Z M179.871349,732.748276 C179.030549,732.467428 178.231801,732.327007 177.475082,732.327007 C176.269935,732.327007 175.317044,732.656998 174.616377,733.316989 C173.915711,733.976981 173.481304,734.81249 173.313144,735.823541 L173.313144,750.567962 L169.949962,750.567962 L169.949962,729.504503 L172.30419,729.504503 L172.934786,732.074245 L173.102945,732.074245 C173.635452,731.119364 174.273049,730.38215 175.015755,729.862582 C175.758461,729.343014 176.704347,729.083234 177.85344,729.083234 C178.666213,729.083234 179.577065,729.223656 180.586025,729.504503 L179.871349,732.748276 Z M198.579048,749.177774 C197.738248,749.795638 196.743317,750.266051 195.594224,750.589025 C194.445131,750.912 193.240003,751.073485 191.978803,751.073485 C190.353257,751.073485 188.979972,750.813705 187.858906,750.294137 C186.737839,749.774569 185.81998,749.030334 185.1053,748.06141 C184.390621,747.092486 183.872135,745.926987 183.549829,744.564876 C183.227522,743.202766 183.066371,741.693233 183.066371,740.036233 C183.066371,736.469469 183.851106,733.738268 185.420599,731.842547 C186.990091,729.946826 189.246203,728.99898 192.189002,728.99898 C193.534282,728.99898 194.676351,729.104297 195.615244,729.314932 C196.554137,729.525568 197.40193,729.827474 198.15865,730.220661 L197.191735,733.127418 C196.547122,732.762316 195.832453,732.474452 195.047707,732.263816 C194.26296,732.053181 193.422173,731.947865 192.52532,731.947865 C188.545535,731.947865 186.555673,734.64396 186.555673,740.036233 C186.555673,741.103453 186.660771,742.12151 186.870971,743.090434 C187.081171,744.059358 187.431499,744.91593 187.921965,745.660176 C188.412432,746.404422 189.057035,747.001214 189.855795,747.45057 C190.654555,747.899926 191.642479,748.124601 192.819599,748.124601 C193.828558,748.124601 194.732404,747.970137 195.531164,747.661205 C196.329924,747.352272 196.981534,747.001218 197.486014,746.608032 L198.579048,749.177774 Z M217.581025,748.882885 C216.740225,749.556919 215.682235,750.090522 214.407022,750.483708 C213.131809,750.876895 211.779544,751.073485 210.350184,751.073485 C208.752665,751.073485 207.365366,750.813705 206.188247,750.294137 C205.011127,749.774569 204.044222,749.030334 203.287502,748.06141 C202.530783,747.092486 201.970258,745.934008 201.605911,744.58594 C201.241565,743.237872 201.059394,741.721318 201.059394,740.036233 C201.059394,736.441384 201.858142,733.703162 203.455661,731.821484 C205.053181,729.939805 207.337319,728.99898 210.308144,728.99898 C211.261051,728.99898 212.213943,729.104297 213.166849,729.314932 C214.119755,729.525568 214.974555,729.92577 215.731275,730.515549 C216.487995,731.105329 217.104572,731.940838 217.581025,733.022101 C218.057478,734.103364 218.295701,735.528644 218.295701,737.297983 C218.295701,738.22478 218.211623,739.249858 218.043463,740.373248 L204.548695,740.373248 C204.548695,741.608977 204.674814,742.704266 204.927053,743.659148 C205.179293,744.614029 205.571661,745.421454 206.104167,746.081445 C206.636674,746.741437 207.330323,747.246955 208.185136,747.598014 C209.039949,747.949074 210.083926,748.124601 211.317099,748.124601 C212.270005,748.124601 213.222897,747.956095 214.175803,747.619078 C215.12871,747.282061 215.843379,746.88888 216.319832,746.439524 L217.581025,748.882885 Z M210.350184,731.947865 C208.696611,731.947865 207.372372,732.383172 206.377426,733.253799 C205.382479,734.124426 204.786922,735.612896 204.590735,737.719252 L215.016599,737.719252 C215.016599,735.584811 214.610219,734.08932 213.797446,733.232735 C212.984673,732.376151 211.835597,731.947865 210.350184,731.947865 L210.350184,731.947865 Z M249.152895,749.177774 C248.312095,749.795638 247.317164,750.266051 246.168071,750.589025 C245.018978,750.912 243.81385,751.073485 242.55265,751.073485 C240.927104,751.073485 239.553819,750.813705 238.432752,750.294137 C237.311686,749.774569 236.393827,749.030334 235.679147,748.06141 C234.964468,747.092486 234.445982,745.926987 234.123676,744.564876 C233.801369,743.202766 233.640218,741.693233 233.640218,740.036233 C233.640218,736.469469 234.424953,733.738268 235.994446,731.842547 C237.563938,729.946826 239.82005,728.99898 242.762849,728.99898 C244.108129,728.99898 245.250198,729.104297 246.189091,729.314932 C247.127984,729.525568 247.975777,729.827474 248.732497,730.220661 L247.765582,733.127418 C247.120969,732.762316 246.4063,732.474452 245.621554,732.263816 C244.836807,732.053181 243.99602,731.947865 243.099167,731.947865 C239.119382,731.947865 237.12952,734.64396 237.12952,740.036233 C237.12952,741.103453 237.234618,742.12151 237.444818,743.090434 C237.655018,744.059358 238.005346,744.91593 238.495812,745.660176 C238.986279,746.404422 239.630882,747.001214 240.429642,747.45057 C241.228401,747.899926 242.216326,748.124601 243.393446,748.124601 C244.402405,748.124601 245.306251,747.970137 246.105011,747.661205 C246.903771,747.352272 247.555381,747.001218 248.05986,746.608032 L249.152895,749.177774 Z M251.633241,740.036233 C251.633241,736.469469 252.424982,733.738268 254.008488,731.842547 C255.591994,729.946826 257.869126,728.99898 260.839951,728.99898 C262.409444,728.99898 263.775723,729.25876 264.938829,729.778328 C266.101936,730.297896 267.061834,731.042131 267.818554,732.011055 C268.575273,732.979979 269.135798,734.145479 269.500145,735.507589 C269.864491,736.8697 270.046662,738.379232 270.046662,740.036233 C270.046662,743.602996 269.254921,746.334197 267.671415,748.229918 C266.087909,750.125639 263.810777,751.073485 260.839951,751.073485 C259.270459,751.073485 257.90418,750.813705 256.741074,750.294137 C255.577967,749.774569 254.618069,749.030334 253.861349,748.06141 C253.104629,747.092486 252.544105,745.926987 252.179758,744.564876 C251.815412,743.202766 251.633241,741.693233 251.633241,740.036233 L251.633241,740.036233 Z M255.122542,740.036233 C255.122542,741.103453 255.227641,742.128531 255.437841,743.111498 C255.648041,744.094464 255.977349,744.951036 256.425775,745.68124 C256.874202,746.411443 257.462753,747.001214 258.191446,747.45057 C258.920139,747.899926 259.802965,748.124601 260.839951,748.124601 C264.651577,748.152686 266.557361,745.45659 266.557361,740.036233 C266.557361,738.940927 266.452262,737.901807 266.242062,736.918841 C266.031862,735.935874 265.702554,735.079302 265.254128,734.349099 C264.805701,733.618895 264.21715,733.036145 263.488457,732.600832 C262.759764,732.165518 261.876938,731.947865 260.839951,731.947865 C257.028326,731.91978 255.122542,734.615876 255.122542,740.036233 L255.122542,740.036233 Z M287.661327,750.567962 L287.661327,738.646044 C287.661327,737.522654 287.612281,736.546724 287.514187,735.718224 C287.416094,734.889723 287.226917,734.194636 286.94665,733.632941 C286.666384,733.071246 286.26701,732.649981 285.748517,732.369134 C285.230024,732.088286 284.550388,731.947865 283.709588,731.947865 C282.420362,731.947865 281.348358,732.341045 280.493545,733.127418 C279.638732,733.913791 279.043175,734.896743 278.706855,736.076302 L278.706855,750.567962 L275.343673,750.567962 L275.343673,729.504503 L277.6979,729.504503 L278.328497,732.074245 L278.496656,732.074245 C279.253376,731.175533 280.129196,730.43832 281.124142,729.862582 C282.119088,729.286845 283.415302,728.99898 285.012821,728.99898 C286.3581,728.99898 287.45813,729.25876 288.312943,729.778328 C289.167756,730.297896 289.833379,731.203616 290.309832,732.495514 C290.954445,731.400209 291.844278,730.543637 292.979358,729.925772 C294.114437,729.307908 295.396638,728.99898 296.825997,728.99898 C298.003117,728.99898 298.998048,729.132381 299.810821,729.399186 C300.623594,729.665991 301.296224,730.136404 301.82873,730.810438 C302.361237,731.484472 302.746597,732.397213 302.984824,733.548687 C303.22305,734.700162 303.342162,736.160547 303.342162,737.929887 L303.342162,750.567962 L299.97898,750.567962 L299.97898,737.88776 C299.97898,736.876709 299.929934,735.999073 299.831841,735.254828 C299.733748,734.510582 299.537564,733.892726 299.243284,733.401243 C298.949004,732.90976 298.542624,732.544664 298.024131,732.305943 C297.505638,732.067223 296.826001,731.947865 295.985202,731.947865 C294.583869,731.947865 293.490846,732.341045 292.706099,733.127418 C291.921353,733.913791 291.360828,735.037164 291.024508,736.497572 L291.024508,750.567962 L287.661327,750.567962 Z M321.797622,750.567962 L321.797622,738.646044 C321.797622,737.522654 321.748576,736.546724 321.650483,735.718224 C321.55239,734.889723 321.363213,734.194636 321.082946,733.632941 C320.80268,733.071246 320.403306,732.649981 319.884813,732.369134 C319.366319,732.088286 318.686683,731.947865 317.845884,731.947865 C316.556657,731.947865 315.484654,732.341045 314.629841,733.127418 C313.775028,733.913791 313.179471,734.896743 312.843151,736.076302 L312.843151,750.567962 L309.479969,750.567962 L309.479969,729.504503 L311.834196,729.504503 L312.464793,732.074245 L312.632952,732.074245 C313.389671,731.175533 314.265491,730.43832 315.260438,729.862582 C316.255384,729.286845 317.551597,728.99898 319.149117,728.99898 C320.494396,728.99898 321.594426,729.25876 322.449239,729.778328 C323.304052,730.297896 323.969675,731.203616 324.446128,732.495514 C325.090741,731.400209 325.980574,730.543637 327.115654,729.925772 C328.250733,729.307908 329.532933,728.99898 330.962293,728.99898 C332.139412,728.99898 333.134344,729.132381 333.947117,729.399186 C334.75989,729.665991 335.432519,730.136404 335.965026,730.810438 C336.497532,731.484472 336.882893,732.397213 337.12112,733.548687 C337.359346,734.700162 337.478458,736.160547 337.478458,737.929887 L337.478458,750.567962 L334.115276,750.567962 L334.115276,737.88776 C334.115276,736.876709 334.06623,735.999073 333.968137,735.254828 C333.870043,734.510582 333.67386,733.892726 333.37958,733.401243 C333.0853,732.90976 332.678919,732.544664 332.160426,732.305943 C331.641933,732.067223 330.962297,731.947865 330.121497,731.947865 C328.720165,731.947865 327.627141,732.341045 326.842395,733.127418 C326.057649,733.913791 325.497124,735.037164 325.160804,736.497572 L325.160804,750.567962 L321.797622,750.567962 Z M346.643128,729.504503 L346.643128,741.510675 C346.643128,742.60598 346.706187,743.567868 346.832307,744.396369 C346.958427,745.224869 347.17563,745.912935 347.483924,746.460588 C347.792217,747.00824 348.21261,747.422484 348.745117,747.703332 C349.277623,747.984179 349.950253,748.124601 350.763026,748.124601 C351.519746,748.124601 352.192375,748.005242 352.780935,747.766522 C353.369495,747.527802 353.894987,747.197811 354.357426,746.776539 C354.819866,746.355268 355.226247,745.870813 355.57658,745.323161 C355.926913,744.775508 356.214182,744.192758 356.438395,743.574894 L356.438395,729.504503 L359.801577,729.504503 L359.801577,744.58594 C359.801577,745.596991 359.83661,746.643132 359.906676,747.724395 C359.976743,748.805658 360.095855,749.753504 360.264015,750.567962 L357.951827,750.567962 L357.111032,747.239936 L356.900833,747.239936 C356.25622,748.335241 355.387406,749.247982 354.294367,749.978185 C353.201327,750.708389 351.814029,751.073485 350.132429,751.073485 C349.011363,751.073485 348.023438,750.940084 347.168625,750.673279 C346.313812,750.406474 345.599143,749.936062 345.024597,749.262028 C344.45005,748.587994 344.015644,747.682274 343.721364,746.544841 C343.427084,745.407409 343.279946,743.968087 343.279946,742.226832 L343.279946,729.504503 L346.643128,729.504503 Z M379.770469,750.567962 L379.770469,738.561791 C379.770469,736.37118 379.455174,734.721225 378.824574,733.611878 C378.193975,732.50253 377.037892,731.947865 375.356293,731.947865 C373.87088,731.947865 372.644733,732.348066 371.677813,733.148482 C370.710893,733.948897 370.031257,734.952912 369.638884,736.160556 L369.638884,750.567962 L366.275702,750.567962 L366.275702,729.504503 L368.629929,729.504503 L369.260526,732.074245 L369.428685,732.074245 C370.101325,731.175533 371.005171,730.43832 372.14025,729.862582 C373.27533,729.286845 374.627596,728.99898 376.197089,728.99898 C377.346181,728.99898 378.355126,729.132381 379.223952,729.399186 C380.092778,729.665991 380.814454,730.136404 381.389,730.810438 C381.963547,731.484472 382.397954,732.390191 382.692233,733.527624 C382.986513,734.665056 383.133651,736.104378 383.133651,737.845633 L383.133651,750.567962 L379.770469,750.567962 Z M389.986134,729.504503 L393.349316,729.504503 L393.349316,750.567962 L389.986134,750.567962 L389.986134,729.504503 Z M389.271458,723.101212 C389.271458,722.455263 389.488661,721.900597 389.923074,721.437199 C390.357488,720.9738 390.911006,720.742104 391.583645,720.742104 C392.256285,720.742104 392.830823,720.9738 393.307276,721.437199 C393.783729,721.900597 394.021952,722.455263 394.021952,723.101212 C394.021952,723.747161 393.783729,724.280763 393.307276,724.702035 C392.830823,725.123306 392.256285,725.333938 391.583645,725.333938 C390.911006,725.333938 390.357488,725.123306 389.923074,724.702035 C389.488661,724.280763 389.271458,723.747161 389.271458,723.101212 L389.271458,723.101212 Z M397.763492,729.504503 L401.042594,729.504503 L401.042594,725.333938 L404.405776,724.365019 L404.405776,729.504503 L410.123185,729.504503 L410.123185,732.453388 L404.405776,732.453388 L404.405776,744.122544 C404.405776,745.582951 404.587947,746.61505 404.952293,747.218872 C405.31664,747.822694 405.933217,748.124601 406.802043,748.124601 C407.530736,748.124601 408.147313,748.047369 408.651793,747.892903 C409.156273,747.738437 409.716798,747.534825 410.333384,747.282062 L411.0901,749.851804 C410.33338,750.216906 409.506606,750.511792 408.609753,750.73647 C407.7129,750.961148 406.745995,751.073485 405.709009,751.073485 C403.999383,751.073485 402.794255,750.58903 402.093589,749.620106 C401.392922,748.651182 401.042594,747.029312 401.042594,744.754447 L401.042594,732.453388 L397.763492,732.453388 L397.763492,729.504503 Z M420.969447,743.153625 L422.14656,747.197809 L422.356759,747.197809 L423.281634,743.111498 L427.359492,729.504503 L430.764714,729.504503 L424.542827,748.419489 C424.066374,749.795642 423.596935,751.129648 423.134495,752.421546 C422.672055,753.713445 422.160576,754.864903 421.600043,755.875954 C421.03951,756.887005 420.40892,757.694429 419.708254,758.298251 C419.007587,758.902074 418.194826,759.20398 417.269947,759.20398 C416.260987,759.20398 415.434213,759.063558 414.7896,758.782711 L415.378157,755.875954 C415.742503,756.016377 416.092831,756.086588 416.429151,756.086588 C417.213898,756.086588 417.970606,755.672344 418.699299,754.843844 C419.427992,754.015344 420.030556,752.590064 420.507009,750.567962 L412.057015,729.504503 L415.924674,729.504503 L420.969447,743.153625 Z M453.340072,744.838701 C453.340072,743.996159 453.087836,743.336177 452.583356,742.858736 C452.078876,742.381295 451.455292,741.981094 450.712586,741.658119 C449.96988,741.335144 449.157119,741.026217 448.274279,740.731327 C447.39144,740.436437 446.578679,740.057298 445.835972,739.5939 C445.093266,739.130502 444.469682,738.53371 443.965203,737.803506 C443.460723,737.073302 443.208487,736.090351 443.208487,734.854622 C443.208487,732.83252 443.783024,731.351071 444.932117,730.410232 C446.08121,729.469393 447.678706,728.99898 449.724651,728.99898 C451.238091,728.99898 452.506278,729.132381 453.529251,729.399186 C454.552224,729.665991 455.442057,729.98194 456.198776,730.347042 L455.400021,733.127418 C454.755408,732.818486 453.97768,732.544664 453.066813,732.305943 C452.155947,732.067223 451.182035,731.947865 450.145049,731.947865 C448.911876,731.947865 448.00803,732.158497 447.433484,732.579768 C446.858937,733.00104 446.571668,733.731232 446.571668,734.770368 C446.571668,735.500572 446.823905,736.069279 447.328384,736.476508 C447.832864,736.883737 448.456448,737.248833 449.199154,737.571808 C449.941861,737.894783 450.754621,738.210731 451.637461,738.519664 C452.520301,738.828596 453.333062,739.235819 454.075768,739.741344 C454.818474,740.24687 455.442058,740.885788 455.946538,741.658119 C456.451018,742.43045 456.703254,743.448507 456.703254,744.71232 C456.703254,745.611033 456.556116,746.453562 456.261836,747.239936 C455.967556,748.026309 455.51213,748.700333 454.895544,749.262028 C454.278957,749.823723 453.515242,750.266051 452.604376,750.589025 C451.69351,750.912 450.621506,751.073485 449.388333,751.073485 C447.790814,751.073485 446.431541,750.919021 445.310475,750.610089 C444.189409,750.301157 443.25053,749.93606 442.49381,749.514789 L443.502765,746.650159 C444.147378,747.01526 444.988165,747.352272 446.025151,747.661205 C447.062138,747.970137 448.113121,748.124601 449.178134,748.124601 C450.383281,748.124601 451.378212,747.885884 452.162958,747.408443 C452.947705,746.931002 453.340072,746.07443 453.340072,744.838701 L453.340072,744.838701 Z M460.612953,740.036233 C460.612953,736.469469 461.404694,733.738268 462.9882,731.842547 C464.571706,729.946826 466.848837,728.99898 469.819663,728.99898 C471.389156,728.99898 472.755435,729.25876 473.918541,729.778328 C475.081647,730.297896 476.041546,731.042131 476.798265,732.011055 C477.554985,732.979979 478.11551,734.145479 478.479856,735.507589 C478.844203,736.8697 479.026373,738.379232 479.026373,740.036233 C479.026373,743.602996 478.234632,746.334197 476.651126,748.229918 C475.06762,750.125639 472.790488,751.073485 469.819663,751.073485 C468.25017,751.073485 466.883891,750.813705 465.720785,750.294137 C464.557679,749.774569 463.59778,749.030334 462.841061,748.06141 C462.084341,747.092486 461.523816,745.926987 461.15947,744.564876 C460.795123,743.202766 460.612953,741.693233 460.612953,740.036233 L460.612953,740.036233 Z M464.102254,740.036233 C464.102254,741.103453 464.207352,742.128531 464.417552,743.111498 C464.627752,744.094464 464.95706,744.951036 465.405487,745.68124 C465.853913,746.411443 466.442464,747.001214 467.171157,747.45057 C467.89985,747.899926 468.782677,748.124601 469.819663,748.124601 C473.631288,748.152686 475.537072,745.45659 475.537072,740.036233 C475.537072,738.940927 475.431974,737.901807 475.221774,736.918841 C475.011574,735.935874 474.682266,735.079302 474.233839,734.349099 C473.785413,733.618895 473.196862,733.036145 472.468169,732.600832 C471.739476,732.165518 470.856649,731.947865 469.819663,731.947865 C466.008038,731.91978 464.102254,734.615876 464.102254,740.036233 L464.102254,740.036233 Z M481.50672,729.504503 L484.785822,729.504503 L484.785822,728.32495 C484.785822,727.033051 484.89092,725.909678 485.10112,724.954796 C485.31132,723.999915 485.654642,723.220574 486.131095,722.616752 C486.607548,722.01293 487.224125,721.563581 487.980845,721.268691 C488.737565,720.973801 489.676443,720.826358 490.79751,720.826358 C491.694363,720.826358 492.486104,720.882527 493.172757,720.994866 C493.85941,721.107205 494.581085,721.317837 495.337805,721.62677 L494.581089,724.449273 C493.936476,724.168426 493.326906,723.985878 492.752359,723.901623 C492.177813,723.817369 491.638308,723.775243 491.133828,723.775243 C490.405135,723.775243 489.837604,723.88758 489.431217,724.112258 C489.02483,724.336936 488.730555,724.666927 488.548382,725.10224 C488.366209,725.537554 488.254104,726.071156 488.212064,726.703063 C488.170024,727.33497 488.149004,728.072184 488.149004,728.914726 L488.149004,729.504503 L493.740294,729.504503 L493.740294,732.453388 L488.149004,732.453388 L488.149004,750.567962 L484.785822,750.567962 L484.785822,732.453388 L481.50672,732.453388 L481.50672,729.504503 Z M493.782334,729.504503 L497.061436,729.504503 L497.061436,725.333938 L500.424618,724.365019 L500.424618,729.504503 L506.142027,729.504503 L506.142027,732.453388 L500.424618,732.453388 L500.424618,744.122544 C500.424618,745.582951 500.606788,746.61505 500.971135,747.218872 C501.335481,747.822694 501.952058,748.124601 502.820885,748.124601 C503.549578,748.124601 504.166155,748.047369 504.670635,747.892903 C505.175114,747.738437 505.735639,747.534825 506.352226,747.282062 L507.108942,749.851804 C506.352222,750.216906 505.525448,750.511792 504.628595,750.73647 C503.731742,750.961148 502.764837,751.073485 501.727851,751.073485 C500.018225,751.073485 498.813097,750.58903 498.11243,749.620106 C497.411764,748.651182 497.061436,747.029312 497.061436,744.754447 L497.061436,732.453388 L493.782334,732.453388 L493.782334,729.504503 Z M524.429328,729.504503 L529.263902,741.805563 L530.314896,745.849747 L530.398976,745.849747 L531.197731,741.721309 L534.939271,729.504503 L538.134294,729.504503 L531.071612,751.031358 L529.432061,751.031358 L523.924851,737.129475 L523.126095,733.675068 L522.999976,733.675068 L522.15918,737.171602 L516.862169,751.031358 L515.222618,751.031358 L507.907697,729.504503 L511.565157,729.504503 L515.727095,741.763436 L516.441771,745.849747 L516.483811,745.849747 L517.492765,741.679182 L521.991021,729.504503 L524.429328,729.504503 Z M541.371357,731.063199 C542.436369,730.41725 543.67653,729.939816 545.091876,729.630884 C546.507223,729.321952 547.985606,729.167488 549.527072,729.167488 C550.984459,729.167488 552.154554,729.364078 553.037394,729.757265 C553.920233,730.150451 554.592863,730.66299 555.055303,731.294897 C555.517742,731.926804 555.826031,732.621891 555.980178,733.38018 C556.134324,734.138468 556.211396,734.896745 556.211396,735.655033 C556.211396,737.340118 556.169357,738.983052 556.085277,740.583883 C556.001197,742.184713 555.959158,743.701267 555.959158,745.13359 C555.959158,746.172725 556.001197,747.155677 556.085277,748.082474 C556.169357,749.009271 556.323501,749.865843 556.547715,750.652216 L554.067368,750.652216 L553.184533,747.703332 L552.974334,747.703332 C552.722094,748.096518 552.406799,748.482678 552.028439,748.861822 C551.650079,749.240966 551.194653,749.577978 550.662146,749.872868 C550.12964,750.167758 549.513063,750.413496 548.812396,750.610089 C548.11173,750.806682 547.312982,750.904977 546.416129,750.904977 C545.519276,750.904977 544.685496,750.764556 543.914763,750.483708 C543.14403,750.202861 542.478407,749.802659 541.917874,749.283091 C541.35734,748.763523 540.915927,748.138647 540.593621,747.408443 C540.271314,746.67824 540.110163,745.849752 540.110163,744.922955 C540.110163,743.687226 540.362399,742.655127 540.866879,741.826627 C541.371359,740.998126 542.079021,740.338145 542.989888,739.846662 C543.900754,739.355178 544.993777,739.004124 546.26899,738.793489 C547.544203,738.582853 548.952521,738.477537 550.493987,738.477537 L551.650081,738.477537 C552.028441,738.477537 552.413802,738.505621 552.806175,738.561791 C552.890255,737.719248 552.932294,736.960971 552.932294,736.286937 C552.932294,734.742276 552.624005,733.661029 552.007419,733.043164 C551.390833,732.4253 550.269783,732.116372 548.644237,732.116372 C548.167784,732.116372 547.656305,732.151478 547.109786,732.221689 C546.563266,732.291901 546.002741,732.390197 545.428195,732.516578 C544.853648,732.642959 544.307137,732.797423 543.788643,732.979974 C543.27015,733.162525 542.814724,733.366136 542.422351,733.590814 L541.371357,731.063199 Z M547.341004,747.956093 C548.125751,747.956093 548.826406,747.850777 549.442993,747.640141 C550.059579,747.429506 550.592078,747.162704 551.040504,746.83973 C551.488931,746.516755 551.860278,746.15868 552.154558,745.765493 C552.448838,745.372307 552.666041,744.993168 552.806175,744.628067 L552.806175,741.131533 C552.413802,741.103448 552.014428,741.082385 551.608041,741.068342 C551.201655,741.0543 550.802281,741.047279 550.409908,741.047279 C549.541081,741.047279 548.693288,741.096426 547.866501,741.194723 C547.039715,741.29302 546.311033,741.475568 545.680433,741.742373 C545.049833,742.009178 544.545361,742.374274 544.167001,742.837673 C543.788642,743.301071 543.599464,743.883821 543.599464,744.58594 C543.599464,745.568906 543.949792,746.376331 544.650459,747.008237 C545.351125,747.640144 546.247965,747.956093 547.341004,747.956093 L547.341004,747.956093 Z M572.480789,732.748276 C571.639989,732.467428 570.841241,732.327007 570.084521,732.327007 C568.879375,732.327007 567.926483,732.656998 567.225817,733.316989 C566.52515,733.976981 566.090744,734.81249 565.922584,735.823541 L565.922584,750.567962 L562.559402,750.567962 L562.559402,729.504503 L564.913629,729.504503 L565.544226,732.074245 L565.712385,732.074245 C566.244892,731.119364 566.882488,730.38215 567.625195,729.862582 C568.367901,729.343014 569.313787,729.083234 570.462879,729.083234 C571.275652,729.083234 572.186505,729.223656 573.195465,729.504503 L572.480789,732.748276 Z M592.197442,748.882885 C591.356642,749.556919 590.298652,750.090522 589.023439,750.483708 C587.748226,750.876895 586.395961,751.073485 584.966601,751.073485 C583.369082,751.073485 581.981783,750.813705 580.804664,750.294137 C579.627544,749.774569 578.660639,749.030334 577.903919,748.06141 C577.1472,747.092486 576.586675,745.934008 576.222328,744.58594 C575.857982,743.237872 575.675811,741.721318 575.675811,740.036233 C575.675811,736.441384 576.474559,733.703162 578.072078,731.821484 C579.669598,729.939805 581.953736,728.99898 584.924561,728.99898 C585.877468,728.99898 586.83036,729.104297 587.783266,729.314932 C588.736172,729.525568 589.590972,729.92577 590.347692,730.515549 C591.104412,731.105329 591.720989,731.940838 592.197442,733.022101 C592.673895,734.103364 592.912118,735.528644 592.912118,737.297983 C592.912118,738.22478 592.828039,739.249858 592.65988,740.373248 L579.165112,740.373248 C579.165112,741.608977 579.29123,742.704266 579.54347,743.659148 C579.79571,744.614029 580.188078,745.421454 580.720584,746.081445 C581.25309,746.741437 581.94674,747.246955 582.801553,747.598014 C583.656366,747.949074 584.700343,748.124601 585.933516,748.124601 C586.886422,748.124601 587.839314,747.956095 588.79222,747.619078 C589.745127,747.282061 590.459796,746.88888 590.936249,746.439524 L592.197442,748.882885 Z M584.966601,731.947865 C583.313028,731.947865 581.988789,732.383172 580.993843,733.253799 C579.998896,734.124426 579.403339,735.612896 579.207152,737.719252 L589.633016,737.719252 C589.633016,735.584811 589.226635,734.08932 588.413862,733.232735 C587.601089,732.376151 586.452014,731.947865 584.966601,731.947865 L584.966601,731.947865 Z" id="Logo--tagline" fill="#403B3E" sketch:type="MSShapeGroup"></path>
                <path d="M471.712813,614.461495 C471.251621,613.413185 470.581131,612.814261 469.830297,612.814261 C467.304244,612.814261 454.252969,630.110614 448.499181,630.110614 C446.394137,630.110614 445.552119,625.089092 445.552119,618.672703 C445.552119,611.558881 445.692456,605.839926 446.67481,600.539431 C448.779854,597.052263 450.604226,593.704582 452.428597,589.519981 C452.428597,584.916919 444.710102,577.24515 438.956314,577.24515 C436.991606,577.24515 435.447907,578.779504 434.18488,581.290265 C433.202526,580.732318 431.799163,580.313858 429.974791,579.895397 C427.027729,579.337451 424.221004,579.058477 421.554614,579.058477 C409.906702,579.058477 399.80249,586.311786 393.347021,593.983555 C388.556231,599.772395 385.526046,606.873694 384.04602,614.11609 C383.157671,614.775453 382.131676,615.815989 381.028613,617.277836 C376.116843,623.554738 369.80171,629.971127 359.837834,629.971127 C352.821019,629.971127 347.768913,625.228579 347.768913,614.906562 L347.768913,609.327094 C365.310949,586.59076 386.782401,571.386708 386.782401,554.229842 C386.782401,546.418587 381.870631,541.815525 373.871462,541.815525 C346.388771,541.815525 329.559606,580.137734 327.965595,613.280512 L327.965595,613.280512 C327.848249,613.248768 327.723687,613.232722 327.591673,613.232722 C326.468983,613.232722 324.644611,614.488102 322.539567,617.277836 C319.03116,621.880898 306.400894,635.690082 290.402557,635.690082 L288.718522,635.690082 C301.910133,630.66856 312.435354,614.627589 312.435354,600.260457 C312.435354,588.68306 306.120221,579.058477 290.542893,579.058477 C281.98238,579.058477 276.228592,582.406158 271.878167,587.288193 C270.334468,582.964105 266.12438,576.129256 261.633618,576.129256 C259.809247,576.129256 257.42353,576.966176 256.160503,580.034884 C251.067021,591.83378 247.173073,603.519723 244.217324,614.464037 C240.038785,618.228159 232.987225,629.971255 219.423582,640.572117 C225.177369,621.601924 231.913511,597.470723 231.913511,589.938441 C231.913511,586.59076 226.721069,576.129256 221.107617,576.129256 C218.7219,576.129256 216.195847,577.384637 214.792484,582.266672 C211.705086,580.592831 204.267263,579.058477 198.934484,579.058477 C187.286572,579.058477 177.182359,586.311786 170.72689,593.983555 C166.10626,599.566785 163.12339,606.370899 161.589469,613.344965 L161.589469,613.344965 C157.678191,614.716012 150.690081,628.397357 135.112659,640.572117 C140.866447,621.601924 147.602588,597.470723 147.602588,589.938441 C147.602588,586.59076 142.410146,576.129256 136.796694,576.129256 C134.410977,576.129256 131.884924,577.384637 130.481561,582.266672 C127.394163,580.592831 119.95634,579.058477 114.623561,579.058477 C102.975649,579.058477 92.8714364,586.311786 86.4159671,593.983555 C81.4119221,600.030076 76.8744044,606.090082 75.6140085,613.803857 C71.3054684,617.475937 61.4033955,630.110614 46.1706384,630.110614 C32.5580186,630.110614 23.4361599,625.507552 23.4361599,613.930155 C23.4361599,604.445059 26.5235582,599.28405 31.8563372,595.657396 C34.1017177,596.354829 36.3470983,596.77329 38.5924789,596.77329 C44.3462667,596.77329 52.6261076,595.517909 52.6261076,589.659467 C52.6261076,584.498459 46.7319836,583.522052 40.4168507,583.522052 C38.7328152,583.522052 37.1891161,583.661539 35.7857532,583.940512 C32.5580186,581.011291 30.1723017,576.40823 30.1723017,570.410301 C30.1723017,569.712867 30.1723017,568.875947 30.312638,568.178514 C35.9260895,572.223628 41.539541,574.873876 49.1177005,574.873876 C64.1336832,574.873876 73.3958781,567.202107 73.3958781,557.438037 C73.3958781,544.047313 61.8883026,540.281171 50.380727,540.281171 C38.0311338,540.281171 28.6286026,543.489366 21.8924608,547.53448 C16.8403544,544.465773 12.0689207,536.794004 8.56051351,536.794004 C7.15715064,536.794004 5.75378777,538.049384 5.75378777,539.862711 C5.75378777,543.907826 8.98152237,550.324215 13.6126198,555.485223 C11.0865667,559.390851 9.82354009,563.714939 9.82354009,568.178514 C9.82354009,578.08207 13.191611,584.916919 20.068089,589.659467 C8.7008498,594.123042 0,602.631731 0,617.55681 C0,637.921869 15.9983367,646.151585 37.7504612,646.151585 C55.261653,646.151585 70.6345894,638.549513 76.8810385,628.226288 L76.8810385,628.226288 C80.1070672,639.736373 86.1505167,646.849019 98.063879,646.849019 C107.045401,646.849019 113.360534,644.059285 117.991632,639.735197 C117.28995,642.803904 116.588269,646.012099 115.746251,649.080806 C95.1168169,653.683868 78.5571351,653.683868 78.5571351,665.400752 C78.5571351,675.862255 88.801684,683.952484 100.870605,683.952484 C121.219366,683.952484 125.569791,671.39868 130.060552,656.473602 C143.87497,650.250296 155.225996,638.990117 160.674388,629.133566 C162.409079,640.032938 170.788148,646.849019 182.374802,646.849019 C191.356324,646.849019 197.671457,644.059285 202.302555,639.735197 C201.600873,642.803904 200.899192,646.012099 200.057174,649.080806 C179.42774,653.683868 162.868058,653.683868 162.868058,665.400752 C162.868058,675.862255 173.112607,683.952484 185.181528,683.952484 C205.530289,683.952484 209.880714,671.39868 214.371475,656.473602 C224.275629,652.011845 232.913579,644.961097 239.017919,637.694774 L239.017919,637.694774 C236.35009,652.648976 235.531069,664.569888 235.531069,670.98022 C235.531069,674.048928 236.373087,676.141228 238.197458,678.233529 C239.600821,679.90737 242.968892,683.952484 246.898308,683.952484 C249.003352,683.952484 250.968061,681.860184 251.950415,680.046856 C253.494114,677.117635 257.002521,647.685939 260.931937,625.089092 C262.194963,617.55681 265.422698,611.279908 268.229424,606.118899 C272.299176,598.586617 278.754645,593.983555 283.947088,593.983555 C288.578185,593.983555 291.946256,597.889183 291.946256,601.934298 C291.946256,617.55681 284.929442,631.226507 269.352114,631.226507 C269.352114,631.226507 268.089088,634.155728 268.089088,636.805976 C268.089088,644.756718 276.649601,647.546453 286.332805,647.546453 C293.349619,647.546453 300.927779,646.849019 306.260558,644.756718 C316.565494,640.860095 325.261203,632.875898 328.351729,624.563116 C331.045265,639.970111 344.000332,646.151585 357.732789,646.151585 C367.942977,646.151585 378.028117,639.067037 383.606224,630.746699 L383.606224,630.746699 C385.880128,640.701291 393.990998,646.849019 404.994932,646.849019 C417.905871,646.849019 425.203358,641.130064 430.115128,633.179321 C431.658827,640.85109 434.746225,646.151585 440.079004,646.151585 C452.774334,646.151585 467.553048,634.348186 471.401707,623.319227 C471.346609,626.752978 471.34281,630.393832 471.34281,634.295215 C471.34281,642.803904 472.88651,647.964913 477.517607,647.964913 C478.499961,647.964913 479.622651,647.685939 480.745342,647.267479 C490.147873,643.640825 492.673926,640.85109 492.673926,637.363923 C492.673926,633.458295 489.726864,628.715746 489.726864,621.183464 L489.726864,620.207057 C491.972245,608.908633 499.971413,593.844069 507.409236,593.844069 C512.321006,593.844069 513.724369,595.936369 513.724369,598.86559 C513.724369,607.095306 509.373944,613.651182 509.373944,628.297286 C509.373944,637.642896 511.759661,646.151585 520.600847,646.151585 C535.897502,646.151585 551.615167,630.2501 551.615167,618.114756 C551.615167,614.906562 551.053821,613.232722 549.650459,613.232722 C546.984069,613.232722 534.49414,630.110614 529.021024,630.110614 C527.898334,630.110614 527.477325,629.273693 527.477325,627.73934 C527.477325,622.299358 533.371449,608.490173 533.371449,594.959962 C533.371449,585.056406 526.635308,578.91899 514.005042,578.91899 C506.567218,578.91899 501.23444,581.848211 497.44536,585.753839 C495.620988,581.569238 491.831908,576.129256 487.902492,576.129256 C486.078121,576.129256 484.253749,577.24515 482.429377,580.034884 C474.9148,591.334268 472.492836,601.516117 471.712813,614.461495 L471.712813,614.461495 Z M49.398373,554.090356 C54.0294705,554.090356 57.8185503,555.764196 57.8185503,559.530338 C57.8185503,562.738532 54.7311519,564.133399 50.2403908,564.133399 C43.7849216,564.133399 38.7328152,562.180585 34.3823903,559.530338 C38.1714701,555.764196 43.7849216,554.090356 49.398373,554.090356 Z M104.659684,631.923941 C98.3445515,631.923941 96.6605161,626.623446 96.6605161,621.183464 C96.6605161,601.655324 114.763897,590.217414 128.797526,588.2646 C126.411809,596.633803 123.043738,609.187607 121.219366,617.696296 C117.570623,627.73934 110.694145,631.923941 104.659684,631.923941 Z M100.730268,673.212007 C97.2218613,673.212007 91.4680735,671.119707 91.4680735,667.074592 C91.4680735,664.145371 97.7832064,664.563831 111.395826,661.913584 C108.448764,668.469459 104.940357,673.212007 100.730268,673.212007 Z M188.970607,631.923941 C182.655474,631.923941 180.971439,626.623446 180.971439,621.183464 C180.971439,601.655324 199.07482,590.217414 213.108449,588.2646 C210.722732,596.633803 207.354661,609.187607 205.530289,617.696296 C201.881546,627.73934 195.005068,631.923941 188.970607,631.923941 Z M185.041191,673.212007 C181.532784,673.212007 175.778996,671.119707 175.778996,667.074592 C175.778996,664.145371 182.094129,664.563831 195.706749,661.913584 C192.759687,668.469459 189.25128,673.212007 185.041191,673.212007 Z M369.240365,555.485223 C370.9244,555.485223 371.626082,556.46163 371.626082,558.553931 C371.626082,567.202107 362.22355,572.642088 349.593285,591.891255 C353.663037,568.736461 363.205904,555.485223 369.240365,555.485223 Z M411.590738,631.923941 C405.275605,631.923941 403.591569,626.623446 403.591569,621.183464 C403.591569,602.352758 418.186543,591.054334 431.799163,588.543574 C429.694119,597.470723 429.132774,609.606067 428.992437,615.325022 C425.624367,627.181393 418.046207,631.923941 411.590738,631.923941 Z M550.741963,579.616424 C547.514229,583.382565 547.09322,585.614353 547.09322,590.077927 C547.09322,590.914848 547.654565,591.472794 548.777255,591.472794 L555.092388,591.472794 C552.987344,600.678917 551.724317,610.442987 551.724317,618.81219 C551.724317,634.016242 555.513397,646.151585 564.775592,646.151585 C580.072247,646.151585 600,630.2501 600,618.114756 C600,614.906562 599.438655,613.232722 598.035292,613.232722 C596.912602,613.232722 595.08823,614.488102 592.983186,617.277836 C588.492424,623.136278 576.56384,630.110614 573.195769,630.110614 C570.950389,630.110614 569.968035,626.344472 569.968035,620.486031 C569.968035,614.488102 571.090725,601.515838 572.915097,590.775361 C576.984849,590.775361 584.703345,591.472794 586.948725,591.472794 C589.05377,591.472794 590.878141,583.661539 590.878141,581.848211 C590.878141,580.174371 590.737805,579.616424 589.334442,579.616424 C586.247044,579.616424 581.896619,579.476937 575.44115,579.337451 L581.194938,569.294407 C579.791575,563.435965 578.107539,557.995984 572.073079,557.995984 C567.020973,557.995984 562.249539,566.923133 558.320123,579.476937 C555.232724,579.616424 552.566335,579.616424 550.741963,579.616424 Z" id="Logo--type" fill="#3D0F2B" sketch:type="MSShapeGroup"></path>
            </g>
        </g>
    </g>
</svg>