<?xml version="1.0" encoding="UTF-8" standalone="no"?>
<svg width="597px" height="172px" viewBox="0 0 597 172" version="1.1" xmlns="http://www.w3.org/2000/svg" xmlns:xlink="http://www.w3.org/1999/xlink" xmlns:sketch="http://www.bohemiancoding.com/sketch/ns">
    <!-- Generator: Sketch 3.3.3 (12072) - http://www.bohemiancoding.com/sketch -->
    <title>eggplant_logo_all_horizontal</title>
    <desc>Created with Sketch.</desc>
    <defs></defs>
    <g id="Page-1" stroke="none" stroke-width="1" fill="none" fill-rule="evenodd" sketch:type="MSPage">
        <g id="Logos-for-ze-web" sketch:type="MSArtboardGroup" transform="translate(-63.000000, -1163.000000)">
            <g id="eggplant_logo_all_horizontal" sketch:type="MSLayerGroup" transform="translate(63.000000, 1163.000000)">
                <g id="Logo--tagline-+-Logo--type" sketch:type="MSShapeGroup">
                    <path d="M155.52734,151.571519 C155.52734,148.891405 156.121101,146.839144 157.30864,145.414674 C158.496178,143.990204 160.203896,143.27798 162.431845,143.27798 C163.608874,143.27798 164.633505,143.473182 165.505768,143.863592 C166.378031,144.254003 167.0979,144.813231 167.665396,145.541293 C168.232892,146.269355 168.653254,147.145127 168.926493,148.168635 C169.199732,149.192143 169.336349,150.326426 169.336349,151.571519 C169.336349,154.251632 168.742589,156.303893 167.55505,157.728363 C166.367511,159.152833 164.659793,159.865057 162.431845,159.865057 C161.254815,159.865057 160.230185,159.669855 159.357922,159.279445 C158.485659,158.889034 157.76579,158.329807 157.198294,157.601744 C156.630797,156.873682 156.210436,155.99791 155.937197,154.974402 C155.663958,153.950894 155.52734,152.816611 155.52734,151.571519 L155.52734,151.571519 Z M158.144116,151.571519 C158.144116,152.373442 158.222934,153.1437 158.380572,153.882314 C158.53821,154.620928 158.785172,155.264567 159.121466,155.813252 C159.45776,156.361937 159.89914,156.805098 160.445617,157.142751 C160.992095,157.480403 161.654165,157.649226 162.431845,157.649226 C165.290345,157.670329 166.719573,155.644447 166.719573,151.571519 C166.719573,150.748492 166.640756,149.967683 166.483118,149.229069 C166.32548,148.490455 166.078518,147.846815 165.742224,147.29813 C165.405929,146.749446 164.96455,146.31156 164.418072,145.984459 C163.871594,145.657359 163.209525,145.493811 162.431845,145.493811 C159.573345,145.472708 158.144116,147.49859 158.144116,151.571519 L158.144116,151.571519 Z M173.308804,143.657837 L175.042812,143.657837 L175.515723,145.55712 L175.641832,145.55712 C176.125255,144.818506 176.750543,144.254003 177.517714,143.863592 C178.284885,143.473182 179.162389,143.27798 180.150253,143.27798 C182.252091,143.27798 183.817937,143.900517 184.847838,145.145609 C185.877739,146.390701 186.392682,148.427135 186.392682,151.254971 C186.392682,152.584476 186.219283,153.782068 185.872479,154.847783 C185.525676,155.913497 185.037006,156.815648 184.406454,157.554262 C183.775903,158.292876 183.013998,158.862655 182.120717,159.263617 C181.227435,159.664579 180.234332,159.865057 179.141376,159.865057 C178.363696,159.865057 177.748917,159.817576 177.297022,159.722611 C176.845127,159.627646 176.356457,159.464098 175.830997,159.231963 L175.830997,165.816146 L173.308804,165.816146 L173.308804,143.657837 Z M179.677342,145.493811 C178.605404,145.493811 177.759427,145.773425 177.139385,146.332661 C176.519342,146.891897 176.083218,147.741291 175.830997,148.880867 L175.830997,156.731239 C176.209328,157.026685 176.640198,157.253541 177.123621,157.411816 C177.607044,157.57009 178.248095,157.649226 179.046794,157.649226 C180.497062,157.649226 181.647801,157.105826 182.499046,156.019008 C183.35029,154.93219 183.775906,153.333642 183.775906,151.223317 C183.775906,150.358083 183.702343,149.571998 183.555214,148.865039 C183.408085,148.15808 183.171632,147.556646 182.845847,147.06072 C182.520062,146.564793 182.099701,146.179665 181.584751,145.905322 C181.0698,145.63098 180.434004,145.493811 179.677342,145.493811 L179.677342,145.493811 Z M201.872643,158.219011 C201.242092,158.72549 200.44866,159.126445 199.492323,159.421891 C198.535987,159.717337 197.521865,159.865057 196.449928,159.865057 C195.25188,159.865057 194.211485,159.669855 193.328713,159.279445 C192.445941,158.889034 191.720818,158.329807 191.153322,157.601744 C190.585825,156.873682 190.165464,156.003185 189.892225,154.990229 C189.618986,153.977273 189.482369,152.837714 189.482369,151.571519 C189.482369,148.870302 190.081383,146.812765 191.279431,145.398847 C192.477479,143.984928 194.190452,143.27798 196.4184,143.27798 C197.133025,143.27798 197.84764,143.357116 198.562265,143.51539 C199.27689,143.673665 199.917941,143.974382 200.485437,144.41755 C201.052933,144.860719 201.515331,145.488531 201.872643,146.301006 C202.229956,147.113482 202.408609,148.184456 202.408609,149.513961 C202.408609,150.210369 202.345555,150.980626 202.219445,151.824756 L192.099144,151.824756 C192.099144,152.7533 192.193725,153.576314 192.382891,154.293825 C192.572056,155.011336 192.866309,155.618045 193.265659,156.113972 C193.665008,156.609898 194.185205,156.989751 194.826266,157.253542 C195.467326,157.517333 196.250249,157.649226 197.175058,157.649226 C197.889683,157.649226 198.604298,157.522609 199.318923,157.26937 C200.033548,157.01613 200.569508,156.720689 200.926821,156.383037 L201.872643,158.219011 Z M196.449928,145.493811 C195.209843,145.493811 194.216739,145.820906 193.470587,146.475107 C192.724434,147.129308 192.2778,148.247764 192.130672,149.830509 L199.949471,149.830509 C199.949471,148.226661 199.644709,147.102929 199.035176,146.45928 C198.425643,145.815631 197.563902,145.493811 196.449928,145.493811 L196.449928,145.493811 Z M216.501365,159.4852 L216.501365,150.463603 C216.501365,148.817549 216.264912,147.577751 215.791998,146.744173 C215.319084,145.910594 214.452089,145.493811 213.190986,145.493811 C212.077012,145.493811 211.157471,145.794528 210.432337,146.395971 C209.707203,146.997413 209.197515,147.751844 208.903257,148.659284 L208.903257,159.4852 L206.381064,159.4852 L206.381064,143.657837 L208.146599,143.657837 L208.619511,145.588775 L208.74562,145.588775 C209.250061,144.913471 209.927894,144.359519 210.779139,143.926902 C211.630383,143.494285 212.644505,143.27798 213.821534,143.27798 C214.683288,143.27798 215.439939,143.378219 216.091508,143.5787 C216.743078,143.779181 217.284294,144.132655 217.71517,144.639133 C218.146047,145.145611 218.471827,145.826181 218.69252,146.680863 C218.913213,147.535545 219.023558,148.617071 219.023558,149.925473 L219.023558,159.4852 L216.501365,159.4852 Z M238.980413,155.180157 C238.980413,154.54706 238.791251,154.051141 238.41292,153.692385 C238.034589,153.33363 237.566937,153.032913 237.00995,152.790226 C236.452962,152.547538 235.843439,152.315406 235.181359,152.093822 C234.51928,151.872237 233.909756,151.587348 233.352769,151.239144 C232.795782,150.89094 232.32813,150.442503 231.949799,149.893818 C231.571468,149.345133 231.382306,148.60653 231.382306,147.677987 C231.382306,146.158553 231.813176,145.045372 232.67493,144.338413 C233.536683,143.631454 234.734713,143.27798 236.269055,143.27798 C237.404048,143.27798 238.355116,143.378219 239.122287,143.5787 C239.889458,143.779181 240.556781,144.016589 241.124278,144.290931 L240.525257,146.380143 C240.041834,146.148007 239.458582,145.942254 238.775485,145.762876 C238.092388,145.583498 237.36201,145.493811 236.584329,145.493811 C235.659521,145.493811 234.981688,145.652083 234.550811,145.968632 C234.119934,146.285181 233.904499,146.833857 233.904499,147.614678 C233.904499,148.163362 234.093662,148.590697 234.471993,148.896694 C234.850323,149.202691 235.317975,149.47703 235.874963,149.719717 C236.43195,149.962404 237.041474,150.199813 237.703553,150.431948 C238.365632,150.664084 238.975156,150.970077 239.532143,151.349935 C240.08913,151.729794 240.556782,152.209886 240.935113,152.790226 C241.313444,153.370565 241.502607,154.135547 241.502607,155.085193 C241.502607,155.760498 241.392262,156.393586 241.171569,156.984477 C240.950876,157.575368 240.609332,158.081839 240.146928,158.503904 C239.684523,158.925969 239.111781,159.25834 238.428683,159.501028 C237.745586,159.743715 236.941645,159.865057 236.016836,159.865057 C234.818788,159.865057 233.799412,159.748991 232.958677,159.516855 C232.117941,159.284719 231.413836,159.010381 230.84634,158.693832 L231.602998,156.541311 C232.08642,156.815653 232.716962,157.068888 233.494643,157.301024 C234.272323,157.53316 235.0605,157.649226 235.859199,157.649226 C236.762989,157.649226 237.509131,157.469851 238.097646,157.111096 C238.68616,156.75234 238.980413,156.108701 238.980413,155.180157 L238.980413,155.180157 Z M244.434656,151.571519 C244.434656,148.891405 245.028417,146.839144 246.215955,145.414674 C247.403494,143.990204 249.111212,143.27798 251.339161,143.27798 C252.51619,143.27798 253.540821,143.473182 254.413084,143.863592 C255.285347,144.254003 256.005216,144.813231 256.572712,145.541293 C257.140208,146.269355 257.56057,147.145127 257.833809,148.168635 C258.107048,149.192143 258.243665,150.326426 258.243665,151.571519 C258.243665,154.251632 257.649905,156.303893 256.462366,157.728363 C255.274827,159.152833 253.567109,159.865057 251.339161,159.865057 C250.162131,159.865057 249.1375,159.669855 248.265237,159.279445 C247.392975,158.889034 246.673106,158.329807 246.105609,157.601744 C245.538113,156.873682 245.117752,155.99791 244.844513,154.974402 C244.571274,153.950894 244.434656,152.816611 244.434656,151.571519 L244.434656,151.571519 Z M247.051432,151.571519 C247.051432,152.373442 247.13025,153.1437 247.287888,153.882314 C247.445525,154.620928 247.692488,155.264567 248.028782,155.813252 C248.365076,156.361937 248.806455,156.805098 249.352933,157.142751 C249.899411,157.480403 250.56148,157.649226 251.339161,157.649226 C254.197661,157.670329 255.626889,155.644447 255.626889,151.571519 C255.626889,150.748492 255.548072,149.967683 255.390434,149.229069 C255.232796,148.490455 254.985834,147.846815 254.649539,147.29813 C254.313245,146.749446 253.871866,146.31156 253.325388,145.984459 C252.77891,145.657359 252.116841,145.493811 251.339161,145.493811 C248.480661,145.472708 247.051432,147.49859 247.051432,151.571519 L247.051432,151.571519 Z M264.486094,143.657837 L264.486094,152.679434 C264.486094,153.502461 264.533384,154.225237 264.627967,154.847783 C264.72255,155.470329 264.88544,155.987351 265.116642,156.398865 C265.347844,156.810378 265.663115,157.121646 266.062464,157.332679 C266.461814,157.543712 266.966247,157.649226 267.57578,157.649226 C268.143277,157.649226 268.64771,157.559539 269.089096,157.380161 C269.530482,157.200783 269.924571,156.952824 270.271375,156.636275 C270.618178,156.319726 270.92294,155.9557 271.18567,155.544187 C271.448399,155.132673 271.663835,154.694787 271.831982,154.230516 L271.831982,143.657837 L274.354175,143.657837 L274.354175,154.990229 C274.354175,155.749946 274.380448,156.536031 274.432994,157.348506 C274.48554,158.160982 274.574866,158.873206 274.700977,159.4852 L272.966969,159.4852 L272.33642,156.984477 L272.178783,156.984477 C271.69536,157.807504 271.0438,158.49335 270.224083,159.042034 C269.404366,159.590719 268.363972,159.865057 267.102869,159.865057 C266.262134,159.865057 265.521247,159.764818 264.880186,159.564337 C264.239126,159.363856 263.703165,159.010382 263.272288,158.503904 C262.841411,157.997426 262.515631,157.316856 262.294938,156.462174 C262.074245,155.607492 261.9639,154.525966 261.9639,153.217564 L261.9639,143.657837 L264.486094,143.657837 Z M286.649868,146.095251 C286.019316,145.884218 285.420301,145.778703 284.852805,145.778703 C283.949014,145.778703 283.2344,146.026663 282.708941,146.522589 C282.183481,147.018516 281.857701,147.646329 281.731591,148.406046 L281.731591,159.4852 L279.209397,159.4852 L279.209397,143.657837 L280.974933,143.657837 L281.447844,145.588775 L281.573954,145.588775 C281.973303,144.871264 282.451464,144.317312 283.008451,143.926902 C283.565438,143.536492 284.274798,143.341289 285.136552,143.341289 C285.746085,143.341289 286.429172,143.446804 287.185834,143.657837 L286.649868,146.095251 Z M300.679568,158.440594 C300.049017,158.904866 299.302875,159.25834 298.441122,159.501028 C297.579368,159.743715 296.675591,159.865057 295.729764,159.865057 C294.510698,159.865057 293.480812,159.669855 292.640077,159.279445 C291.799342,158.889034 291.111,158.329807 290.575031,157.601744 C290.039062,156.873682 289.650228,155.99791 289.408517,154.974402 C289.166805,153.950894 289.045951,152.816611 289.045951,151.571519 C289.045951,148.891405 289.634457,146.839144 290.811487,145.414674 C291.988516,143.990204 293.680471,143.27798 295.887401,143.27798 C296.896283,143.27798 297.752769,143.357116 298.456885,143.51539 C299.161001,143.673665 299.796798,143.900521 300.364294,144.195967 L299.639163,146.380143 C299.155741,146.105801 298.61978,145.889496 298.031265,145.731221 C297.44275,145.572947 296.812208,145.493811 296.13962,145.493811 C293.15501,145.493811 291.662727,147.519693 291.662727,151.571519 C291.662727,152.373442 291.741545,153.138424 291.899183,153.866486 C292.05682,154.594549 292.319546,155.238188 292.687368,155.797425 C293.05519,156.356661 293.538605,156.805098 294.137629,157.142751 C294.736653,157.480403 295.47754,157.649226 296.360312,157.649226 C297.116974,157.649226 297.794807,157.53316 298.39383,157.301024 C298.992854,157.068888 299.481524,156.805102 299.859855,156.509656 L300.679568,158.440594 Z M314.929961,158.219011 C314.299409,158.72549 313.505977,159.126445 312.549641,159.421891 C311.593304,159.717337 310.579182,159.865057 309.507245,159.865057 C308.309197,159.865057 307.268803,159.669855 306.386031,159.279445 C305.503259,158.889034 304.778135,158.329807 304.210639,157.601744 C303.643143,156.873682 303.222781,156.003185 302.949542,154.990229 C302.676303,153.977273 302.539686,152.837714 302.539686,151.571519 C302.539686,148.870302 303.138701,146.812765 304.336749,145.398847 C305.534796,143.984928 307.247769,143.27798 309.475718,143.27798 C310.190343,143.27798 310.904957,143.357116 311.619582,143.51539 C312.334207,143.673665 312.975258,143.974382 313.542754,144.41755 C314.110251,144.860719 314.572648,145.488531 314.929961,146.301006 C315.287273,147.113482 315.465927,148.184456 315.465927,149.513961 C315.465927,150.210369 315.402873,150.980626 315.276762,151.824756 L305.156461,151.824756 C305.156461,152.7533 305.251043,153.576314 305.440208,154.293825 C305.629374,155.011336 305.923627,155.618045 306.322976,156.113972 C306.722325,156.609898 307.242522,156.989751 307.883583,157.253542 C308.524644,157.517333 309.307567,157.649226 310.232376,157.649226 C310.947001,157.649226 311.661615,157.522609 312.37624,157.26937 C313.090865,157.01613 313.626826,156.720689 313.984138,156.383037 L314.929961,158.219011 Z M309.507245,145.493811 C308.26716,145.493811 307.274057,145.820906 306.527904,146.475107 C305.781751,147.129308 305.335118,148.247764 305.187989,149.830509 L313.006788,149.830509 C313.006788,148.226661 312.702026,147.102929 312.092493,146.45928 C311.48296,145.815631 310.621219,145.493811 309.507245,145.493811 L309.507245,145.493811 Z M338.607051,158.440594 C337.976499,158.904866 337.230358,159.25834 336.368604,159.501028 C335.506851,159.743715 334.603074,159.865057 333.657246,159.865057 C332.43818,159.865057 331.408295,159.669855 330.567559,159.279445 C329.726824,158.889034 329.038482,158.329807 328.502514,157.601744 C327.966545,156.873682 327.577711,155.99791 327.335999,154.974402 C327.094288,153.950894 326.973434,152.816611 326.973434,151.571519 C326.973434,148.891405 327.56194,146.839144 328.738969,145.414674 C329.915999,143.990204 331.607953,143.27798 333.814883,143.27798 C334.823766,143.27798 335.680252,143.357116 336.384368,143.51539 C337.088484,143.673665 337.72428,143.900521 338.291777,144.195967 L337.566646,146.380143 C337.083223,146.105801 336.547263,145.889496 335.958748,145.731221 C335.370233,145.572947 334.739691,145.493811 334.067103,145.493811 C331.082492,145.493811 329.59021,147.519693 329.59021,151.571519 C329.59021,152.373442 329.669027,153.138424 329.826665,153.866486 C329.984303,154.594549 330.247029,155.238188 330.614851,155.797425 C330.982672,156.356661 331.466088,156.805098 332.065112,157.142751 C332.664136,157.480403 333.405023,157.649226 334.287795,157.649226 C335.044456,157.649226 335.722289,157.53316 336.321313,157.301024 C336.920337,157.068888 337.409007,156.805102 337.787338,156.509656 L338.607051,158.440594 Z M340.467168,151.571519 C340.467168,148.891405 341.060929,146.839144 342.248467,145.414674 C343.436006,143.990204 345.143724,143.27798 347.371673,143.27798 C348.548702,143.27798 349.573333,143.473182 350.445596,143.863592 C351.317859,144.254003 352.037728,144.813231 352.605224,145.541293 C353.17272,146.269355 353.593082,147.145127 353.866321,148.168635 C354.13956,149.192143 354.276177,150.326426 354.276177,151.571519 C354.276177,154.251632 353.682417,156.303893 352.494878,157.728363 C351.307339,159.152833 349.599621,159.865057 347.371673,159.865057 C346.194643,159.865057 345.170012,159.669855 344.29775,159.279445 C343.425487,158.889034 342.705618,158.329807 342.138122,157.601744 C341.570625,156.873682 341.150264,155.99791 340.877025,154.974402 C340.603786,153.950894 340.467168,152.816611 340.467168,151.571519 L340.467168,151.571519 Z M343.083944,151.571519 C343.083944,152.373442 343.162762,153.1437 343.3204,153.882314 C343.478038,154.620928 343.725,155.264567 344.061294,155.813252 C344.397588,156.361937 344.838968,156.805098 345.385445,157.142751 C345.931923,157.480403 346.593993,157.649226 347.371673,157.649226 C350.230173,157.670329 351.659401,155.644447 351.659401,151.571519 C351.659401,150.748492 351.580584,149.967683 351.422946,149.229069 C351.265308,148.490455 351.018346,147.846815 350.682052,147.29813 C350.345757,146.749446 349.904378,146.31156 349.3579,145.984459 C348.811422,145.657359 348.149353,145.493811 347.371673,145.493811 C344.513173,145.472708 343.083944,147.49859 343.083944,151.571519 L343.083944,151.571519 Z M367.486165,159.4852 L367.486165,150.526913 C367.486165,149.682782 367.449383,148.949455 367.375819,148.326909 C367.302254,147.704363 367.160383,147.182065 366.950199,146.76 C366.740015,146.337935 366.440507,146.021391 366.051667,145.810358 C365.662827,145.599326 365.153139,145.493811 364.522588,145.493811 C363.555742,145.493811 362.751801,145.789252 362.11074,146.380143 C361.469679,146.971034 361.023046,147.709637 360.770825,148.595974 L360.770825,159.4852 L358.248632,159.4852 L358.248632,143.657837 L360.014167,143.657837 L360.487078,145.588775 L360.613188,145.588775 C361.180684,144.913471 361.837499,144.359519 362.583651,143.926902 C363.329804,143.494285 364.30189,143.27798 365.499938,143.27798 C366.50882,143.27798 367.333779,143.473182 367.97484,143.863592 C368.6159,144.254003 369.11508,144.934572 369.472392,145.905322 C369.955815,145.082295 370.623139,144.438656 371.474383,143.974384 C372.325628,143.510112 373.287204,143.27798 374.359142,143.27798 C375.241914,143.27798 375.988055,143.378219 376.597588,143.5787 C377.207121,143.779181 377.711555,144.132655 378.110904,144.639133 C378.510254,145.145611 378.799252,145.831457 378.977908,146.69669 C379.156565,147.561924 379.245891,148.659277 379.245891,149.988782 L379.245891,159.4852 L376.723698,159.4852 L376.723698,149.957127 C376.723698,149.19741 376.686916,148.537943 376.613352,147.978707 C376.539788,147.419471 376.392661,146.955206 376.171968,146.585899 C375.951275,146.216592 375.646513,145.942254 375.257673,145.762876 C374.868833,145.583498 374.359145,145.493811 373.728593,145.493811 C372.677674,145.493811 371.85797,145.789252 371.269455,146.380143 C370.68094,146.971034 370.260579,147.815152 370.008358,148.912521 L370.008358,159.4852 L367.486165,159.4852 Z M393.086427,159.4852 L393.086427,150.526913 C393.086427,149.682782 393.049646,148.949455 392.976081,148.326909 C392.902517,147.704363 392.760645,147.182065 392.550461,146.76 C392.340277,146.337935 392.04077,146.021391 391.65193,145.810358 C391.26309,145.599326 390.753402,145.493811 390.12285,145.493811 C389.156005,145.493811 388.352063,145.789252 387.711003,146.380143 C387.069942,146.971034 386.623308,147.709637 386.371088,148.595974 L386.371088,159.4852 L383.848894,159.4852 L383.848894,143.657837 L385.61443,143.657837 L386.087341,145.588775 L386.21345,145.588775 C386.780947,144.913471 387.437761,144.359519 388.183914,143.926902 C388.930067,143.494285 389.902152,143.27798 391.1002,143.27798 C392.109082,143.27798 392.934042,143.473182 393.575102,143.863592 C394.216163,144.254003 394.715342,144.934572 395.072655,145.905322 C395.556077,145.082295 396.223401,144.438656 397.074646,143.974384 C397.92589,143.510112 398.887467,143.27798 399.959404,143.27798 C400.842176,143.27798 401.588318,143.378219 402.197851,143.5787 C402.807384,143.779181 403.311818,144.132655 403.711167,144.639133 C404.110516,145.145611 404.399515,145.831457 404.578171,146.69669 C404.756827,147.561924 404.846154,148.659277 404.846154,149.988782 L404.846154,159.4852 L402.323961,159.4852 L402.323961,149.957127 C402.323961,149.19741 402.287179,148.537943 402.213615,147.978707 C402.14005,147.419471 401.992924,146.955206 401.772231,146.585899 C401.551538,146.216592 401.246776,145.942254 400.857936,145.762876 C400.469096,145.583498 399.959407,145.493811 399.328856,145.493811 C398.277937,145.493811 397.458232,145.789252 396.869717,146.380143 C396.281203,146.971034 395.860841,147.815152 395.608621,148.912521 L395.608621,159.4852 L393.086427,159.4852 Z M411.719131,143.657837 L411.719131,152.679434 C411.719131,153.502461 411.766421,154.225237 411.861004,154.847783 C411.955587,155.470329 412.118477,155.987351 412.349679,156.398865 C412.580881,156.810378 412.896152,157.121646 413.295502,157.332679 C413.694851,157.543712 414.199285,157.649226 414.808818,157.649226 C415.376314,157.649226 415.880748,157.559539 416.322134,157.380161 C416.76352,157.200783 417.157608,156.952824 417.504412,156.636275 C417.851215,156.319726 418.155977,155.9557 418.418707,155.544187 C418.681437,155.132673 418.896872,154.694787 419.065019,154.230516 L419.065019,143.657837 L421.587212,143.657837 L421.587212,154.990229 C421.587212,155.749946 421.613485,156.536031 421.666031,157.348506 C421.718577,158.160982 421.807904,158.873206 421.934014,159.4852 L420.200006,159.4852 L419.569458,156.984477 L419.411821,156.984477 C418.928398,157.807504 418.276838,158.49335 417.457121,159.042034 C416.637404,159.590719 415.597009,159.865057 414.335906,159.865057 C413.495171,159.865057 412.754284,159.764818 412.113224,159.564337 C411.472163,159.363856 410.936202,159.010382 410.505325,158.503904 C410.074448,157.997426 409.748668,157.316856 409.527975,156.462174 C409.307282,155.607492 409.196937,154.525966 409.196937,153.217564 L409.196937,143.657837 L411.719131,143.657837 Z M436.562735,159.4852 L436.562735,150.463603 C436.562735,148.817549 436.326282,147.577751 435.853368,146.744173 C435.380455,145.910594 434.51346,145.493811 433.252357,145.493811 C432.138382,145.493811 431.218842,145.794528 430.493708,146.395971 C429.768573,146.997413 429.258885,147.751844 428.964628,148.659284 L428.964628,159.4852 L426.442435,159.4852 L426.442435,143.657837 L428.20797,143.657837 L428.680881,145.588775 L428.806991,145.588775 C429.311432,144.913471 429.989265,144.359519 430.840509,143.926902 C431.691754,143.494285 432.705875,143.27798 433.882905,143.27798 C434.744659,143.27798 435.501309,143.378219 436.152879,143.5787 C436.804449,143.779181 437.345664,144.132655 437.776541,144.639133 C438.207418,145.145611 438.533198,145.826181 438.753891,146.680863 C438.974584,147.535545 439.084929,148.617071 439.084929,149.925473 L439.084929,159.4852 L436.562735,159.4852 Z M444.223898,143.657837 L446.746091,143.657837 L446.746091,159.4852 L444.223898,159.4852 L444.223898,143.657837 Z M443.687932,138.846318 C443.687932,138.360943 443.850822,137.94416 444.176607,137.595956 C444.502392,137.247753 444.917498,137.073653 445.42194,137.073653 C445.926381,137.073653 446.357251,137.247753 446.714564,137.595956 C447.071876,137.94416 447.25053,138.360943 447.25053,138.846318 C447.25053,139.331693 447.071876,139.732649 446.714564,140.049198 C446.357251,140.365747 445.926381,140.524019 445.42194,140.524019 C444.917498,140.524019 444.502392,140.365747 444.176607,140.049198 C443.850822,139.732649 443.687932,139.331693 443.687932,138.846318 L443.687932,138.846318 Z M450.05647,143.657837 L452.515608,143.657837 L452.515608,140.524019 L455.037802,139.79596 L455.037802,143.657837 L459.32553,143.657837 L459.32553,145.873668 L455.037802,145.873668 L455.037802,154.642027 C455.037802,155.739396 455.174419,156.51493 455.447658,156.96865 C455.720897,157.42237 456.183295,157.649226 456.834864,157.649226 C457.381342,157.649226 457.84374,157.591193 458.222071,157.475125 C458.600402,157.359057 459.020763,157.206061 459.483168,157.016132 L460.050661,158.94707 C459.483165,159.221412 458.863132,159.442993 458.190543,159.611819 C457.517955,159.780645 456.792832,159.865057 456.015152,159.865057 C454.73303,159.865057 453.829253,159.501031 453.303794,158.772969 C452.778334,158.044907 452.515608,156.826212 452.515608,155.116848 L452.515608,145.873668 L450.05647,145.873668 L450.05647,143.657837 Z M467.459604,153.913968 L468.342372,156.952822 L468.500009,156.952822 L469.193612,153.882314 L472.251771,143.657837 L474.805492,143.657837 L470.139434,157.870809 C469.782122,158.904869 469.430069,159.907259 469.083266,160.878008 C468.736463,161.848758 468.352883,162.713979 467.932515,163.473696 C467.512148,164.233413 467.039241,164.840123 466.513781,165.293843 C465.988322,165.747563 465.378798,165.97442 464.685191,165.97442 C463.92853,165.97442 463.308497,165.868905 462.825074,165.657872 L463.266458,163.473696 C463.539697,163.579212 463.802422,163.63197 464.054643,163.63197 C464.643158,163.63197 465.210646,163.320701 465.757123,162.698155 C466.303601,162.075609 466.75549,161.004635 467.112802,159.4852 L460.775792,143.657837 L463.676314,143.657837 L467.459604,153.913968 Z M491.735715,155.180157 C491.735715,154.54706 491.546552,154.051141 491.168222,153.692385 C490.789891,153.33363 490.322239,153.032913 489.765252,152.790226 C489.208264,152.547538 488.59874,152.315406 487.936661,152.093822 C487.274582,151.872237 486.665058,151.587348 486.108071,151.239144 C485.551084,150.89094 485.083432,150.442503 484.705101,149.893818 C484.32677,149.345133 484.137608,148.60653 484.137608,147.677987 C484.137608,146.158553 484.568478,145.045372 485.430232,144.338413 C486.291985,143.631454 487.490015,143.27798 489.024357,143.27798 C490.15935,143.27798 491.110417,143.378219 491.877588,143.5787 C492.644759,143.779181 493.312083,144.016589 493.879579,144.290931 L493.280559,146.380143 C492.797136,146.148007 492.213884,145.942254 491.530787,145.762876 C490.847689,145.583498 490.117312,145.493811 489.339631,145.493811 C488.414823,145.493811 487.73699,145.652083 487.306113,145.968632 C486.875236,146.285181 486.659801,146.833857 486.659801,147.614678 C486.659801,148.163362 486.848964,148.590697 487.227294,148.896694 C487.605625,149.202691 488.073277,149.47703 488.630265,149.719717 C489.187252,149.962404 489.796776,150.199813 490.458855,150.431948 C491.120934,150.664084 491.730458,150.970077 492.287445,151.349935 C492.844432,151.729794 493.312084,152.209886 493.690415,152.790226 C494.068746,153.370565 494.257908,154.135547 494.257908,155.085193 C494.257908,155.760498 494.147564,156.393586 493.926871,156.984477 C493.706178,157.575368 493.364634,158.081839 492.90223,158.503904 C492.439825,158.925969 491.867083,159.25834 491.183985,159.501028 C490.500888,159.743715 489.696947,159.865057 488.772138,159.865057 C487.57409,159.865057 486.554714,159.748991 485.713978,159.516855 C484.873243,159.284719 484.169138,159.010381 483.601641,158.693832 L484.3583,156.541311 C484.841722,156.815653 485.472264,157.068888 486.249945,157.301024 C487.027625,157.53316 487.815802,157.649226 488.614501,157.649226 C489.518291,157.649226 490.264433,157.469851 490.852947,157.111096 C491.441462,156.75234 491.735715,156.108701 491.735715,155.180157 L491.735715,155.180157 Z M497.189958,151.571519 C497.189958,148.891405 497.783719,146.839144 498.971257,145.414674 C500.158796,143.990204 501.866514,143.27798 504.094463,143.27798 C505.271492,143.27798 506.296123,143.473182 507.168386,143.863592 C508.040649,144.254003 508.760517,144.813231 509.328014,145.541293 C509.89551,146.269355 510.315871,147.145127 510.58911,148.168635 C510.862349,149.192143 510.998967,150.326426 510.998967,151.571519 C510.998967,154.251632 510.405206,156.303893 509.217668,157.728363 C508.030129,159.152833 506.322411,159.865057 504.094463,159.865057 C502.917433,159.865057 501.892802,159.669855 501.020539,159.279445 C500.148276,158.889034 499.428408,158.329807 498.860911,157.601744 C498.293415,156.873682 497.873054,155.99791 497.599815,154.974402 C497.326576,153.950894 497.189958,152.816611 497.189958,151.571519 L497.189958,151.571519 Z M499.806734,151.571519 C499.806734,152.373442 499.885552,153.1437 500.043189,153.882314 C500.200827,154.620928 500.44779,155.264567 500.784084,155.813252 C501.120378,156.361937 501.561757,156.805098 502.108235,157.142751 C502.654713,157.480403 503.316782,157.649226 504.094463,157.649226 C506.952963,157.670329 508.382191,155.644447 508.382191,151.571519 C508.382191,150.748492 508.303373,149.967683 508.145736,149.229069 C507.988098,148.490455 507.741135,147.846815 507.404841,147.29813 C507.068547,146.749446 506.627168,146.31156 506.08069,145.984459 C505.534212,145.657359 504.872143,145.493811 504.094463,145.493811 C501.235962,145.472708 499.806734,147.49859 499.806734,151.571519 L499.806734,151.571519 Z M512.859084,143.657837 L515.318223,143.657837 L515.318223,142.771504 C515.318223,141.800754 515.397041,140.956637 515.554679,140.239126 C515.712316,139.521615 515.969788,138.936009 516.3271,138.482289 C516.684413,138.028569 517.14681,137.690922 517.714307,137.469337 C518.281803,137.247753 518.985908,137.136963 519.826644,137.136963 C520.499232,137.136963 521.092992,137.179169 521.607943,137.263582 C522.122893,137.347995 522.664108,137.506267 523.231605,137.738403 L522.664111,139.859269 C522.180688,139.648237 521.723545,139.511068 521.292668,139.447758 C520.861792,139.384448 520.457194,139.352794 520.078863,139.352794 C519.532385,139.352794 519.106769,139.437205 518.802003,139.606032 C518.497236,139.774858 518.276546,140.022817 518.139927,140.349918 C518.003307,140.677018 517.919235,141.077974 517.887707,141.552797 C517.85618,142.027621 517.840416,142.581573 517.840416,143.21467 L517.840416,143.657837 L522.033563,143.657837 L522.033563,145.873668 L517.840416,145.873668 L517.840416,159.4852 L515.318223,159.4852 L515.318223,145.873668 L512.859084,145.873668 L512.859084,143.657837 Z M522.06509,143.657837 L524.524229,143.657837 L524.524229,140.524019 L527.046422,139.79596 L527.046422,143.657837 L531.334151,143.657837 L531.334151,145.873668 L527.046422,145.873668 L527.046422,154.642027 C527.046422,155.739396 527.18304,156.51493 527.456279,156.96865 C527.729517,157.42237 528.191915,157.649226 528.843485,157.649226 C529.389963,157.649226 529.85236,157.591193 530.230691,157.475125 C530.609022,157.359057 531.029383,157.206061 531.491788,157.016132 L532.059281,158.94707 C531.491785,159.221412 530.871752,159.442993 530.199164,159.611819 C529.526576,159.780645 528.801452,159.865057 528.023772,159.865057 C526.741651,159.865057 525.837874,159.501031 525.312414,158.772969 C524.786955,158.044907 524.524229,156.826212 524.524229,155.116848 L524.524229,145.873668 L522.06509,145.873668 L522.06509,143.657837 Z M545.048577,143.657837 L548.67423,152.901017 L549.462416,155.939871 L549.52547,155.939871 L550.124491,152.837708 L552.930431,143.657837 L555.326515,143.657837 L550.029909,159.833402 L548.80034,159.833402 L544.670248,149.387342 L544.071227,146.791655 L543.976645,146.791655 L543.346097,149.418997 L539.373642,159.833402 L538.144073,159.833402 L532.658302,143.657837 L535.401188,143.657837 L538.522402,152.869362 L539.058368,155.939871 L539.089895,155.939871 L539.846553,152.806053 L543.219987,143.657837 L545.048577,143.657837 Z M557.754126,144.829062 C558.552825,144.343687 559.482874,143.984937 560.544303,143.752801 C561.605731,143.520665 562.714434,143.404599 563.870445,143.404599 C564.963401,143.404599 565.840905,143.552319 566.502984,143.847765 C567.165064,144.143211 567.669497,144.528339 568.0163,145.003163 C568.363104,145.477986 568.594303,146.000284 568.709904,146.570072 C568.825505,147.13986 568.883304,147.709639 568.883304,148.279427 C568.883304,149.545622 568.851777,150.780144 568.788722,151.98303 C568.725667,153.185916 568.69414,154.325474 568.69414,155.401741 C568.69414,156.182561 568.725667,156.921164 568.788722,157.617572 C568.851777,158.313979 568.967377,158.957619 569.135524,159.54851 L567.275406,159.54851 L566.61333,157.332679 L566.455693,157.332679 C566.266528,157.628125 566.030075,157.91829 565.746326,158.203184 C565.462578,158.488078 565.121035,158.741313 564.721685,158.962897 C564.322336,159.184482 563.859939,159.369132 563.334479,159.516855 C562.809019,159.664578 562.210005,159.738438 561.537416,159.738438 C560.864828,159.738438 560.23954,159.632924 559.661535,159.421891 C559.083529,159.210858 558.58435,158.910142 558.163983,158.519731 C557.743615,158.129321 557.41258,157.659781 557.170869,157.111096 C556.929158,156.562411 556.808304,155.939874 556.808304,155.243467 C556.808304,154.314924 556.997466,153.539391 557.375797,152.916844 C557.754128,152.294298 558.284834,151.798379 558.967932,151.429072 C559.651029,151.059765 560.470734,150.795979 561.42707,150.637704 C562.383407,150.47943 563.439565,150.400294 564.595576,150.400294 L565.46258,150.400294 C565.746328,150.400294 566.035326,150.421397 566.329584,150.463603 C566.392639,149.830505 566.424166,149.260726 566.424166,148.754248 C566.424166,147.593569 566.192967,146.781105 565.730563,146.316834 C565.268158,145.852562 564.427436,145.62043 563.208369,145.62043 C562.851057,145.62043 562.467477,145.646808 562.057619,145.699567 C561.64776,145.752325 561.227399,145.826185 560.796522,145.92115 C560.365645,146.016114 559.955793,146.13218 559.566953,146.269352 C559.178113,146.406523 558.836569,146.559519 558.542312,146.728345 L557.754126,144.829062 Z M562.231019,157.522607 C562.819534,157.522607 563.344986,157.443471 563.80739,157.285197 C564.269795,157.126922 564.669138,156.926445 565.005432,156.683757 C565.341726,156.44107 565.620216,156.172007 565.840909,155.876561 C566.061602,155.581116 566.224492,155.296226 566.329584,155.021884 L566.329584,152.394541 C566.035326,152.373438 565.735819,152.357611 565.431052,152.347059 C565.126286,152.336508 564.826778,152.331232 564.532521,152.331232 C563.880951,152.331232 563.245154,152.368162 562.625112,152.442024 C562.00507,152.515885 561.4586,152.653054 560.985686,152.853535 C560.512773,153.054016 560.134448,153.328354 559.850699,153.676558 C559.566951,154.024762 559.425079,154.462648 559.425079,154.990229 C559.425079,155.728843 559.687805,156.335553 560.213265,156.810376 C560.738724,157.285199 561.411302,157.522607 562.231019,157.522607 L562.231019,157.522607 Z M581.084415,146.095251 C580.453863,145.884218 579.854848,145.778703 579.287352,145.778703 C578.383562,145.778703 577.668947,146.026663 577.143488,146.522589 C576.618028,147.018516 576.292248,147.646329 576.166138,148.406046 L576.166138,159.4852 L573.643944,159.4852 L573.643944,143.657837 L575.40948,143.657837 L575.882391,145.588775 L576.008501,145.588775 C576.40785,144.871264 576.886011,144.317312 577.442998,143.926902 C577.999985,143.536492 578.709345,143.341289 579.571099,143.341289 C580.180632,143.341289 580.863719,143.446804 581.620381,143.657837 L581.084415,146.095251 Z M595.870773,158.219011 C595.240222,158.72549 594.44679,159.126445 593.490453,159.421891 C592.534117,159.717337 591.519995,159.865057 590.448058,159.865057 C589.25001,159.865057 588.209615,159.669855 587.326843,159.279445 C586.444071,158.889034 585.718948,158.329807 585.151452,157.601744 C584.583955,156.873682 584.163594,156.003185 583.890355,154.990229 C583.617116,153.977273 583.480498,152.837714 583.480498,151.571519 C583.480498,148.870302 584.079513,146.812765 585.277561,145.398847 C586.475609,143.984928 588.188582,143.27798 590.41653,143.27798 C591.131155,143.27798 591.84577,143.357116 592.560395,143.51539 C593.27502,143.673665 593.916071,143.974382 594.483567,144.41755 C595.051063,144.860719 595.513461,145.488531 595.870773,146.301006 C596.228086,147.113482 596.406739,148.184456 596.406739,149.513961 C596.406739,150.210369 596.343685,150.980626 596.217575,151.824756 L586.097274,151.824756 C586.097274,152.7533 586.191855,153.576314 586.381021,154.293825 C586.570186,155.011336 586.864439,155.618045 587.263789,156.113972 C587.663138,156.609898 588.183335,156.989751 588.824396,157.253542 C589.465456,157.517333 590.248379,157.649226 591.173188,157.649226 C591.887813,157.649226 592.602428,157.522609 593.317053,157.26937 C594.031678,157.01613 594.567638,156.720689 594.924951,156.383037 L595.870773,158.219011 Z M590.448058,145.493811 C589.207973,145.493811 588.214869,145.820906 587.468717,146.475107 C586.722564,147.129308 586.27593,148.247764 586.128802,149.830509 L593.947601,149.830509 C593.947601,148.226661 593.642839,147.102929 593.033306,146.45928 C592.423773,145.815631 591.562032,145.493811 590.448058,145.493811 L590.448058,145.493811 Z" id="Logo--tagline" fill="#403B3E"></path>
                    <path d="M501.06994,68.9115814 C500.728182,68.1332259 500.231326,67.688533 499.674933,67.688533 C497.803044,67.688533 488.131618,80.5308378 483.867871,80.5308378 C482.307964,80.5308378 481.684001,76.8024268 481.684001,72.038346 C481.684001,66.7564303 481.787995,62.5101843 482.515952,58.5746393 C484.075859,55.9854649 485.427779,53.4998576 486.779698,50.3928483 C486.779698,46.9751382 481.060038,41.2789546 476.796291,41.2789546 C475.340377,41.2789546 474.196445,42.4181913 473.260501,44.2823968 C472.532544,43.8681289 471.492606,43.557428 470.140686,43.2467271 C467.956816,42.8324592 465.876939,42.6253253 463.901056,42.6253253 C455.269569,42.6253253 447.782013,48.0108079 442.998297,53.7069915 C439.448163,58.0051255 437.202696,63.2777431 436.105948,68.6551227 C435.447652,69.1446911 434.687356,69.9172744 433.86995,71.0026762 C430.230166,75.6631901 425.550443,80.4272709 418.166882,80.4272709 C412.96719,80.4272709 409.223412,76.9059937 409.223412,69.2420376 L409.223412,65.0993587 C422.222641,48.2179419 438.133697,36.9291417 438.133697,24.1904038 C438.133697,18.3906533 434.493913,14.9729431 428.566264,14.9729431 C408.200682,14.9729431 395.729714,43.4266589 394.548499,68.0347177 L394.548499,68.0347177 C394.461542,68.0111481 394.369237,67.999234 394.271411,67.999234 C393.43946,67.999234 392.08754,68.9313367 390.527633,71.0026762 C387.927787,74.4203864 378.568343,84.6735168 366.713046,84.6735168 L365.465121,84.6735168 C375.24054,80.9451057 383.040077,69.0349037 383.040077,58.3675053 C383.040077,49.7714465 378.360355,42.6253253 366.81704,42.6253253 C360.473417,42.6253253 356.20967,45.1109326 352.985861,48.7357767 C351.841929,45.5252005 348.722114,40.4504188 345.394312,40.4504188 C344.042392,40.4504188 342.274497,41.0718206 341.338552,43.3502941 C337.564114,52.1108124 334.67857,60.7874655 332.488262,68.9134691 C329.391826,71.7082781 324.166387,80.4273661 314.115279,88.2983609 C318.379026,74.2132524 323.37073,56.2961659 323.37073,50.7035492 C323.37073,48.2179419 319.522958,40.4504188 315.363205,40.4504188 C313.59531,40.4504188 311.723421,41.3825216 310.683483,45.0073657 C308.395619,43.764562 302.883946,42.6253253 298.93218,42.6253253 C290.300693,42.6253253 282.813137,48.0108079 278.029421,53.7069915 C274.605382,57.8524634 272.394976,62.9044244 271.25829,68.0825732 L271.25829,68.0825732 C268.359904,69.1005567 263.181483,79.2587681 251.638098,88.2983609 C255.901845,74.2132524 260.893549,56.2961659 260.893549,50.7035492 C260.893549,48.2179419 257.045777,40.4504188 252.886024,40.4504188 C251.118129,40.4504188 249.24624,41.3825216 248.206302,45.0073657 C245.918438,43.764562 240.406765,42.6253253 236.454999,42.6253253 C227.823512,42.6253253 220.335956,48.0108079 215.55224,53.7069915 C211.844077,58.1964507 208.481626,62.6959221 207.547631,68.4232944 C204.354861,71.149763 197.017097,80.5308378 185.729121,80.5308378 C175.64172,80.5308378 168.882121,77.1131277 168.882121,68.5170688 C168.882121,61.4745146 171.169985,57.6425365 175.12175,54.9497952 C176.785652,55.4676301 178.449553,55.778331 180.113454,55.778331 C184.377201,55.778331 190.512837,54.8462282 190.512837,50.4964153 C190.512837,46.6644372 186.145096,45.9394684 181.465374,45.9394684 C180.217448,45.9394684 179.073516,46.0430354 178.033578,46.2501694 C175.64172,44.0752629 173.873825,40.6575527 173.873825,36.2041728 C173.873825,35.686338 173.873825,35.0649361 173.977818,34.5471013 C178.137571,37.5505435 182.297325,39.518316 187.912991,39.518316 C199.040331,39.518316 205.903924,33.8221324 205.903924,26.5724442 C205.903924,16.6300147 197.37643,13.8337064 188.848936,13.8337064 C179.697479,13.8337064 172.729892,16.2157468 167.738189,19.2191891 C163.994411,16.9407156 160.458621,11.244532 157.858775,11.244532 C156.818837,11.244532 155.778898,12.1766348 155.778898,13.5230055 C155.778898,16.5264477 158.170757,21.2905285 161.602553,25.1225066 C159.730664,28.0223819 158.794719,31.2329581 158.794719,34.5471013 C158.794719,41.9003564 161.290571,46.9751382 166.386269,50.4964153 C157.962769,53.8105585 151.515152,60.1281439 151.515152,71.2098102 C151.515152,86.3305884 163.370448,92.4410399 179.489491,92.4410399 C192.465863,92.4410399 203.857717,86.7966049 208.486543,79.1317522 L208.486543,79.1317522 C210.877136,87.6778322 215.355532,92.9588748 224.183728,92.9588748 C230.839333,92.9588748 235.519055,90.8875353 238.950851,87.6769591 C238.430882,89.9554325 237.910913,92.3374729 237.28695,94.6159464 C221.999857,98.0336565 209.728586,98.0336565 209.728586,106.733282 C209.728586,114.500805 217.320135,120.50769 226.263604,120.50769 C241.342709,120.50769 244.566518,111.186662 247.89432,100.104996 C258.131261,95.4842761 266.542746,87.1237473 270.580185,79.8053931 C271.865648,87.8980279 278.074815,92.9588748 286.660909,92.9588748 C293.316514,92.9588748 297.996236,90.8875353 301.428032,87.6769591 C300.908063,89.9554325 300.388094,92.3374729 299.764131,94.6159464 C284.477038,98.0336565 272.205767,98.0336565 272.205767,106.733282 C272.205767,114.500805 279.797316,120.50769 288.740785,120.50769 C303.81989,120.50769 307.043699,111.186662 310.371501,100.104996 C317.710806,96.7922022 324.111813,91.5571182 328.635331,86.1619733 L328.635331,86.1619733 C326.658382,97.2652634 326.05146,106.116378 326.05146,110.875961 C326.05146,113.154435 326.675423,114.707939 328.027342,116.261444 C329.067281,117.504248 331.563133,120.50769 334.47496,120.50769 C336.034867,120.50769 337.490781,118.954185 338.218738,117.607815 C339.36267,115.432908 341.962515,93.5802766 344.874343,76.8024268 C345.810287,71.2098102 348.202145,66.5492963 350.282022,62.7173183 C353.297843,57.1247017 358.081559,53.7069915 361.92933,53.7069915 C365.361127,53.7069915 367.856979,56.6068668 367.856979,59.610309 C367.856979,71.2098102 362.657287,81.3593736 351.113972,81.3593736 C351.113972,81.3593736 350.178028,83.5342801 350.178028,85.5020526 C350.178028,91.4053701 356.521651,93.4767096 363.697225,93.4767096 C368.896917,93.4767096 374.512584,92.9588748 378.464349,91.4053701 C386.100648,88.5121809 392.544455,82.5840235 394.834638,76.411897 C396.830636,87.85138 406.430769,92.4410399 416.606974,92.4410399 C424.173061,92.4410399 431.646483,87.1808598 435.780044,81.0031224 L435.780044,81.0031224 C437.465083,88.394271 443.475506,92.9588748 451.629785,92.9588748 C461.197217,92.9588748 466.604896,88.7126288 470.24468,82.8093113 C471.388612,88.5054949 473.676476,92.4410399 477.628242,92.4410399 C487.035901,92.4410399 497.987417,83.6771773 500.8394,75.4883265 C500.798571,78.0378391 500.795756,80.7411236 500.795756,83.6378471 C500.795756,89.9554325 501.939688,93.7874106 505.371484,93.7874106 C506.099441,93.7874106 506.931391,93.5802766 507.763342,93.2695757 C514.730929,90.5768344 516.602817,88.5054949 516.602817,85.9163205 C516.602817,83.0164452 514.418947,79.4951681 514.418947,73.9025515 L514.418947,73.1775827 C516.082848,64.7886578 522.010497,53.6034245 527.522169,53.6034245 C531.161953,53.6034245 532.201892,55.1569291 532.201892,57.3318356 C532.201892,63.4422871 528.978083,68.3099349 528.978083,79.1844672 C528.978083,86.1234545 530.745978,92.4410399 537.297589,92.4410399 C548.632916,92.4410399 560.280225,80.6344048 560.280225,71.6240781 C560.280225,69.2420376 559.86425,67.999234 558.824312,67.999234 C556.848429,67.999234 547.592978,80.5308378 543.537219,80.5308378 C542.705268,80.5308378 542.393287,79.909436 542.393287,78.7701993 C542.393287,74.7310873 546.761028,64.4779568 546.761028,54.4319603 C546.761028,47.0787051 541.769324,42.5217583 532.409879,42.5217583 C526.898206,42.5217583 522.946441,44.6966647 520.138608,47.59654 C518.786688,44.4895308 515.978855,40.4504188 513.067027,40.4504188 C511.715108,40.4504188 510.363188,41.2789546 509.011268,43.3502941 C503.442718,51.7399323 501.647962,59.2998151 501.06994,68.9115814 L501.06994,68.9115814 Z M188.120979,24.0868368 C191.552775,24.0868368 194.360609,25.3296405 194.360609,28.1259488 C194.360609,30.5079893 192.072744,31.543659 188.744942,31.543659 C183.961226,31.543659 180.217448,30.0937214 176.993639,28.1259488 C179.801473,25.3296405 183.961226,24.0868368 188.120979,24.0868368 Z M229.071438,81.8772085 C224.391715,81.8772085 223.143789,77.9416635 223.143789,73.9025515 C223.143789,59.4031751 236.558993,50.9106832 246.958376,49.4607456 C245.190481,55.674764 242.694629,64.9957917 241.342709,71.3133771 C238.63887,78.7701993 233.543172,81.8772085 229.071438,81.8772085 Z M226.15961,112.533033 C223.559765,112.533033 219.296018,110.979528 219.296018,107.976086 C219.296018,105.80118 223.97574,106.111881 234.063141,104.144108 C231.879271,109.011756 229.279425,112.533033 226.15961,112.533033 Z M291.548618,81.8772085 C286.868896,81.8772085 285.62097,77.9416635 285.62097,73.9025515 C285.62097,59.4031751 299.036174,50.9106832 309.435557,49.4607456 C307.667662,55.674764 305.17181,64.9957917 303.81989,71.3133771 C301.116051,78.7701993 296.020353,81.8772085 291.548618,81.8772085 Z M288.636791,112.533033 C286.036946,112.533033 281.773199,110.979528 281.773199,107.976086 C281.773199,105.80118 286.452921,106.111881 296.540322,104.144108 C294.356452,109.011756 291.756606,112.533033 288.636791,112.533033 Z M425.134468,25.1225066 C426.382394,25.1225066 426.902363,25.8474754 426.902363,27.40098 C426.902363,33.8221324 419.934777,37.8612444 410.575332,52.1534869 C413.591153,34.9613692 420.662734,25.1225066 425.134468,25.1225066 Z M456.517495,81.8772085 C451.837772,81.8772085 450.589846,77.9416635 450.589846,73.9025515 C450.589846,59.92101 461.405204,51.532085 471.492606,49.6678795 C469.932698,56.2961659 469.516723,65.3064926 469.412729,69.5527386 C466.916877,78.3559314 461.301211,81.8772085 456.517495,81.8772085 Z M559.633153,43.0395931 C557.241295,45.8359015 556.929313,47.492973 556.929313,50.8071162 C556.929313,51.4285181 557.345288,51.842786 558.177239,51.842786 L562.856961,51.842786 C561.297054,58.6782063 560.361109,65.9278945 560.361109,72.1419129 C560.361109,83.4307131 563.168943,92.4410399 570.032535,92.4410399 C581.367863,92.4410399 596.134986,80.6344048 596.134986,71.6240781 C596.134986,69.2420376 595.719011,67.999234 594.679073,67.999234 C593.847122,67.999234 592.495202,68.9313367 590.935295,71.0026762 C587.607492,75.3524891 578.768017,80.5308378 576.272165,80.5308378 C574.608264,80.5308378 573.880307,77.7345295 573.880307,73.3847166 C573.880307,68.9313367 574.712258,59.2996081 576.064177,51.3249511 C579.079998,51.3249511 584.799659,51.842786 586.46356,51.842786 C588.023468,51.842786 589.375387,46.0430354 589.375387,44.6966647 C589.375387,43.453861 589.271394,43.0395931 588.231455,43.0395931 C585.943591,43.0395931 582.719782,42.9360262 577.936066,42.8324592 L582.199813,35.375637 C581.159875,31.0258241 579.911949,26.9867121 575.440214,26.9867121 C571.696437,26.9867121 568.160647,33.6149985 565.248819,42.9360262 C562.960955,43.0395931 560.985072,43.0395931 559.633153,43.0395931 Z" id="Logo--type" fill="#3D0F2B"></path>
                    <g id="Logo--mark">
                        <path d="M60.8220307,20.4485092 C161.191805,20.4485092 105.502702,152.044358 105.502702,152.044358 C105.502702,152.044358 89.4921122,171.693683 60.8220302,171.693683 C32.1519481,171.693683 16.0735296,152.044358 16.0735296,152.044358 C16.0735296,152.044358 -39.5477434,20.4485092 60.8220307,20.4485092 Z" id="Triangle-1" fill="#57163E" transform="translate(60.806387, 96.071096) rotate(-180.000000) translate(-60.806387, -96.071096) "></path>
                        <path d="M68.7087519,-0.817077938 C68.7087519,-7.7725504 72.1301145,-10.613518 79.8526187,-10.613518 L79.8526187,-24.034641 C59.3244431,-24.034641 51.4064325,-19.3323497 51.4064325,-4.44176077 L51.4064325,4.08114211 C51.4064325,11.4284722 48.3760827,14.2694398 40.4580722,14.2694398 L40.4580722,27.6905627 C48.3760827,27.6905627 51.4064325,30.5315304 51.4064325,37.8788604 L51.4064325,46.3037989 C51.4064325,61.2923522 59.3244431,65.9946435 79.8526187,65.9946435 L79.8526187,52.5735206 C72.1301145,52.5735206 68.7087519,49.7325529 68.7087519,42.6791161 L68.7087519,32.4908184 C68.7087519,26.3190611 65.7761554,22.8903071 60.204222,20.9310191 C65.7761554,19.0696954 68.7087519,15.6409414 68.7087519,9.46918416 L68.7087519,-0.817077938 Z" id="{" fill="#D3FF43" transform="translate(60.790741, 20.980001) rotate(-270.000000) translate(-60.790741, -20.980001) "></path>
                        <path d="M59.3894077,137.659066 C74.1260131,137.659066 86.5119944,129.212094 86.5119944,119.402707 C86.5119944,117.313671 85.7887254,115.951257 84.8846392,115.951257 C83.0764668,115.951257 76.2958201,127.213886 64.813925,127.213886 C56.0442887,127.213886 50.1677282,124.216573 50.1677282,116.677878 C50.1677282,110.501598 52.1567179,107.140974 55.5922456,104.779455 C57.0387835,105.233594 58.4853215,105.506077 59.9318594,105.506077 C63.6386129,105.506077 68.9727217,104.688628 68.9727217,100.873866 C68.9727217,97.5132433 65.1755595,96.8774497 61.1071715,96.8774497 C60.022268,96.8774497 59.0277732,96.9682773 58.123687,97.1499326 C56.0442887,95.2425519 54.5073421,92.2452394 54.5073421,88.3396504 C54.5073421,87.8855121 54.5073421,87.3405462 54.5977507,86.8864079 C58.2140956,89.5204098 61.8304405,91.2461352 66.7125061,91.2461352 C76.3862287,91.2461352 82.3531978,86.2506144 82.3531978,79.8926787 C82.3531978,71.1732241 74.9396907,68.7208774 67.5261837,68.7208774 C59.5702249,68.7208774 53.5128472,70.8099134 49.1732334,73.4439154 C45.918523,71.445707 42.8446298,66.4501861 40.5844142,66.4501861 C39.680328,66.4501861 38.7762418,67.267635 38.7762418,68.4483945 C38.7762418,71.0823964 40.8556401,75.2604684 43.8391246,78.6210916 C42.2117694,81.1642658 41.3980918,83.979923 41.3980918,86.8864079 C41.3980918,93.3351712 43.5678988,97.7857262 47.9979213,100.873866 C40.6748229,103.780351 35.0694883,109.320838 35.0694883,119.039397 C35.0694883,132.300234 45.3760712,137.659066 59.3894077,137.659066 L59.3894077,137.659066 Z M66.8933234,77.712815 C69.8768079,77.712815 72.3178407,78.8027469 72.3178407,81.2550935 C72.3178407,83.3441295 70.328851,84.252406 67.4357751,84.252406 C63.2769785,84.252406 60.022268,82.9808189 57.2196008,81.2550935 C59.6606336,78.8027469 63.2769785,77.712815 66.8933234,77.712815 L66.8933234,77.712815 Z" id="E" fill="#3D0F2E"></path>
                    </g>
                </g>
            </g>
        </g>
    </g>
</svg>