<?xml version="1.0" encoding="UTF-8" standalone="no"?>
<svg width="600px" height="683px" viewBox="0 0 600 683" version="1.1" xmlns="http://www.w3.org/2000/svg" xmlns:xlink="http://www.w3.org/1999/xlink" xmlns:sketch="http://www.bohemiancoding.com/sketch/ns">
    <!-- Generator: Sketch 3.3.3 (12072) - http://www.bohemiancoding.com/sketch -->
    <title>eggplant_logo_mark-type_vertical</title>
    <desc>Created with Sketch.</desc>
    <defs></defs>
    <g id="Page-1" stroke="none" stroke-width="1" fill="none" fill-rule="evenodd" sketch:type="MSPage">
        <g id="Logos-for-ze-web" sketch:type="MSArtboardGroup" transform="translate(-746.000000, -230.000000)">
            <g id="eggplant_logo_mark-type_vertical" sketch:type="MSLayerGroup" transform="translate(746.000000, 229.000000)">
                <g id="Logo--mark" transform="translate(132.402235, 0.000000)" sketch:type="MSShapeGroup">
                    <path d="M167.684029,56.079447 C444.399685,56.079447 290.866942,416.977269 290.866942,416.977269 C290.866942,416.977269 246.726355,470.864976 167.684027,470.864976 C88.6417001,470.864976 44.3141106,416.977269 44.3141106,416.977269 C44.3141106,416.977269 -109.031627,56.079447 167.684029,56.079447 Z" id="Triangle-1" fill="#57163E" transform="translate(167.640899, 263.472212) rotate(-180.000000) translate(-167.640899, -263.472212) "></path>
                    <path d="M189.42742,-2.2408127 C189.42742,-21.3159955 198.859987,-29.1072673 220.150637,-29.1072673 L220.150637,-65.9143101 C163.555237,-65.9143101 141.725582,-53.0184119 141.725582,-12.1814009 L141.725582,11.1924146 C141.725582,31.3422555 133.371023,39.1335274 111.541369,39.1335274 L111.541369,75.9405702 C133.371023,75.9405702 141.725582,83.731842 141.725582,103.881683 L141.725582,126.986834 C141.725582,168.092509 163.555237,180.988408 220.150637,180.988408 L220.150637,144.181365 C198.859987,144.181365 189.42742,136.390093 189.42742,117.046246 L189.42742,89.1051329 C189.42742,72.1792665 181.342363,62.7760074 165.980754,57.4027165 C181.342363,52.2980901 189.42742,42.894831 189.42742,25.9689646 L189.42742,-2.2408127 Z" id="{" fill="#D3FF43" transform="translate(167.597765, 57.537049) rotate(-270.000000) translate(-167.597765, -57.537049) "></path>
                    <path d="M163.734342,377.52602 C204.362603,377.52602 238.510283,354.360444 238.510283,327.458484 C238.510283,321.729363 236.516258,317.99298 234.023727,317.99298 C229.038664,317.99298 210.344679,348.880415 178.68953,348.880415 C154.511976,348.880415 138.310522,340.660371 138.310522,319.985717 C138.310522,303.047446 143.794091,293.831034 153.26571,287.354637 C157.25376,288.600098 161.24181,289.347374 165.229861,289.347374 C175.449239,289.347374 190.155174,287.105544 190.155174,276.643671 C190.155174,267.427259 179.686543,265.683614 168.470151,265.683614 C165.479114,265.683614 162.737329,265.932706 160.244798,266.43089 C154.511976,261.199954 150.274672,252.97991 150.274672,242.268945 C150.274672,241.023484 150.274672,239.528931 150.523925,238.283469 C160.494051,245.507144 170.464176,250.239896 183.923846,250.239896 C210.593932,250.239896 227.044639,236.539824 227.044639,219.103369 C227.044639,195.190516 206.605882,188.465026 186.167124,188.465026 C164.232848,188.465026 147.532888,194.194147 135.568737,201.417821 C126.595624,195.937792 118.121017,182.23772 111.889689,182.23772 C109.397157,182.23772 106.904626,184.47955 106.904626,187.717749 C106.904626,194.941423 112.637448,206.399665 120.862802,215.616078 C116.376245,222.59066 114.132967,230.312518 114.132967,238.283469 C114.132967,255.969017 120.115042,268.174536 132.328446,276.643671 C112.138942,284.614622 96.6852474,299.809248 96.6852474,326.462115 C96.6852474,362.829579 125.100105,377.52602 163.734342,377.52602 L163.734342,377.52602 Z M184.422352,213.125155 C192.647706,213.125155 199.377541,216.114262 199.377541,222.839752 C199.377541,228.568873 193.893971,231.059795 185.917871,231.059795 C174.452227,231.059795 165.479114,227.572504 157.752266,222.839752 C164.482101,216.114262 174.452227,213.125155 184.422352,213.125155 L184.422352,213.125155 Z" id="E" fill="#3D0F2E"></path>
                </g>
                <path d="M471.712813,614.390306 C471.251621,613.342118 470.581131,612.743263 469.830297,612.743263 C467.304244,612.743263 454.252969,630.037612 448.499181,630.037612 C446.394137,630.037612 445.552119,625.016672 445.552119,618.601027 C445.552119,611.488028 445.692456,605.769736 446.67481,600.469855 C448.779854,596.983091 450.604226,593.635798 452.428597,589.451681 C452.428597,584.849153 444.710102,577.178273 438.956314,577.178273 C436.991606,577.178273 435.447907,578.712449 434.18488,581.222919 C433.202526,580.665037 431.799163,580.246625 429.974791,579.828213 C427.027729,579.270331 424.221004,578.99139 421.554614,578.99139 C409.906702,578.99139 399.80249,586.243859 393.347021,593.914739 C388.556231,599.702908 385.526046,606.803384 384.04602,614.044941 C383.157671,614.704228 382.131676,615.744643 381.028613,617.206321 C376.116843,623.482496 369.80171,629.898141 359.837834,629.898141 C352.821019,629.898141 347.768913,625.156142 347.768913,614.835322 L347.768913,609.2565 C365.310949,586.5228 386.782401,571.32051 386.782401,554.165632 C386.782401,546.355281 381.870631,541.752753 373.871462,541.752753 C346.388771,541.752753 329.559606,580.070522 327.965595,613.20946 L327.965595,613.20946 C327.848249,613.177719 327.723687,613.161675 327.591673,613.161675 C326.468983,613.161675 324.644611,614.41691 322.539567,617.206321 C319.03116,621.808849 306.400894,635.616434 290.402557,635.616434 L288.718522,635.616434 C301.910133,630.595494 312.435354,614.556381 312.435354,600.190914 C312.435354,588.614858 306.120221,578.99139 290.542893,578.99139 C281.98238,578.99139 276.228592,582.338683 271.878167,587.220153 C270.334468,582.896565 266.12438,576.062508 261.633618,576.062508 C259.809247,576.062508 257.42353,576.899332 256.160503,579.967684 C251.067021,591.765212 247.173073,603.449802 244.217324,614.392848 C240.038785,618.156534 232.987225,629.898269 219.423582,640.497903 C225.177369,621.529908 231.913511,597.401503 231.913511,589.870093 C231.913511,586.5228 226.721069,576.062508 221.107617,576.062508 C218.7219,576.062508 216.195847,577.317743 214.792484,582.199213 C211.705086,580.525566 204.267263,578.99139 198.934484,578.99139 C187.286572,578.99139 177.182359,586.243859 170.72689,593.914739 C166.10626,599.497322 163.12339,606.300647 161.589469,613.273906 L161.589469,613.273906 C157.678191,614.644793 150.690081,628.324553 135.112659,640.497903 C140.866447,621.529908 147.602588,597.401503 147.602588,589.870093 C147.602588,586.5228 142.410146,576.062508 136.796694,576.062508 C134.410977,576.062508 131.884924,577.317743 130.481561,582.199213 C127.394163,580.525566 119.95634,578.99139 114.623561,578.99139 C102.975649,578.99139 92.8714364,586.243859 86.4159671,593.914739 C81.4119221,599.96056 76.8744044,606.019863 75.6140085,613.732745 C71.3054684,617.404399 61.4033955,630.037612 46.1706384,630.037612 C32.5580186,630.037612 23.4361599,625.435084 23.4361599,613.859028 C23.4361599,604.37503 26.5235582,599.21462 31.8563372,595.588386 C34.1017177,596.285738 36.3470983,596.70415 38.5924789,596.70415 C44.3462667,596.70415 52.6261076,595.448915 52.6261076,589.591152 C52.6261076,584.430742 46.7319836,583.454448 40.4168507,583.454448 C38.7328152,583.454448 37.1891161,583.593918 35.7857532,583.872859 C32.5580186,580.943978 30.1723017,576.34145 30.1723017,570.344216 C30.1723017,569.646863 30.1723017,568.81004 30.312638,568.112687 C35.9260895,572.157333 41.539541,574.807273 49.1177005,574.807273 C64.1336832,574.807273 73.3958781,567.136393 73.3958781,557.373455 C73.3958781,543.984282 61.8883026,540.218577 50.380727,540.218577 C38.0311338,540.218577 28.6286026,543.426399 21.8924608,547.471045 C16.8403544,544.402693 12.0689207,536.731813 8.56051351,536.731813 C7.15715064,536.731813 5.75378777,537.987048 5.75378777,539.800165 C5.75378777,543.844811 8.98152237,550.260456 13.6126198,555.420867 C11.0865667,559.326042 9.82354009,563.649629 9.82354009,568.112687 C9.82354009,578.015096 13.191611,584.849153 20.068089,589.591152 C8.7008498,594.05421 0,602.561913 0,617.485262 C0,637.847963 15.9983367,646.076725 37.7504612,646.076725 C55.261653,646.076725 70.6345894,638.475533 76.8810385,628.153505 L76.8810385,628.153505 C80.1070672,639.662256 86.1505167,646.774078 98.063879,646.774078 C107.045401,646.774078 113.360534,643.984667 117.991632,639.66108 C117.28995,642.729432 116.588269,645.937255 115.746251,649.005607 C95.1168169,653.608135 78.5571351,653.608135 78.5571351,665.323661 C78.5571351,675.783953 88.801684,683.873245 100.870605,683.873245 C121.219366,683.873245 125.569791,671.320895 130.060552,656.397546 C143.87497,650.17496 155.225996,638.916086 160.674388,629.060677 C162.409079,639.958787 170.788148,646.774078 182.374802,646.774078 C191.356324,646.774078 197.671457,643.984667 202.302555,639.66108 C201.600873,642.729432 200.899192,645.937255 200.057174,649.005607 C179.42774,653.608135 162.868058,653.608135 162.868058,665.323661 C162.868058,675.783953 173.112607,683.873245 185.181528,683.873245 C205.530289,683.873245 209.880714,671.320895 214.371475,656.397546 C224.275629,651.936305 232.913579,644.886374 239.017919,637.620894 L239.017919,637.620894 C236.35009,652.573363 235.531069,664.492894 235.531069,670.902483 C235.531069,673.970835 236.373087,676.062894 238.197458,678.154952 C239.600821,679.828599 242.968892,683.873245 246.898308,683.873245 C249.003352,683.873245 250.968061,681.781186 251.950415,679.968069 C253.494114,677.039188 257.002521,647.610901 260.931937,625.016672 C262.194963,617.485262 265.422698,611.209087 268.229424,606.048677 C272.299176,598.517267 278.754645,593.914739 283.947088,593.914739 C288.578185,593.914739 291.946256,597.819914 291.946256,601.86456 C291.946256,617.485262 284.929442,631.153376 269.352114,631.153376 C269.352114,631.153376 268.089088,634.082258 268.089088,636.732198 C268.089088,644.68202 276.649601,647.471431 286.332805,647.471431 C293.349619,647.471431 300.927779,646.774078 306.260558,644.68202 C316.565494,640.785848 325.261203,632.802576 328.351729,624.490757 C331.045265,639.895967 344.000332,646.076725 357.732789,646.076725 C367.942977,646.076725 378.028117,638.992998 383.606224,630.673623 L383.606224,630.673623 C385.880128,640.627062 393.990998,646.774078 404.994932,646.774078 C417.905871,646.774078 425.203358,641.055785 430.115128,633.105964 C431.658827,640.776844 434.746225,646.076725 440.079004,646.076725 C452.774334,646.076725 467.553048,634.274693 471.401707,623.247012 C471.346609,626.680365 471.34281,630.320797 471.34281,634.221728 C471.34281,642.729432 472.88651,647.889842 477.517607,647.889842 C478.499961,647.889842 479.622651,647.610901 480.745342,647.19249 C490.147873,643.566255 492.673926,640.776844 492.673926,637.29008 C492.673926,633.384905 489.726864,628.642906 489.726864,621.111497 L489.726864,620.135203 C491.972245,608.838088 499.971413,593.775268 507.409236,593.775268 C512.321006,593.775268 513.724369,595.867327 513.724369,598.796208 C513.724369,607.024971 509.373944,613.580087 509.373944,628.224495 C509.373944,637.569022 511.759661,646.076725 520.600847,646.076725 C535.897502,646.076725 551.615167,630.177082 551.615167,618.043144 C551.615167,614.835322 551.053821,613.161675 549.650459,613.161675 C546.984069,613.161675 534.49414,630.037612 529.021024,630.037612 C527.898334,630.037612 527.477325,629.200788 527.477325,627.666612 C527.477325,622.227261 533.371449,608.419676 533.371449,594.891033 C533.371449,584.988624 526.635308,578.851919 514.005042,578.851919 C506.567218,578.851919 501.23444,581.780801 497.44536,585.685976 C495.620988,581.50186 491.831908,576.062508 487.902492,576.062508 C486.078121,576.062508 484.253749,577.178273 482.429377,579.967684 C474.9148,591.265759 472.492836,601.446428 471.712813,614.390306 L471.712813,614.390306 Z M49.398373,554.026161 C54.0294705,554.026161 57.8185503,555.699808 57.8185503,559.465513 C57.8185503,562.673336 54.7311519,564.068041 50.2403908,564.068041 C43.7849216,564.068041 38.7328152,562.115453 34.3823903,559.465513 C38.1714701,555.699808 43.7849216,554.026161 49.398373,554.026161 Z M104.659684,631.850729 C98.3445515,631.850729 96.6605161,626.550848 96.6605161,621.111497 C96.6605161,601.585619 114.763897,590.149034 128.797526,588.196446 C126.411809,596.564679 123.043738,609.117029 121.219366,617.624733 C117.570623,627.666612 110.694145,631.850729 104.659684,631.850729 Z M100.730268,673.134012 C97.2218613,673.134012 91.4680735,671.041954 91.4680735,666.997308 C91.4680735,664.068426 97.7832064,664.486838 111.395826,661.836897 C108.448764,668.392013 104.940357,673.134012 100.730268,673.134012 Z M188.970607,631.850729 C182.655474,631.850729 180.971439,626.550848 180.971439,621.111497 C180.971439,601.585619 199.07482,590.149034 213.108449,588.196446 C210.722732,596.564679 207.354661,609.117029 205.530289,617.624733 C201.881546,627.666612 195.005068,631.850729 188.970607,631.850729 Z M185.041191,673.134012 C181.532784,673.134012 175.778996,671.041954 175.778996,666.997308 C175.778996,664.068426 182.094129,664.486838 195.706749,661.836897 C192.759687,668.392013 189.25128,673.134012 185.041191,673.134012 Z M369.240365,555.420867 C370.9244,555.420867 371.626082,556.397161 371.626082,558.489219 C371.626082,567.136393 362.22355,572.575745 349.593285,591.822681 C353.663037,568.670569 363.205904,555.420867 369.240365,555.420867 Z M411.590738,631.850729 C405.275605,631.850729 403.591569,626.550848 403.591569,621.111497 C403.591569,602.282972 418.186543,590.985857 431.799163,588.475388 C429.694119,597.401503 429.132774,609.535441 428.992437,615.253733 C425.624367,627.10873 418.046207,631.850729 411.590738,631.850729 Z M550.741963,579.549272 C547.514229,583.314977 547.09322,585.546506 547.09322,590.009564 C547.09322,590.846387 547.654565,591.404269 548.777255,591.404269 L555.092388,591.404269 C552.987344,600.609325 551.724317,610.372264 551.724317,618.740497 C551.724317,633.942787 555.513397,646.076725 564.775592,646.076725 C580.072247,646.076725 600,630.177082 600,618.043144 C600,614.835322 599.438655,613.161675 598.035292,613.161675 C596.912602,613.161675 595.08823,614.41691 592.983186,617.206321 C588.492424,623.064084 576.56384,630.037612 573.195769,630.037612 C570.950389,630.037612 569.968035,626.271907 569.968035,620.414144 C569.968035,614.41691 571.090725,601.446149 572.915097,590.706916 C576.984849,590.706916 584.703345,591.404269 586.948725,591.404269 C589.05377,591.404269 590.878141,583.593918 590.878141,581.780801 C590.878141,580.107154 590.737805,579.549272 589.334442,579.549272 C586.247044,579.549272 581.896619,579.409802 575.44115,579.270331 L581.194938,569.228451 C579.791575,563.370688 578.107539,557.931337 572.073079,557.931337 C567.020973,557.931337 562.249539,566.857452 558.320123,579.409802 C555.232724,579.549272 552.566335,579.549272 550.741963,579.549272 Z" id="Logo--type" fill="#3D0F2B" sketch:type="MSShapeGroup"></path>
            </g>
        </g>
    </g>
</svg>