<?xml version="1.0" encoding="UTF-8" standalone="no"?>
<svg width="600px" height="140px" viewBox="0 0 600 140" version="1.1" xmlns="http://www.w3.org/2000/svg" xmlns:xlink="http://www.w3.org/1999/xlink" xmlns:sketch="http://www.bohemiancoding.com/sketch/ns">
    <!-- Generator: Sketch 3.3.3 (12072) - http://www.bohemiancoding.com/sketch -->
    <title>eggplant_logo_mark-type_horizontal</title>
    <desc>Created with Sketch.</desc>
    <defs></defs>
    <g id="Page-1" stroke="none" stroke-width="1" fill="none" fill-rule="evenodd" sketch:type="MSPage">
        <g id="Logos-for-ze-web" sketch:type="MSArtboardGroup" transform="translate(-746.000000, -1196.000000)">
            <g id="eggplant_logo_mark-type_horizontal" sketch:type="MSLayerGroup" transform="translate(746.000000, 1193.000000)">
                <g id="Logo--tagline-+-Logo--type" sketch:type="MSShapeGroup">
                    <path d="M496.803522,86.7911587 C496.435761,85.9576884 495.901101,85.4815072 495.302374,85.4815072 C493.288058,85.4815072 482.880763,99.233166 478.292601,99.233166 C476.614005,99.233166 475.942566,95.2407489 475.942566,90.1393271 C475.942566,84.4834029 476.054473,79.9364835 476.837817,75.7222655 C478.516413,72.9497536 479.971197,70.2881423 481.42598,66.961128 C481.42598,63.3014124 475.271128,57.2018863 470.682965,57.2018863 C469.116276,57.2018863 467.885305,58.4217916 466.878148,60.4180001 C466.094803,59.9743982 464.975739,59.6416968 463.520956,59.3089953 C461.170921,58.8653934 458.932793,58.6435925 456.806571,58.6435925 C447.51834,58.6435925 439.461079,64.4104171 434.313385,70.5099432 C430.493132,75.1124249 428.076814,80.7583926 426.896618,86.5165404 C426.188234,87.0407747 425.37009,87.868064 424.490489,89.0303224 C420.573765,94.0208437 415.537977,99.1222655 407.592623,99.1222655 C401.997303,99.1222655 397.968672,95.3516494 397.968672,87.1450143 L397.968672,82.7089953 C411.956972,64.6322181 429.078652,52.5440664 429.078652,38.9033081 C429.078652,32.6928816 425.161928,29.033166 418.783263,29.033166 C396.868125,29.033166 383.448279,59.501668 382.177189,85.8522049 L382.177189,85.8522049 C382.083616,85.8269664 381.984288,85.8142086 381.879018,85.8142086 C380.983767,85.8142086 379.528984,86.8123129 377.850388,89.0303224 C375.052728,92.690038 364.981152,103.669185 352.223822,103.669185 L350.880945,103.669185 C361.400147,99.6767679 369.793127,86.9232134 369.793127,75.5004645 C369.793127,66.2957252 364.757339,58.6435925 352.335728,58.6435925 C345.509438,58.6435925 340.921275,61.3052039 337.452177,65.1867205 C336.221206,61.7488058 332.864014,56.3146825 329.283009,56.3146825 C327.828226,56.3146825 325.925817,56.9800854 324.91866,59.4198958 C320.857036,68.8007399 317.751939,78.0917802 315.394977,86.79318 C312.062944,89.7858874 306.439917,99.1223675 295.62405,107.550702 C300.212213,92.4682371 305.58372,73.2824551 305.58372,67.2938295 C305.58372,64.6322181 301.443183,56.3146825 296.966927,56.3146825 C295.064518,56.3146825 293.050203,57.3127868 291.931139,61.1943034 C289.469198,59.8634977 283.538159,58.6435925 279.285716,58.6435925 C269.997484,58.6435925 261.940223,64.4104171 256.792529,70.5099432 C253.107965,74.9489529 250.729376,80.3586394 249.506203,85.9034491 L249.506203,85.9034491 C246.387288,86.9935152 240.814857,97.8710219 228.393171,107.550702 C232.981333,92.4682371 238.352841,73.2824551 238.352841,67.2938295 C238.352841,64.6322181 234.212304,56.3146825 229.736048,56.3146825 C227.833639,56.3146825 225.819324,57.3127868 224.70026,61.1943034 C222.238319,59.8634977 216.307279,58.6435925 212.054836,58.6435925 C202.766605,58.6435925 194.709344,64.4104171 189.561649,70.5099432 C185.571344,75.3172977 181.953055,80.1353733 180.947995,86.2682965 C177.512296,89.1878243 169.616224,99.233166 157.46938,99.233166 C146.614459,99.233166 139.340543,95.5734503 139.340543,86.368711 C139.340543,78.8274788 141.802484,74.7241612 146.054927,71.8407489 C147.84543,72.3952513 149.635932,72.7279527 151.426434,72.7279527 C156.014597,72.7279527 162.617075,71.7298484 162.617075,67.0720285 C162.617075,62.968711 157.917006,62.1924077 152.881218,62.1924077 C151.538341,62.1924077 150.30737,62.3033081 149.188306,62.5251091 C146.614459,60.1961991 144.71205,56.5364835 144.71205,51.7677631 C144.71205,51.2132607 144.71205,50.5478579 144.823957,49.9933555 C149.300213,53.2094693 153.776469,55.3165783 159.819415,55.3165783 C171.7934,55.3165783 179.179222,49.2170522 179.179222,41.454019 C179.179222,30.8075735 170.002897,27.8132607 160.826572,27.8132607 C150.978809,27.8132607 143.48108,30.3639716 138.109573,33.5800854 C134.080942,31.140275 130.276124,25.0407489 127.478464,25.0407489 C126.3594,25.0407489 125.240336,26.0388532 125.240336,27.4805593 C125.240336,30.6966731 127.814184,35.7980949 131.507095,39.9014124 C129.49278,43.0066257 128.485622,46.4445404 128.485622,49.9933555 C128.485622,57.8672892 131.171376,63.3014124 136.654789,67.0720285 C127.590371,70.6208437 120.652174,77.3857726 120.652174,89.2521233 C120.652174,105.443593 133.409504,111.98672 150.754996,111.98672 C164.718701,111.98672 176.977326,105.942607 181.958345,97.7350121 L181.958345,97.7350121 C184.530832,106.886234 189.349975,112.541223 198.849881,112.541223 C206.011891,112.541223 211.047679,110.323213 214.74059,106.885299 C214.181058,109.325109 213.621526,111.87582 212.950087,114.31563 C196.499846,117.975346 183.294891,117.975346 183.294891,127.290986 C183.294891,135.608521 191.464058,142.040749 201.088009,142.040749 C217.314437,142.040749 220.783536,132.059706 224.36454,120.193356 C235.380378,115.245446 244.431868,106.292914 248.776503,98.4563531 C250.159773,107.122021 256.841377,112.541223 266.08076,112.541223 C273.24277,112.541223 278.278558,110.323213 281.971469,106.885299 C281.411937,109.325109 280.852405,111.87582 280.180967,114.31563 C263.730726,117.975346 250.52577,117.975346 250.52577,127.290986 C250.52577,135.608521 258.694938,142.040749 268.318888,142.040749 C284.545317,142.040749 288.014415,132.059706 291.59542,120.193356 C299.49315,116.645985 306.381191,111.040209 311.248888,105.263038 L311.248888,105.263038 C309.121519,117.152544 308.468419,126.630399 308.468419,131.727005 C308.468419,134.166815 309.139857,135.830322 310.59464,137.493829 C311.713704,138.824635 314.399458,142.040749 317.532837,142.040749 C319.211433,142.040749 320.778123,140.377242 321.561468,138.935536 C322.792438,136.606626 325.590098,113.206626 328.723477,95.2407489 C329.730635,89.2521233 332.304482,84.261602 334.54261,80.1582844 C337.787896,74.1696589 342.93559,70.5099432 347.076127,70.5099432 C350.769039,70.5099432 353.454792,73.6151565 353.454792,76.8312702 C353.454792,89.2521233 347.859472,100.12037 335.437861,100.12037 C335.437861,100.12037 334.430704,102.44928 334.430704,104.556389 C334.430704,110.877716 341.256994,113.095725 348.978536,113.095725 C354.573856,113.095725 360.616802,112.541223 364.869245,110.877716 C373.086566,107.779662 380.020664,101.431736 382.485099,94.8225661 C384.632967,107.07207 394.963545,111.98672 405.914027,111.98672 C414.055794,111.98672 422.097846,106.354071 426.545917,99.7388926 L426.545917,99.7388926 C428.359165,107.653403 434.826903,112.541223 443.601616,112.541223 C453.897005,112.541223 459.716138,107.994303 463.632862,101.672976 C464.863832,107.772502 467.325773,111.98672 471.578217,111.98672 C481.701676,111.98672 493.486459,102.602295 496.555441,93.8335982 C496.511505,96.5636398 496.508476,99.4583419 496.508476,102.56018 C496.508476,109.325109 497.739447,113.428427 501.432358,113.428427 C502.215703,113.428427 503.110954,113.206626 504.006205,112.873924 C511.503934,109.990512 513.518249,107.772502 513.518249,104.999991 C513.518249,101.894777 511.168215,98.1241612 511.168215,92.1355356 L511.168215,91.3592323 C512.958717,82.3762939 519.337382,70.3990427 525.268421,70.3990427 C529.185145,70.3990427 530.30421,72.0625498 530.30421,74.3914598 C530.30421,80.9345878 526.835111,86.14691 526.835111,97.7914598 C526.835111,105.221792 528.73752,111.98672 535.787623,111.98672 C547.985421,111.98672 560.518938,99.3440664 560.518938,89.6957252 C560.518938,87.1450143 560.071312,85.8142086 558.952248,85.8142086 C556.826027,85.8142086 546.866357,99.233166 542.502007,99.233166 C541.606756,99.233166 541.271037,98.5677631 541.271037,97.3478579 C541.271037,93.0227394 545.971106,82.0435925 545.971106,71.2862465 C545.971106,63.4123129 540.599598,58.532692 530.528022,58.532692 C524.596983,58.532692 520.34454,60.861602 517.323067,63.9668152 C515.868284,60.639801 512.846811,56.3146825 509.713432,56.3146825 C508.258648,56.3146825 506.803865,57.2018863 505.349082,59.4198958 C499.356838,68.403598 497.425525,76.4987905 496.803522,86.7911587 L496.803522,86.7911587 Z M160.043227,38.7924077 C163.736139,38.7924077 166.757611,40.1232134 166.757611,43.1175261 C166.757611,45.6682371 164.295671,46.7772418 160.714666,46.7772418 C155.566971,46.7772418 151.538341,45.2246352 148.069242,43.1175261 C151.090715,40.1232134 155.566971,38.7924077 160.043227,38.7924077 Z M204.109482,100.674872 C199.073694,100.674872 197.730817,96.4606541 197.730817,92.1355356 C197.730817,76.6094693 212.166743,67.5156304 223.357383,65.9630238 C221.454974,72.6170522 218.76922,82.5980949 217.314437,89.3630238 C214.404871,97.3478579 208.921457,100.674872 204.109482,100.674872 Z M200.976102,133.501412 C198.178442,133.501412 193.59028,131.837905 193.59028,128.621792 C193.59028,126.292882 198.626068,126.625583 209.480989,124.518474 C207.130955,129.730796 204.333294,133.501412 200.976102,133.501412 Z M271.340361,100.674872 C266.304573,100.674872 264.961696,96.4606541 264.961696,92.1355356 C264.961696,76.6094693 279.397622,67.5156304 290.588262,65.9630238 C288.685853,72.6170522 286.0001,82.5980949 284.545317,89.3630238 C281.63575,97.3478579 276.152336,100.674872 271.340361,100.674872 Z M268.206982,133.501412 C265.409322,133.501412 260.821159,131.837905 260.821159,128.621792 C260.821159,126.292882 265.856948,126.625583 276.711868,124.518474 C274.361834,129.730796 271.564174,133.501412 268.206982,133.501412 Z M415.090352,39.9014124 C416.433228,39.9014124 416.99276,40.6777157 416.99276,42.3412228 C416.99276,49.2170522 409.495031,53.5421707 399.423455,68.8464361 C402.668741,50.4369574 410.278376,39.9014124 415.090352,39.9014124 Z M448.861217,100.674872 C443.825429,100.674872 442.482552,96.4606541 442.482552,92.1355356 C442.482552,77.1639716 454.120818,68.1810333 464.975739,66.1848247 C463.297143,73.2824551 462.849517,82.9307963 462.737611,87.4777157 C460.051857,96.904256 454.008911,100.674872 448.861217,100.674872 Z M559.822632,59.0871944 C557.248784,62.0815072 556.913065,63.8559148 556.913065,67.4047299 C556.913065,68.0701328 557.360691,68.5137347 558.255942,68.5137347 L563.29173,68.5137347 C561.613134,75.833166 560.605976,83.5961991 560.605976,90.2502276 C560.605976,102.338379 563.627449,111.98672 571.013272,111.98672 C583.21107,111.98672 599.101779,99.3440664 599.101779,89.6957252 C599.101779,87.1450143 598.654153,85.8142086 597.535089,85.8142086 C596.639838,85.8142086 595.185055,86.8123129 593.506459,89.0303224 C589.925454,93.6881423 580.41341,99.233166 577.727656,99.233166 C575.937153,99.233166 575.153809,96.2388532 575.153809,91.5810333 C575.153809,86.8123129 576.04906,76.4985688 577.503843,67.9592323 C580.749129,67.9592323 586.903981,68.5137347 588.694483,68.5137347 C590.373079,68.5137347 591.827863,62.3033081 591.827863,60.861602 C591.827863,59.5307963 591.715956,59.0871944 590.596892,59.0871944 C588.134951,59.0871944 584.665853,58.9762939 579.518158,58.8653934 L584.106321,50.8805593 C582.987257,46.2227394 581.64438,41.8976209 576.832405,41.8976209 C572.803774,41.8976209 568.998957,48.9952513 565.865577,58.9762939 C563.403636,59.0871944 561.277415,59.0871944 559.822632,59.0871944 Z" id="Logo--type" fill="#3D0F2B"></path>
                    <g id="Logo--mark" transform="translate(0.000000, 2.758057)">
                        <path d="M42.5423661,14.2134869 C112.746659,14.2134869 73.7945528,105.684012 73.7945528,105.684012 C73.7945528,105.684012 62.5958415,119.341996 42.5423657,119.341996 C22.4888898,119.341996 11.2427351,105.684012 11.2427351,105.684012 C11.2427351,105.684012 -27.661927,14.2134869 42.5423661,14.2134869 Z" id="Triangle-1" fill="#57163E" transform="translate(42.531424, 66.777742) rotate(-180.000000) translate(-42.531424, -66.777742) "></path>
                        <path d="M48.0587846,-0.567940012 C48.0587846,-5.40259645 50.451879,-7.37731528 55.8534349,-7.37731528 L55.8534349,-16.7061594 C41.4948686,-16.7061594 35.9565645,-13.4376593 35.9565645,-3.08740886 L35.9565645,2.83674762 C35.9565645,7.94377907 33.8369666,9.9184979 28.2986624,9.9184979 L28.2986624,19.247342 C33.8369666,19.247342 35.9565645,21.2220608 35.9565645,26.3290923 L35.9565645,32.185155 C35.9565645,42.6034992 41.4948686,45.8719993 55.8534349,45.8719993 L55.8534349,36.5431552 C50.451879,36.5431552 48.0587846,34.5684364 48.0587846,29.6656862 L48.0587846,22.5839359 C48.0587846,18.2940295 46.0075609,15.9107481 42.1102357,14.5488731 C46.0075609,13.2550918 48.0587846,10.8718104 48.0587846,6.58190402 L48.0587846,-0.567940012 Z" id="{" fill="#D3FF43" transform="translate(42.520480, 14.582920) rotate(-270.000000) translate(-42.520480, -14.582920) "></path>
                        <path d="M41.5403085,95.6849864 C51.8479233,95.6849864 60.5113787,89.8136087 60.5113787,82.9952345 C60.5113787,81.5431734 60.0054835,80.596177 59.3731145,80.596177 C58.1083765,80.596177 53.3656089,88.4246806 45.3345226,88.4246806 C39.2005432,88.4246806 35.0901447,86.3412885 35.0901447,81.1012417 C35.0901447,76.8081914 36.4813565,74.4722669 38.8843587,72.8308065 C39.8961491,73.1464719 40.9079395,73.3358712 41.9197299,73.3358712 C44.5124429,73.3358712 48.24342,72.7676734 48.24342,70.1160834 C48.24342,67.780159 45.5874702,67.3382273 42.7418096,67.3382273 C41.9829668,67.3382273 41.2873609,67.4013604 40.6549919,67.5276266 C39.2005432,66.2018316 38.1255159,64.1184395 38.1255159,61.4037165 C38.1255159,61.088051 38.1255159,60.7092525 38.1887528,60.393587 C40.7182288,62.2244467 43.2477048,63.4239755 46.6624975,63.4239755 C53.4288458,63.4239755 57.6024813,59.9516554 57.6024813,55.5323388 C57.6024813,49.4715618 52.4170554,47.7669683 47.2316296,47.7669683 C41.6667823,47.7669683 37.42991,49.2190294 34.3945388,51.0498891 C32.1180103,49.6609611 29.9679557,46.1886409 28.3870332,46.1886409 C27.7546642,46.1886409 27.1222952,46.7568388 27.1222952,47.577569 C27.1222952,49.4084287 28.5767439,52.312551 30.6635616,54.6484755 C29.5252974,56.4162021 28.9561653,58.373328 28.9561653,60.393587 C28.9561653,64.8760367 30.4738509,67.9695582 33.5724591,70.1160834 C28.4502701,72.1363424 24.5295823,75.9874611 24.5295823,82.7427022 C24.5295823,91.9601338 31.7385889,95.6849864 41.5403085,95.6849864 L41.5403085,95.6849864 Z M46.7889713,54.0171445 C48.875789,54.0171445 50.5831853,54.7747417 50.5831853,56.4793352 C50.5831853,57.9313964 49.1919735,58.5627273 47.1683927,58.5627273 C44.2594953,58.5627273 41.9829668,57.678864 40.0226229,56.4793352 C41.7300192,54.7747417 44.2594953,54.0171445 46.7889713,54.0171445 L46.7889713,54.0171445 Z" id="E" fill="#3D0F2E"></path>
                    </g>
                </g>
            </g>
        </g>
    </g>
</svg>