<?xml version="1.0" encoding="UTF-8" standalone="no"?>
<svg width="600px" height="148px" viewBox="0 0 600 148" version="1.1" xmlns="http://www.w3.org/2000/svg" xmlns:xlink="http://www.w3.org/1999/xlink" xmlns:sketch="http://www.bohemiancoding.com/sketch/ns">
    <!-- Generator: Sketch 3.3.3 (12072) - http://www.bohemiancoding.com/sketch -->
    <title>eggplant_logo_type_white</title>
    <desc>Created with Sketch.</desc>
    <defs></defs>
    <g id="Page-1" stroke="none" stroke-width="1" fill="none" fill-rule="evenodd" sketch:type="MSPage">
        <g id="Logos-for-ze-web" sketch:type="MSArtboardGroup" transform="translate(-63.000000, -1855.000000)" fill="#FFFFFF">
            <g id="eggplant_logo_type_white" sketch:type="MSLayerGroup" transform="translate(63.000000, 1854.000000)">
                <path d="M471.712813,79.3057534 C471.251621,78.2563446 470.581131,77.6567927 469.830297,77.6567927 C467.304244,77.6567927 454.252969,94.97128 448.499181,94.97128 C446.394137,94.97128 445.552119,89.9444934 445.552119,83.5213771 C445.552119,76.400096 445.692456,70.6751446 446.67481,65.369092 C448.779854,61.8782679 450.604226,58.5270769 452.428597,54.338088 C452.428597,49.7302002 444.710102,42.0503873 438.956314,42.0503873 C436.991606,42.0503873 435.447907,43.5863499 434.18488,46.0997432 C433.202526,45.5412113 431.799163,45.1223125 429.974791,44.7034136 C427.027729,44.1448817 424.221004,43.8656158 421.554614,43.8656158 C409.906702,43.8656158 399.80249,51.1265298 393.347021,58.8063428 C388.556231,64.6012517 385.526046,71.7099968 384.04602,78.959986 C383.157671,79.6200408 382.131676,80.6616672 381.028613,82.1250475 C376.116843,88.4085308 369.80171,94.8316471 359.837834,94.8316471 C352.821019,94.8316471 347.768913,90.0841264 347.768913,79.7512871 L347.768913,74.1659686 C365.310949,51.4057958 386.782401,36.1858029 386.782401,19.0109485 C386.782401,11.1915026 381.870631,6.58361484 373.871462,6.58361484 C346.388771,6.58361484 329.559606,44.9460046 327.965595,78.1235321 L327.965595,78.1235321 C327.848249,78.0917547 327.723687,78.0756916 327.591673,78.0756916 C326.468983,78.0756916 324.644611,79.3323882 322.539567,82.1250475 C319.03116,86.7329353 306.400894,100.556599 290.402557,100.556599 L288.718522,100.556599 C301.910133,95.5298119 312.435354,79.4720212 312.435354,65.0898261 C312.435354,53.5002902 306.120221,43.8656158 290.542893,43.8656158 C281.98238,43.8656158 276.228592,47.2168069 271.878167,52.1039606 C270.334468,47.7753387 266.12438,40.9333236 261.633618,40.9333236 C259.809247,40.9333236 257.42353,41.7711214 256.160503,44.8430465 C251.067021,56.654313 247.173073,68.352509 244.217324,79.3082984 C240.038785,83.076367 232.987225,94.8317755 219.423582,105.443752 C225.177369,86.4536693 231.913511,62.2971668 231.913511,54.7569869 C231.913511,51.4057958 226.721069,40.9333236 221.107617,40.9333236 C218.7219,40.9333236 216.195847,42.1900203 214.792484,47.0771739 C211.705086,45.4015784 204.267263,43.8656158 198.934484,43.8656158 C187.286572,43.8656158 177.182359,51.1265298 170.72689,58.8063428 C166.10626,64.3954268 163.12339,71.2066742 161.589469,78.1880528 L161.589469,78.1880528 C157.678191,79.5605371 150.690081,93.2562269 135.112659,105.443752 C140.866447,86.4536693 147.602588,62.2971668 147.602588,54.7569869 C147.602588,51.4057958 142.410146,40.9333236 136.796694,40.9333236 C134.410977,40.9333236 131.884924,42.1900203 130.481561,47.0771739 C127.394163,45.4015784 119.95634,43.8656158 114.623561,43.8656158 C102.975649,43.8656158 92.8714364,51.1265298 86.4159671,58.8063428 C81.4119221,64.8592037 76.8744044,70.9255634 75.6140085,78.6474261 C71.3054684,82.3233556 61.4033955,94.97128 46.1706384,94.97128 C32.5580186,94.97128 23.4361599,90.3633923 23.4361599,78.7738564 C23.4361599,69.278815 26.5235582,64.1123953 31.8563372,60.4819383 C34.1017177,61.1801031 36.3470983,61.599002 38.5924789,61.599002 C44.3462667,61.599002 52.6261076,60.3423054 52.6261076,54.4777209 C52.6261076,49.3113013 46.7319836,48.3338706 40.4168507,48.3338706 C38.7328152,48.3338706 37.1891161,48.4735036 35.7857532,48.7527695 C32.5580186,45.8204773 30.1723017,41.2125895 30.1723017,35.2083721 C30.1723017,34.5102073 30.1723017,33.6724095 30.312638,32.9742447 C35.9260895,37.0236006 41.539541,39.6766269 49.1177005,39.6766269 C64.1336832,39.6766269 73.3958781,31.996814 73.3958781,22.2225066 C73.3958781,8.81774224 61.8883026,5.04765225 50.380727,5.04765225 C38.0311338,5.04765225 28.6286026,8.25921039 21.8924608,12.3085663 C16.8403544,9.23664113 12.0689207,1.55682819 8.56051351,1.55682819 C7.15715064,1.55682819 5.75378777,2.81352486 5.75378777,4.62875337 C5.75378777,8.67810928 8.98152237,15.1012255 13.6126198,20.2676452 C11.0865667,24.1773681 9.82354009,28.5059899 9.82354009,32.9742447 C9.82354009,42.8881851 13.191611,49.7302002 20.068089,54.4777209 C8.7008498,58.9459757 0,67.4635864 0,82.4043134 C0,102.790726 15.9983367,111.029071 37.7504612,111.029071 C55.261653,111.029071 70.6345894,103.419027 76.8810385,93.0849791 L76.8810385,93.0849791 C80.1070672,104.607132 86.1505167,111.727236 98.063879,111.727236 C107.045401,111.727236 113.360534,108.934576 117.991632,104.605954 C117.28995,107.67788 116.588269,110.889438 115.746251,113.961363 C95.1168169,118.569251 78.5571351,118.569251 78.5571351,130.29842 C78.5571351,140.770892 88.801684,148.869604 100.870605,148.869604 C121.219366,148.869604 125.569791,136.302637 130.060552,121.36191 C143.87497,115.132078 155.225996,103.860093 160.674388,93.9932077 C162.409079,104.904008 170.788148,111.727236 182.374802,111.727236 C191.356324,111.727236 197.671457,108.934576 202.302555,104.605954 C201.600873,107.67788 200.899192,110.889438 200.057174,113.961363 C179.42774,118.569251 162.868058,118.569251 162.868058,130.29842 C162.868058,140.770892 173.112607,148.869604 185.181528,148.869604 C205.530289,148.869604 209.880714,136.302637 214.371475,121.36191 C224.275629,116.895474 232.913579,109.837334 239.017919,102.563393 C236.35009,117.533274 235.531069,129.466685 235.531069,135.883738 C235.531069,138.955663 236.373087,141.050158 238.197458,143.144652 C239.600821,144.820248 242.968892,148.869604 246.898308,148.869604 C249.003352,148.869604 250.968061,146.775109 251.950415,144.959881 C253.494114,142.027588 257.002521,112.565033 260.931937,89.9444934 C262.194963,82.4043134 265.422698,76.1208301 268.229424,70.9544105 C272.299176,63.4142305 278.754645,58.8063428 283.947088,58.8063428 C288.578185,58.8063428 291.946256,62.7160657 291.946256,66.7654216 C291.946256,82.4043134 284.929442,96.0883437 269.352114,96.0883437 C269.352114,96.0883437 268.089088,99.0206359 268.089088,101.673662 C268.089088,109.632741 276.649601,112.4254 286.332805,112.4254 C293.349619,112.4254 300.927779,111.727236 306.260558,109.632741 C316.565494,105.732033 325.261203,97.7394637 328.351729,89.4179663 C331.045265,104.841115 344.000332,111.029071 357.732789,111.029071 C367.942977,111.029071 378.028117,103.937094 383.606224,95.6080322 L383.606224,95.6080322 C385.880128,105.573062 393.990998,111.727236 404.994932,111.727236 C417.905871,111.727236 425.203358,106.002284 430.115128,98.0432052 C431.658827,105.723018 434.746225,111.029071 440.079004,111.029071 C452.774334,111.029071 467.553048,99.2132955 471.401707,88.172773 C471.346609,91.6101236 471.34281,95.2547953 471.34281,99.1602689 C471.34281,107.67788 472.88651,112.844299 477.517607,112.844299 C478.499961,112.844299 479.622651,112.565033 480.745342,112.146134 C490.147873,108.515677 492.673926,105.723018 492.673926,102.232194 C492.673926,98.3224711 489.726864,93.5749504 489.726864,86.0347704 L489.726864,85.0573397 C491.972245,73.7470698 499.971413,58.6667098 507.409236,58.6667098 C512.321006,58.6667098 513.724369,60.7612043 513.724369,63.6934965 C513.724369,71.9318412 509.373944,78.4945905 509.373944,93.1560515 C509.373944,102.51146 511.759661,111.029071 520.600847,111.029071 C535.897502,111.029071 551.615167,95.110913 551.615167,82.9628453 C551.615167,79.7512871 551.053821,78.0756916 549.650459,78.0756916 C546.984069,78.0756916 534.49414,94.97128 529.021024,94.97128 C527.898334,94.97128 527.477325,94.1334823 527.477325,92.5975197 C527.477325,87.1518341 533.371449,73.3281709 533.371449,59.7837735 C533.371449,49.8698332 526.635308,43.7259828 514.005042,43.7259828 C506.567218,43.7259828 501.23444,46.658275 497.44536,50.567998 C495.620988,46.3790091 491.831908,40.9333236 487.902492,40.9333236 C486.078121,40.9333236 484.253749,42.0503873 482.429377,44.8430465 C474.9148,56.1542782 472.492836,66.3468018 471.712813,79.3057534 L471.712813,79.3057534 Z M49.398373,18.8713155 C54.0294705,18.8713155 57.8185503,20.5469111 57.8185503,24.3170011 C57.8185503,27.5285592 54.7311519,28.9248888 50.2403908,28.9248888 C43.7849216,28.9248888 38.7328152,26.9700274 34.3823903,24.3170011 C38.1714701,20.5469111 43.7849216,18.8713155 49.398373,18.8713155 Z M104.659684,96.7865085 C98.3445515,96.7865085 96.6605161,91.480456 96.6605161,86.0347704 C96.6605161,66.4861557 114.763897,55.0362528 128.797526,53.0813913 C126.411809,61.4593691 123.043738,74.0263357 121.219366,82.5439464 C117.570623,92.5975197 110.694145,96.7865085 104.659684,96.7865085 Z M100.730268,138.117865 C97.2218613,138.117865 91.4680735,136.023371 91.4680735,131.974015 C91.4680735,129.041723 97.7832064,129.460622 111.395826,126.807595 C108.448764,133.370345 104.940357,138.117865 100.730268,138.117865 Z M188.970607,96.7865085 C182.655474,96.7865085 180.971439,91.480456 180.971439,86.0347704 C180.971439,66.4861557 199.07482,55.0362528 213.108449,53.0813913 C210.722732,61.4593691 207.354661,74.0263357 205.530289,82.5439464 C201.881546,92.5975197 195.005068,96.7865085 188.970607,96.7865085 Z M185.041191,138.117865 C181.532784,138.117865 175.778996,136.023371 175.778996,131.974015 C175.778996,129.041723 182.094129,129.460622 195.706749,126.807595 C192.759687,133.370345 189.25128,138.117865 185.041191,138.117865 Z M369.240365,20.2676452 C370.9244,20.2676452 371.626082,21.2450759 371.626082,23.3395703 C371.626082,31.996814 362.22355,37.4424995 349.593285,56.7118483 C353.663037,33.5327766 363.205904,20.2676452 369.240365,20.2676452 Z M411.590738,96.7865085 C405.275605,96.7865085 403.591569,91.480456 403.591569,86.0347704 C403.591569,67.1843205 418.186543,55.8740506 431.799163,53.3606572 C429.694119,62.2971668 429.132774,74.4452346 428.992437,80.170186 C425.624367,92.0389878 418.046207,96.7865085 411.590738,96.7865085 Z M550.741963,44.4241477 C547.514229,48.1942376 547.09322,50.428365 547.09322,54.8966198 C547.09322,55.7344176 547.654565,56.2929495 548.777255,56.2929495 L555.092388,56.2929495 C552.987344,65.508725 551.724317,75.2830323 551.724317,83.6610101 C551.724317,98.881003 555.513397,111.029071 564.775592,111.029071 C580.072247,111.029071 600,95.110913 600,82.9628453 C600,79.7512871 599.438655,78.0756916 598.035292,78.0756916 C596.912602,78.0756916 595.08823,79.3323882 592.983186,82.1250475 C588.492424,87.9896319 576.56384,94.97128 573.195769,94.97128 C570.950389,94.97128 569.968035,91.2011901 569.968035,85.3366056 C569.968035,79.3323882 571.090725,66.3465227 572.915097,55.5947846 C576.984849,55.5947846 584.703345,56.2929495 586.948725,56.2929495 C589.05377,56.2929495 590.878141,48.4735036 590.878141,46.658275 C590.878141,44.9826795 590.737805,44.4241477 589.334442,44.4241477 C586.247044,44.4241477 581.896619,44.2845147 575.44115,44.1448817 L581.194938,34.0913084 C579.791575,28.226724 578.107539,22.7810385 572.073079,22.7810385 C567.020973,22.7810385 562.249539,31.7175481 558.320123,44.2845147 C555.232724,44.4241477 552.566335,44.4241477 550.741963,44.4241477 Z" id="Logo--type" sketch:type="MSShapeGroup"></path>
            </g>
        </g>
    </g>
</svg>