<?xml version="1.0" encoding="UTF-8" standalone="no"?>
<svg width="600px" height="224px" viewBox="0 0 600 224" version="1.1" xmlns="http://www.w3.org/2000/svg" xmlns:xlink="http://www.w3.org/1999/xlink" xmlns:sketch="http://www.bohemiancoding.com/sketch/ns">
    <!-- Generator: Sketch 3.3.3 (12072) - http://www.bohemiancoding.com/sketch -->
    <title>eggplant_logo_type-tag_white</title>
    <desc>Created with Sketch.</desc>
    <defs></defs>
    <g id="Page-1" stroke="none" stroke-width="1" fill="none" fill-rule="evenodd" sketch:type="MSPage">
        <g id="Logos-for-ze-web" sketch:type="MSArtboardGroup" transform="translate(-63.000000, -1518.000000)" fill="#FFFFFF">
            <g id="eggplant_logo_type-tag_white" sketch:type="MSLayerGroup" transform="translate(63.000000, 1517.000000)">
                <path d="M5.02793296,205.012155 C5.02793296,201.441652 5.8196741,198.707587 7.40318013,196.809879 C8.98668617,194.91217 11.2638178,193.96333 14.2346432,193.96333 C15.8041359,193.96333 17.1704149,194.223383 18.3335211,194.743496 C19.4966273,195.263608 20.4565259,196.008623 21.2132456,196.978563 C21.9699653,197.948503 22.53049,199.115225 22.8948365,200.478763 C23.259183,201.842302 23.4413535,203.353418 23.4413535,205.012155 C23.4413535,208.582659 22.6496124,211.316723 21.0661063,213.214432 C19.4826003,215.11214 17.2054687,216.06098 14.2346432,216.06098 C12.6651505,216.06098 11.2988716,215.800928 10.1357654,215.280815 C8.97265918,214.760702 8.01276063,214.015687 7.25604093,213.045747 C6.49932123,212.075808 5.93879653,210.909086 5.57445001,209.545547 C5.21010349,208.182009 5.02793296,206.670893 5.02793296,205.012155 L5.02793296,205.012155 Z M8.51723412,205.012155 C8.51723412,206.080495 8.6223325,207.106648 8.83253241,208.090645 C9.04273233,209.074642 9.37204059,209.932112 9.82046708,210.663081 C10.2688936,211.39405 10.8574445,211.984439 11.5861375,212.434267 C12.3148306,212.884094 13.197657,213.109004 14.2346432,213.109004 C18.0462684,213.137118 19.9520524,210.438196 19.9520524,205.012155 C19.9520524,203.915702 19.846954,202.875492 19.6367541,201.891495 C19.4265542,200.907498 19.0972459,200.050028 18.6488194,199.319059 C18.2003929,198.588089 17.611842,198.004728 16.8831489,197.568958 C16.1544559,197.133188 15.2716295,196.915307 14.2346432,196.915307 C10.4230181,196.887192 8.51723412,199.586115 8.51723412,205.012155 L8.51723412,205.012155 Z M28.7383649,194.469384 L31.0505524,194.469384 L31.681149,196.999649 L31.8493081,196.999649 C32.4939212,196.015652 33.3277017,195.263608 34.3506746,194.743496 C35.3736475,194.223383 36.5437428,193.96333 37.8609956,193.96333 C40.6636612,193.96333 42.7516157,194.792687 44.1249218,196.451425 C45.4982279,198.110162 46.1848707,200.823142 46.1848707,204.590444 C46.1848707,206.361639 45.9536543,207.957096 45.4912144,209.376863 C45.0287746,210.79663 44.3771647,211.998494 43.536365,212.982491 C42.6955653,213.966488 41.6796143,214.72556 40.4884815,215.25973 C39.2973486,215.793899 37.973109,216.06098 36.5157229,216.06098 C35.4787367,216.06098 34.6589693,215.997724 34.0563962,215.87121 C33.4538231,215.744696 32.8022131,215.526815 32.1015468,215.217558 L32.1015468,223.989145 L28.7383649,223.989145 L28.7383649,194.469384 Z M37.2303991,196.915307 C35.8010396,196.915307 34.6729837,197.287814 33.8461973,198.03284 C33.019411,198.777867 32.4378666,199.909446 32.1015468,201.427613 L32.1015468,211.886043 C32.6060266,212.279641 33.1805644,212.581864 33.8251774,212.792721 C34.4697905,213.003577 35.3245907,213.109004 36.3896036,213.109004 C38.3234428,213.109004 39.8578792,212.385074 40.9929587,210.937193 C42.1280383,209.489312 42.6955695,207.359693 42.6955695,204.548273 C42.6955695,203.395591 42.5974777,202.348353 42.4012911,201.406527 C42.2051045,200.464702 41.8898094,199.663459 41.4553962,199.002775 C41.0209831,198.342092 40.4604584,197.829015 39.7738053,197.463531 C39.0871523,197.098046 38.2393587,196.915307 37.2303991,196.915307 L37.2303991,196.915307 Z M66.8263992,213.868084 C65.9855996,214.542824 64.9276092,215.076986 63.6523964,215.470585 C62.3771835,215.864184 61.0249177,216.06098 59.5955583,216.06098 C57.9980389,216.06098 56.6107403,215.800928 55.4336208,215.280815 C54.2565012,214.760702 53.2895961,214.015687 52.5328764,213.045747 C51.7761567,212.075808 51.215632,210.916114 50.8512855,209.566633 C50.486939,208.217151 50.3047684,206.699007 50.3047684,205.012155 C50.3047684,201.413538 51.1035161,198.672445 52.7010355,196.788793 C54.2985549,194.905142 56.582693,193.96333 59.5535185,193.96333 C60.5064248,193.96333 61.4593168,194.068757 62.4122231,194.279614 C63.3651293,194.49047 64.2199295,194.891091 64.9766492,195.48149 C65.7333689,196.071888 66.3499461,196.908273 66.8263992,197.990669 C67.3028524,199.073066 67.5410754,200.49984 67.5410754,202.271035 C67.5410754,203.198803 67.4569967,204.224956 67.2888367,205.349524 L53.7940696,205.349524 C53.7940696,206.586549 53.9201877,207.682986 54.1724276,208.638869 C54.4246675,209.594752 54.8170348,210.403023 55.3495412,211.063706 C55.8820477,211.72439 56.575697,212.230438 57.43051,212.581865 C58.285323,212.933293 59.3293002,213.109004 60.5624731,213.109004 C61.5153793,213.109004 62.4682713,212.940321 63.4211776,212.602951 C64.3740839,212.265581 65.0887529,211.871988 65.565206,211.422161 L66.8263992,213.868084 Z M59.5955583,196.915307 C57.9419856,196.915307 56.617746,197.35107 55.6227997,198.22261 C54.6278535,199.09415 54.032296,200.584181 53.8361094,202.692746 L64.2619731,202.692746 C64.2619731,200.556066 63.8555927,199.059008 63.0428197,198.201525 C62.2300467,197.344042 61.080971,196.915307 59.5955583,196.915307 L59.5955583,196.915307 Z M86.3328539,215.554927 L86.3328539,203.536167 C86.3328539,201.34326 86.0175587,199.691575 85.386959,198.581065 C84.7563592,197.470554 83.600277,196.915307 81.9186777,196.915307 C80.433265,196.915307 79.2071172,197.315928 78.2401976,198.117183 C77.273278,198.918437 76.5936418,199.923505 76.2012686,201.132415 L76.2012686,215.554927 L72.8380868,215.554927 L72.8380868,194.469384 L75.192314,194.469384 L75.8229106,197.04182 L75.9910697,197.04182 C76.6637095,196.142165 77.5675555,195.404179 78.7026351,194.827838 C79.8377146,194.251497 81.1899805,193.96333 82.7594732,193.96333 C83.9085661,193.96333 84.9175105,194.096871 85.7863368,194.363956 C86.6551632,194.631041 87.3768387,195.101946 87.9513851,195.776687 C88.5259316,196.451428 88.9603382,197.358097 89.2546181,198.496722 C89.548898,199.635347 89.6960357,201.076178 89.6960357,202.819259 L89.6960357,215.554927 L86.3328539,215.554927 Z M116.307212,209.819659 C116.307212,208.976233 116.054976,208.31556 115.550496,207.837618 C115.046016,207.359677 114.422433,206.959055 113.679726,206.635742 C112.93702,206.312429 112.124259,206.003177 111.241419,205.707978 C110.35858,205.412779 109.545819,205.033243 108.803113,204.569359 C108.060406,204.105475 107.436822,203.508057 106.932343,202.777088 C106.427863,202.046119 106.175627,201.062136 106.175627,199.825112 C106.175627,197.800889 106.750165,196.317888 107.899257,195.376062 C109.04835,194.434236 110.645846,193.96333 112.691792,193.96333 C114.205231,193.96333 115.473418,194.096871 116.496391,194.363956 C117.519364,194.631041 118.409197,194.947321 119.165917,195.312805 L118.367161,198.096097 C117.722548,197.786841 116.94482,197.512731 116.033953,197.273761 C115.123087,197.03479 114.149176,196.915307 113.112189,196.915307 C111.879016,196.915307 110.97517,197.12616 110.400624,197.547873 C109.826077,197.969586 109.538809,198.700544 109.538809,199.740769 C109.538809,200.471739 109.791045,201.041043 110.295524,201.448698 C110.800004,201.856354 111.423588,202.221833 112.166294,202.545147 C112.909001,202.86846 113.721762,203.18474 114.604601,203.493996 C115.487441,203.803252 116.300202,204.210902 117.042908,204.716958 C117.785614,205.223013 118.409198,205.862602 118.913678,206.635742 C119.418158,207.408883 119.670394,208.428007 119.670394,209.693146 C119.670394,210.5928 119.523256,211.436214 119.228976,212.223411 C118.934696,213.010609 118.47927,213.685339 117.862684,214.247623 C117.246097,214.809907 116.482382,215.252699 115.571516,215.576013 C114.66065,215.899326 113.588646,216.06098 112.355473,216.06098 C110.757954,216.06098 109.398682,215.906354 108.277615,215.597098 C107.156549,215.287842 106.21767,214.922363 105.460951,214.50065 L106.469905,211.633016 C107.114518,211.998501 107.955305,212.335866 108.992292,212.645122 C110.029278,212.954378 111.080262,213.109004 112.145274,213.109004 C113.350421,213.109004 114.345352,212.870037 115.130098,212.392096 C115.914845,211.914154 116.307212,211.056684 116.307212,209.819659 L116.307212,209.819659 Z M123.580093,205.012155 C123.580093,201.441652 124.371834,198.707587 125.95534,196.809879 C127.538846,194.91217 129.815978,193.96333 132.786803,193.96333 C134.356296,193.96333 135.722575,194.223383 136.885681,194.743496 C138.048787,195.263608 139.008686,196.008623 139.765405,196.978563 C140.522125,197.948503 141.08265,199.115225 141.446996,200.478763 C141.811343,201.842302 141.993513,203.353418 141.993513,205.012155 C141.993513,208.582659 141.201772,211.316723 139.618266,213.214432 C138.03476,215.11214 135.757628,216.06098 132.786803,216.06098 C131.21731,216.06098 129.851031,215.800928 128.687925,215.280815 C127.524819,214.760702 126.56492,214.015687 125.808201,213.045747 C125.051481,212.075808 124.490956,210.909086 124.12661,209.545547 C123.762263,208.182009 123.580093,206.670893 123.580093,205.012155 L123.580093,205.012155 Z M127.069394,205.012155 C127.069394,206.080495 127.174492,207.106648 127.384692,208.090645 C127.594892,209.074642 127.9242,209.932112 128.372627,210.663081 C128.821053,211.39405 129.409604,211.984439 130.138297,212.434267 C130.86699,212.884094 131.749817,213.109004 132.786803,213.109004 C136.598428,213.137118 138.504212,210.438196 138.504212,205.012155 C138.504212,203.915702 138.399114,202.875492 138.188914,201.891495 C137.978714,200.907498 137.649406,200.050028 137.200979,199.319059 C136.752553,198.588089 136.164002,198.004728 135.435309,197.568958 C134.706616,197.133188 133.823789,196.915307 132.786803,196.915307 C128.975178,196.887192 127.069394,199.586115 127.069394,205.012155 L127.069394,205.012155 Z M150.317388,194.469384 L150.317388,206.488143 C150.317388,207.584597 150.380447,208.547494 150.506567,209.376863 C150.632687,210.206232 150.849891,210.895019 151.158184,211.443246 C151.466477,211.991473 151.886871,212.406151 152.419377,212.687293 C152.951883,212.968435 153.624513,213.109004 154.437286,213.109004 C155.194006,213.109004 155.866635,212.989521 156.455195,212.75055 C157.043755,212.511579 157.569247,212.181242 158.031687,211.759529 C158.494126,211.337816 158.900507,210.852854 159.25084,210.304627 C159.601173,209.7564 159.888442,209.173039 160.112655,208.554527 L160.112655,194.469384 L163.475837,194.469384 L163.475837,209.566633 C163.475837,210.578744 163.51087,211.625982 163.580937,212.708379 C163.651003,213.790775 163.770115,214.739615 163.938275,215.554927 L161.626087,215.554927 L160.785292,212.223411 L160.575093,212.223411 C159.93048,213.319865 159.061667,214.233563 157.968627,214.964532 C156.875587,215.695501 155.488289,216.06098 153.806689,216.06098 C152.685623,216.06098 151.697698,215.92744 150.842886,215.660355 C149.988073,215.39327 149.273404,214.922364 148.698857,214.247623 C148.124311,213.572883 147.689904,212.666213 147.395624,211.527588 C147.101344,210.388963 146.954207,208.948132 146.954207,207.205052 L146.954207,194.469384 L150.317388,194.469384 Z M179.871349,197.716557 C179.030549,197.435415 178.231801,197.294846 177.475082,197.294846 C176.269935,197.294846 175.317044,197.625183 174.616377,198.285867 C173.915711,198.946551 173.481304,199.782935 173.313144,200.795047 L173.313144,215.554927 L169.949962,215.554927 L169.949962,194.469384 L172.30419,194.469384 L172.934786,197.04182 L173.102945,197.04182 C173.635452,196.085937 174.273049,195.34795 175.015755,194.827838 C175.758461,194.307725 176.704347,194.047673 177.85344,194.047673 C178.666213,194.047673 179.577065,194.188242 180.586025,194.469384 L179.871349,197.716557 Z M198.579048,214.163281 C197.738248,214.781794 196.743317,215.252699 195.594224,215.576013 C194.445131,215.899326 193.240003,216.06098 191.978803,216.06098 C190.353257,216.06098 188.979972,215.800928 187.858906,215.280815 C186.737839,214.760702 185.81998,214.015687 185.1053,213.045747 C184.390621,212.075808 183.872135,210.909086 183.549829,209.545547 C183.227522,208.182009 183.066371,206.670893 183.066371,205.012155 C183.066371,201.441652 183.851106,198.707587 185.420599,196.809879 C186.990091,194.91217 189.246203,193.96333 192.189002,193.96333 C193.534282,193.96333 194.676351,194.068757 195.615244,194.279614 C196.554137,194.49047 197.40193,194.792693 198.15865,195.186292 L197.191735,198.096097 C196.547122,197.730612 195.832453,197.442446 195.047707,197.23159 C194.26296,197.020733 193.422173,196.915307 192.52532,196.915307 C188.545535,196.915307 186.555673,199.614229 186.555673,205.012155 C186.555673,206.080495 186.660771,207.099619 186.870971,208.069559 C187.081171,209.039499 187.431499,209.896969 187.921965,210.641995 C188.412432,211.387022 189.057035,211.984439 189.855795,212.434267 C190.654555,212.884094 191.642479,213.109004 192.819599,213.109004 C193.828558,213.109004 194.732404,212.954378 195.531164,212.645122 C196.329924,212.335866 196.981534,211.984444 197.486014,211.590845 L198.579048,214.163281 Z M217.581025,213.868084 C216.740225,214.542824 215.682235,215.076986 214.407022,215.470585 C213.131809,215.864184 211.779544,216.06098 210.350184,216.06098 C208.752665,216.06098 207.365366,215.800928 206.188247,215.280815 C205.011127,214.760702 204.044222,214.015687 203.287502,213.045747 C202.530783,212.075808 201.970258,210.916114 201.605911,209.566633 C201.241565,208.217151 201.059394,206.699007 201.059394,205.012155 C201.059394,201.413538 201.858142,198.672445 203.455661,196.788793 C205.053181,194.905142 207.337319,193.96333 210.308144,193.96333 C211.261051,193.96333 212.213943,194.068757 213.166849,194.279614 C214.119755,194.49047 214.974555,194.891091 215.731275,195.48149 C216.487995,196.071888 217.104572,196.908273 217.581025,197.990669 C218.057478,199.073066 218.295701,200.49984 218.295701,202.271035 C218.295701,203.198803 218.211623,204.224956 218.043463,205.349524 L204.548695,205.349524 C204.548695,206.586549 204.674814,207.682986 204.927053,208.638869 C205.179293,209.594752 205.571661,210.403023 206.104167,211.063706 C206.636674,211.72439 207.330323,212.230438 208.185136,212.581865 C209.039949,212.933293 210.083926,213.109004 211.317099,213.109004 C212.270005,213.109004 213.222897,212.940321 214.175803,212.602951 C215.12871,212.265581 215.843379,211.871988 216.319832,211.422161 L217.581025,213.868084 Z M210.350184,196.915307 C208.696611,196.915307 207.372372,197.35107 206.377426,198.22261 C205.382479,199.09415 204.786922,200.584181 204.590735,202.692746 L215.016599,202.692746 C215.016599,200.556066 214.610219,199.059008 213.797446,198.201525 C212.984673,197.344042 211.835597,196.915307 210.350184,196.915307 L210.350184,196.915307 Z M249.152895,214.163281 C248.312095,214.781794 247.317164,215.252699 246.168071,215.576013 C245.018978,215.899326 243.81385,216.06098 242.55265,216.06098 C240.927104,216.06098 239.553819,215.800928 238.432752,215.280815 C237.311686,214.760702 236.393827,214.015687 235.679147,213.045747 C234.964468,212.075808 234.445982,210.909086 234.123676,209.545547 C233.801369,208.182009 233.640218,206.670893 233.640218,205.012155 C233.640218,201.441652 234.424953,198.707587 235.994446,196.809879 C237.563938,194.91217 239.82005,193.96333 242.762849,193.96333 C244.108129,193.96333 245.250198,194.068757 246.189091,194.279614 C247.127984,194.49047 247.975777,194.792693 248.732497,195.186292 L247.765582,198.096097 C247.120969,197.730612 246.4063,197.442446 245.621554,197.23159 C244.836807,197.020733 243.99602,196.915307 243.099167,196.915307 C239.119382,196.915307 237.12952,199.614229 237.12952,205.012155 C237.12952,206.080495 237.234618,207.099619 237.444818,208.069559 C237.655018,209.039499 238.005346,209.896969 238.495812,210.641995 C238.986279,211.387022 239.630882,211.984439 240.429642,212.434267 C241.228401,212.884094 242.216326,213.109004 243.393446,213.109004 C244.402405,213.109004 245.306251,212.954378 246.105011,212.645122 C246.903771,212.335866 247.555381,211.984444 248.05986,211.590845 L249.152895,214.163281 Z M251.633241,205.012155 C251.633241,201.441652 252.424982,198.707587 254.008488,196.809879 C255.591994,194.91217 257.869126,193.96333 260.839951,193.96333 C262.409444,193.96333 263.775723,194.223383 264.938829,194.743496 C266.101936,195.263608 267.061834,196.008623 267.818554,196.978563 C268.575273,197.948503 269.135798,199.115225 269.500145,200.478763 C269.864491,201.842302 270.046662,203.353418 270.046662,205.012155 C270.046662,208.582659 269.254921,211.316723 267.671415,213.214432 C266.087909,215.11214 263.810777,216.06098 260.839951,216.06098 C259.270459,216.06098 257.90418,215.800928 256.741074,215.280815 C255.577967,214.760702 254.618069,214.015687 253.861349,213.045747 C253.104629,212.075808 252.544105,210.909086 252.179758,209.545547 C251.815412,208.182009 251.633241,206.670893 251.633241,205.012155 L251.633241,205.012155 Z M255.122542,205.012155 C255.122542,206.080495 255.227641,207.106648 255.437841,208.090645 C255.648041,209.074642 255.977349,209.932112 256.425775,210.663081 C256.874202,211.39405 257.462753,211.984439 258.191446,212.434267 C258.920139,212.884094 259.802965,213.109004 260.839951,213.109004 C264.651577,213.137118 266.557361,210.438196 266.557361,205.012155 C266.557361,203.915702 266.452262,202.875492 266.242062,201.891495 C266.031862,200.907498 265.702554,200.050028 265.254128,199.319059 C264.805701,198.588089 264.21715,198.004728 263.488457,197.568958 C262.759764,197.133188 261.876938,196.915307 260.839951,196.915307 C257.028326,196.887192 255.122542,199.586115 255.122542,205.012155 L255.122542,205.012155 Z M287.661327,215.554927 L287.661327,203.620509 C287.661327,202.495941 287.612281,201.518988 287.514187,200.689619 C287.416094,199.86025 287.226917,199.164434 286.94665,198.60215 C286.666384,198.039866 286.26701,197.618159 285.748517,197.337017 C285.230024,197.055875 284.550388,196.915307 283.709588,196.915307 C282.420362,196.915307 281.348358,197.308899 280.493545,198.096097 C279.638732,198.883295 279.043175,199.867277 278.706855,201.048073 L278.706855,215.554927 L275.343673,215.554927 L275.343673,194.469384 L277.6979,194.469384 L278.328497,197.04182 L278.496656,197.04182 C279.253376,196.142165 280.129196,195.404179 281.124142,194.827838 C282.119088,194.251497 283.415302,193.96333 285.012821,193.96333 C286.3581,193.96333 287.45813,194.223383 288.312943,194.743496 C289.167756,195.263608 289.833379,196.170278 290.309832,197.463531 C290.954445,196.367077 291.844278,195.509607 292.979358,194.891094 C294.114437,194.272582 295.396638,193.96333 296.825997,193.96333 C298.003117,193.96333 298.998048,194.096871 299.810821,194.363956 C300.623594,194.631041 301.296224,195.101946 301.82873,195.776687 C302.361237,196.451428 302.746597,197.365126 302.984824,198.517808 C303.22305,199.67049 303.342162,201.132406 303.342162,202.903601 L303.342162,215.554927 L299.97898,215.554927 L299.97898,202.86143 C299.97898,201.849319 299.929934,200.970763 299.831841,200.225737 C299.733748,199.480711 299.537564,198.862208 299.243284,198.370209 C298.949004,197.878211 298.542624,197.512731 298.024131,197.273761 C297.505638,197.03479 296.826001,196.915307 295.985202,196.915307 C294.583869,196.915307 293.490846,197.308899 292.706099,198.096097 C291.921353,198.883295 291.360828,200.007846 291.024508,201.469784 L291.024508,215.554927 L287.661327,215.554927 Z M321.797622,215.554927 L321.797622,203.620509 C321.797622,202.495941 321.748576,201.518988 321.650483,200.689619 C321.55239,199.86025 321.363213,199.164434 321.082946,198.60215 C320.80268,198.039866 320.403306,197.618159 319.884813,197.337017 C319.366319,197.055875 318.686683,196.915307 317.845884,196.915307 C316.556657,196.915307 315.484654,197.308899 314.629841,198.096097 C313.775028,198.883295 313.179471,199.867277 312.843151,201.048073 L312.843151,215.554927 L309.479969,215.554927 L309.479969,194.469384 L311.834196,194.469384 L312.464793,197.04182 L312.632952,197.04182 C313.389671,196.142165 314.265491,195.404179 315.260438,194.827838 C316.255384,194.251497 317.551597,193.96333 319.149117,193.96333 C320.494396,193.96333 321.594426,194.223383 322.449239,194.743496 C323.304052,195.263608 323.969675,196.170278 324.446128,197.463531 C325.090741,196.367077 325.980574,195.509607 327.115654,194.891094 C328.250733,194.272582 329.532933,193.96333 330.962293,193.96333 C332.139412,193.96333 333.134344,194.096871 333.947117,194.363956 C334.75989,194.631041 335.432519,195.101946 335.965026,195.776687 C336.497532,196.451428 336.882893,197.365126 337.12112,198.517808 C337.359346,199.67049 337.478458,201.132406 337.478458,202.903601 L337.478458,215.554927 L334.115276,215.554927 L334.115276,202.86143 C334.115276,201.849319 334.06623,200.970763 333.968137,200.225737 C333.870043,199.480711 333.67386,198.862208 333.37958,198.370209 C333.0853,197.878211 332.678919,197.512731 332.160426,197.273761 C331.641933,197.03479 330.962297,196.915307 330.121497,196.915307 C328.720165,196.915307 327.627141,197.308899 326.842395,198.096097 C326.057649,198.883295 325.497124,200.007846 325.160804,201.469784 L325.160804,215.554927 L321.797622,215.554927 Z M346.643128,194.469384 L346.643128,206.488143 C346.643128,207.584597 346.706187,208.547494 346.832307,209.376863 C346.958427,210.206232 347.17563,210.895019 347.483924,211.443246 C347.792217,211.991473 348.21261,212.406151 348.745117,212.687293 C349.277623,212.968435 349.950253,213.109004 350.763026,213.109004 C351.519746,213.109004 352.192375,212.989521 352.780935,212.75055 C353.369495,212.511579 353.894987,212.181242 354.357426,211.759529 C354.819866,211.337816 355.226247,210.852854 355.57658,210.304627 C355.926913,209.7564 356.214182,209.173039 356.438395,208.554527 L356.438395,194.469384 L359.801577,194.469384 L359.801577,209.566633 C359.801577,210.578744 359.83661,211.625982 359.906676,212.708379 C359.976743,213.790775 360.095855,214.739615 360.264015,215.554927 L357.951827,215.554927 L357.111032,212.223411 L356.900833,212.223411 C356.25622,213.319865 355.387406,214.233563 354.294367,214.964532 C353.201327,215.695501 351.814029,216.06098 350.132429,216.06098 C349.011363,216.06098 348.023438,215.92744 347.168625,215.660355 C346.313812,215.39327 345.599143,214.922364 345.024597,214.247623 C344.45005,213.572883 344.015644,212.666213 343.721364,211.527588 C343.427084,210.388963 343.279946,208.948132 343.279946,207.205052 L343.279946,194.469384 L346.643128,194.469384 Z M379.770469,215.554927 L379.770469,203.536167 C379.770469,201.34326 379.455174,199.691575 378.824574,198.581065 C378.193975,197.470554 377.037892,196.915307 375.356293,196.915307 C373.87088,196.915307 372.644733,197.315928 371.677813,198.117183 C370.710893,198.918437 370.031257,199.923505 369.638884,201.132415 L369.638884,215.554927 L366.275702,215.554927 L366.275702,194.469384 L368.629929,194.469384 L369.260526,197.04182 L369.428685,197.04182 C370.101325,196.142165 371.005171,195.404179 372.14025,194.827838 C373.27533,194.251497 374.627596,193.96333 376.197089,193.96333 C377.346181,193.96333 378.355126,194.096871 379.223952,194.363956 C380.092778,194.631041 380.814454,195.101946 381.389,195.776687 C381.963547,196.451428 382.397954,197.358097 382.692233,198.496722 C382.986513,199.635347 383.133651,201.076178 383.133651,202.819259 L383.133651,215.554927 L379.770469,215.554927 Z M389.986134,194.469384 L393.349316,194.469384 L393.349316,215.554927 L389.986134,215.554927 L389.986134,194.469384 Z M389.271458,188.059378 C389.271458,187.412752 389.488661,186.857505 389.923074,186.39362 C390.357488,185.929736 390.911006,185.697797 391.583645,185.697797 C392.256285,185.697797 392.830823,185.929736 393.307276,186.39362 C393.783729,186.857505 394.021952,187.412752 394.021952,188.059378 C394.021952,188.706005 393.783729,189.240167 393.307276,189.66188 C392.830823,190.083593 392.256285,190.294446 391.583645,190.294446 C390.911006,190.294446 390.357488,190.083593 389.923074,189.66188 C389.488661,189.240167 389.271458,188.706005 389.271458,188.059378 L389.271458,188.059378 Z M397.763492,194.469384 L401.042594,194.469384 L401.042594,190.294446 L404.405776,189.324511 L404.405776,194.469384 L410.123185,194.469384 L410.123185,197.42136 L404.405776,197.42136 L404.405776,209.102751 C404.405776,210.564689 404.587947,211.59787 404.952293,212.202326 C405.31664,212.806781 405.933217,213.109004 406.802043,213.109004 C407.530736,213.109004 408.147313,213.031691 408.651793,212.877063 C409.156273,212.722435 409.716798,212.51861 410.333384,212.265582 L411.0901,214.838019 C410.33338,215.203503 409.506606,215.498698 408.609753,215.723611 C407.7129,215.948525 406.745995,216.06098 405.709009,216.06098 C403.999383,216.06098 402.794255,215.576018 402.093589,214.606078 C401.392922,213.636138 401.042594,212.012567 401.042594,209.735317 L401.042594,197.42136 L397.763492,197.42136 L397.763492,194.469384 Z M420.969447,208.132816 L422.14656,212.18124 L422.356759,212.18124 L423.281634,208.090645 L427.359492,194.469384 L430.764714,194.469384 L424.542827,213.404202 C424.066374,214.781797 423.596935,216.117202 423.134495,217.410455 C422.672055,218.703708 422.160576,219.856373 421.600043,220.868484 C421.03951,221.880595 420.40892,222.688866 419.708254,223.293322 C419.007587,223.897777 418.194826,224.2 417.269947,224.2 C416.260987,224.2 415.434213,224.059431 414.7896,223.778289 L415.378157,220.868484 C415.742503,221.009055 416.092831,221.07934 416.429151,221.07934 C417.213898,221.07934 417.970606,220.664661 418.699299,219.835292 C419.427992,219.005924 420.030556,217.579149 420.507009,215.554927 L412.057015,194.469384 L415.924674,194.469384 L420.969447,208.132816 Z M453.340072,209.819659 C453.340072,208.976233 453.087836,208.31556 452.583356,207.837618 C452.078876,207.359677 451.455292,206.959055 450.712586,206.635742 C449.96988,206.312429 449.157119,206.003177 448.274279,205.707978 C447.39144,205.412779 446.578679,205.033243 445.835972,204.569359 C445.093266,204.105475 444.469682,203.508057 443.965203,202.777088 C443.460723,202.046119 443.208487,201.062136 443.208487,199.825112 C443.208487,197.800889 443.783024,196.317888 444.932117,195.376062 C446.08121,194.434236 447.678706,193.96333 449.724651,193.96333 C451.238091,193.96333 452.506278,194.096871 453.529251,194.363956 C454.552224,194.631041 455.442057,194.947321 456.198776,195.312805 L455.400021,198.096097 C454.755408,197.786841 453.97768,197.512731 453.066813,197.273761 C452.155947,197.03479 451.182035,196.915307 450.145049,196.915307 C448.911876,196.915307 448.00803,197.12616 447.433484,197.547873 C446.858937,197.969586 446.571668,198.700544 446.571668,199.740769 C446.571668,200.471739 446.823905,201.041043 447.328384,201.448698 C447.832864,201.856354 448.456448,202.221833 449.199154,202.545147 C449.941861,202.86846 450.754621,203.18474 451.637461,203.493996 C452.520301,203.803252 453.333062,204.210902 454.075768,204.716958 C454.818474,205.223013 455.442058,205.862602 455.946538,206.635742 C456.451018,207.408883 456.703254,208.428007 456.703254,209.693146 C456.703254,210.5928 456.556116,211.436214 456.261836,212.223411 C455.967556,213.010609 455.51213,213.685339 454.895544,214.247623 C454.278957,214.809907 453.515242,215.252699 452.604376,215.576013 C451.69351,215.899326 450.621506,216.06098 449.388333,216.06098 C447.790814,216.06098 446.431541,215.906354 445.310475,215.597098 C444.189409,215.287842 443.25053,214.922363 442.49381,214.50065 L443.502765,211.633016 C444.147378,211.998501 444.988165,212.335866 446.025151,212.645122 C447.062138,212.954378 448.113121,213.109004 449.178134,213.109004 C450.383281,213.109004 451.378212,212.870037 452.162958,212.392096 C452.947705,211.914154 453.340072,211.056684 453.340072,209.819659 L453.340072,209.819659 Z M460.612953,205.012155 C460.612953,201.441652 461.404694,198.707587 462.9882,196.809879 C464.571706,194.91217 466.848837,193.96333 469.819663,193.96333 C471.389156,193.96333 472.755435,194.223383 473.918541,194.743496 C475.081647,195.263608 476.041546,196.008623 476.798265,196.978563 C477.554985,197.948503 478.11551,199.115225 478.479856,200.478763 C478.844203,201.842302 479.026373,203.353418 479.026373,205.012155 C479.026373,208.582659 478.234632,211.316723 476.651126,213.214432 C475.06762,215.11214 472.790488,216.06098 469.819663,216.06098 C468.25017,216.06098 466.883891,215.800928 465.720785,215.280815 C464.557679,214.760702 463.59778,214.015687 462.841061,213.045747 C462.084341,212.075808 461.523816,210.909086 461.15947,209.545547 C460.795123,208.182009 460.612953,206.670893 460.612953,205.012155 L460.612953,205.012155 Z M464.102254,205.012155 C464.102254,206.080495 464.207352,207.106648 464.417552,208.090645 C464.627752,209.074642 464.95706,209.932112 465.405487,210.663081 C465.853913,211.39405 466.442464,211.984439 467.171157,212.434267 C467.89985,212.884094 468.782677,213.109004 469.819663,213.109004 C473.631288,213.137118 475.537072,210.438196 475.537072,205.012155 C475.537072,203.915702 475.431974,202.875492 475.221774,201.891495 C475.011574,200.907498 474.682266,200.050028 474.233839,199.319059 C473.785413,198.588089 473.196862,198.004728 472.468169,197.568958 C471.739476,197.133188 470.856649,196.915307 469.819663,196.915307 C466.008038,196.887192 464.102254,199.586115 464.102254,205.012155 L464.102254,205.012155 Z M481.50672,194.469384 L484.785822,194.469384 L484.785822,193.288593 C484.785822,191.99534 484.89092,190.870789 485.10112,189.914906 C485.31132,188.959023 485.654642,188.178866 486.131095,187.574411 C486.607548,186.969955 487.224125,186.520135 487.980845,186.224936 C488.737565,185.929737 489.676443,185.78214 490.79751,185.78214 C491.694363,185.78214 492.486104,185.838367 493.172757,185.950824 C493.85941,186.063281 494.581085,186.274134 495.337805,186.58339 L494.581089,189.408853 C493.936476,189.127711 493.326906,188.944971 492.752359,188.860629 C492.177813,188.776286 491.638308,188.734116 491.133828,188.734116 C490.405135,188.734116 489.837604,188.846571 489.431217,189.071484 C489.02483,189.296398 488.730555,189.626735 488.548382,190.062505 C488.366209,190.498275 488.254104,191.032437 488.212064,191.665006 C488.170024,192.297576 488.149004,193.035562 488.149004,193.878988 L488.149004,194.469384 L493.740294,194.469384 L493.740294,197.42136 L488.149004,197.42136 L488.149004,215.554927 L484.785822,215.554927 L484.785822,197.42136 L481.50672,197.42136 L481.50672,194.469384 Z M493.782334,194.469384 L497.061436,194.469384 L497.061436,190.294446 L500.424618,189.324511 L500.424618,194.469384 L506.142027,194.469384 L506.142027,197.42136 L500.424618,197.42136 L500.424618,209.102751 C500.424618,210.564689 500.606788,211.59787 500.971135,212.202326 C501.335481,212.806781 501.952058,213.109004 502.820885,213.109004 C503.549578,213.109004 504.166155,213.031691 504.670635,212.877063 C505.175114,212.722435 505.735639,212.51861 506.352226,212.265582 L507.108942,214.838019 C506.352222,215.203503 505.525448,215.498698 504.628595,215.723611 C503.731742,215.948525 502.764837,216.06098 501.727851,216.06098 C500.018225,216.06098 498.813097,215.576018 498.11243,214.606078 C497.411764,213.636138 497.061436,212.012567 497.061436,209.735317 L497.061436,197.42136 L493.782334,197.42136 L493.782334,194.469384 Z M524.429328,194.469384 L529.263902,206.783341 L530.314896,210.831765 L530.398976,210.831765 L531.197731,206.698999 L534.939271,194.469384 L538.134294,194.469384 L531.071612,216.018809 L529.432061,216.018809 L523.924851,202.10235 L523.126095,198.644321 L522.999976,198.644321 L522.15918,202.144521 L516.862169,216.018809 L515.222618,216.018809 L507.907697,194.469384 L511.565157,194.469384 L515.727095,206.74117 L516.441771,210.831765 L516.483811,210.831765 L517.492765,206.656828 L521.991021,194.469384 L524.429328,194.469384 Z M541.371357,196.029714 C542.436369,195.383087 543.67653,194.905153 545.091876,194.595897 C546.507223,194.286641 547.985606,194.132015 549.527072,194.132015 C550.984459,194.132015 552.154554,194.328811 553.037394,194.72241 C553.920233,195.116009 554.592863,195.629085 555.055303,196.261655 C555.517742,196.894224 555.826031,197.59004 555.980178,198.349124 C556.134324,199.108207 556.211396,199.867279 556.211396,200.626362 C556.211396,202.313214 556.169357,203.95787 556.085277,205.560379 C556.001197,207.162889 555.959158,208.681033 555.959158,210.114857 C555.959158,211.155082 556.001197,212.139064 556.085277,213.066833 C556.169357,213.994602 556.323501,214.852072 556.547715,215.639269 L554.067368,215.639269 L553.184533,212.687293 L552.974334,212.687293 C552.722094,213.080892 552.406799,213.467456 552.028439,213.846998 C551.650079,214.22654 551.194653,214.563905 550.662146,214.859104 C550.12964,215.154303 549.513063,215.400299 548.812396,215.597098 C548.11173,215.793898 547.312982,215.892296 546.416129,215.892296 C545.519276,215.892296 544.685496,215.751727 543.914763,215.470585 C543.14403,215.189443 542.478407,214.788822 541.917874,214.268709 C541.35734,213.748596 540.915927,213.123065 540.593621,212.392096 C540.271314,211.661126 540.110163,210.83177 540.110163,209.904001 C540.110163,208.666977 540.362399,207.633795 540.866879,206.804427 C541.371359,205.975058 542.079021,205.314384 542.989888,204.822385 C543.900754,204.330387 544.993777,203.978965 546.26899,203.768108 C547.544203,203.557252 548.952521,203.451825 550.493987,203.451825 L551.650081,203.451825 C552.028441,203.451825 552.413802,203.479939 552.806175,203.536167 C552.890255,202.692741 552.932294,201.933669 552.932294,201.258929 C552.932294,199.712648 552.624005,198.630267 552.007419,198.011755 C551.390833,197.393242 550.269783,197.083991 548.644237,197.083991 C548.167784,197.083991 547.656305,197.119133 547.109786,197.189419 C546.563266,197.259704 546.002741,197.358102 545.428195,197.484616 C544.853648,197.61113 544.307137,197.765756 543.788643,197.948498 C543.27015,198.13124 542.814724,198.335065 542.422351,198.559979 L541.371357,196.029714 Z M547.341004,212.94032 C548.125751,212.94032 548.826406,212.834893 549.442993,212.624037 C550.059579,212.41318 550.592078,212.146099 551.040504,211.822786 C551.488931,211.499473 551.860278,211.141022 552.154558,210.747423 C552.448838,210.353824 552.666041,209.974288 552.806175,209.608804 L552.806175,206.108604 C552.413802,206.080489 552.014428,206.059404 551.608041,206.045347 C551.201655,206.03129 550.802281,206.024261 550.409908,206.024261 C549.541081,206.024261 548.693288,206.073461 547.866501,206.17186 C547.039715,206.27026 546.311033,206.452999 545.680433,206.720084 C545.049833,206.987169 544.545361,207.352648 544.167001,207.816533 C543.788642,208.280417 543.599464,208.863778 543.599464,209.566633 C543.599464,210.55063 543.949792,211.358901 544.650459,211.99147 C545.351125,212.62404 546.247965,212.94032 547.341004,212.94032 L547.341004,212.94032 Z M572.480789,197.716557 C571.639989,197.435415 570.841241,197.294846 570.084521,197.294846 C568.879375,197.294846 567.926483,197.625183 567.225817,198.285867 C566.52515,198.946551 566.090744,199.782935 565.922584,200.795047 L565.922584,215.554927 L562.559402,215.554927 L562.559402,194.469384 L564.913629,194.469384 L565.544226,197.04182 L565.712385,197.04182 C566.244892,196.085937 566.882488,195.34795 567.625195,194.827838 C568.367901,194.307725 569.313787,194.047673 570.462879,194.047673 C571.275652,194.047673 572.186505,194.188242 573.195465,194.469384 L572.480789,197.716557 Z M592.197442,213.868084 C591.356642,214.542824 590.298652,215.076986 589.023439,215.470585 C587.748226,215.864184 586.395961,216.06098 584.966601,216.06098 C583.369082,216.06098 581.981783,215.800928 580.804664,215.280815 C579.627544,214.760702 578.660639,214.015687 577.903919,213.045747 C577.1472,212.075808 576.586675,210.916114 576.222328,209.566633 C575.857982,208.217151 575.675811,206.699007 575.675811,205.012155 C575.675811,201.413538 576.474559,198.672445 578.072078,196.788793 C579.669598,194.905142 581.953736,193.96333 584.924561,193.96333 C585.877468,193.96333 586.83036,194.068757 587.783266,194.279614 C588.736172,194.49047 589.590972,194.891091 590.347692,195.48149 C591.104412,196.071888 591.720989,196.908273 592.197442,197.990669 C592.673895,199.073066 592.912118,200.49984 592.912118,202.271035 C592.912118,203.198803 592.828039,204.224956 592.65988,205.349524 L579.165112,205.349524 C579.165112,206.586549 579.29123,207.682986 579.54347,208.638869 C579.79571,209.594752 580.188078,210.403023 580.720584,211.063706 C581.25309,211.72439 581.94674,212.230438 582.801553,212.581865 C583.656366,212.933293 584.700343,213.109004 585.933516,213.109004 C586.886422,213.109004 587.839314,212.940321 588.79222,212.602951 C589.745127,212.265581 590.459796,211.871988 590.936249,211.422161 L592.197442,213.868084 Z M584.966601,196.915307 C583.313028,196.915307 581.988789,197.35107 580.993843,198.22261 C579.998896,199.09415 579.403339,200.584181 579.207152,202.692746 L589.633016,202.692746 C589.633016,200.556066 589.226635,199.059008 588.413862,198.201525 C587.601089,197.344042 586.452014,196.915307 584.966601,196.915307 L584.966601,196.915307 Z" id="Logo--tagline" sketch:type="MSShapeGroup"></path>
                <path d="M471.712813,79.3057534 C471.251621,78.2563446 470.581131,77.6567927 469.830297,77.6567927 C467.304244,77.6567927 454.252969,94.97128 448.499181,94.97128 C446.394137,94.97128 445.552119,89.9444934 445.552119,83.5213771 C445.552119,76.400096 445.692456,70.6751446 446.67481,65.369092 C448.779854,61.8782679 450.604226,58.5270769 452.428597,54.338088 C452.428597,49.7302002 444.710102,42.0503873 438.956314,42.0503873 C436.991606,42.0503873 435.447907,43.5863499 434.18488,46.0997432 C433.202526,45.5412113 431.799163,45.1223125 429.974791,44.7034136 C427.027729,44.1448817 424.221004,43.8656158 421.554614,43.8656158 C409.906702,43.8656158 399.80249,51.1265298 393.347021,58.8063428 C388.556231,64.6012517 385.526046,71.7099968 384.04602,78.959986 C383.157671,79.6200408 382.131676,80.6616672 381.028613,82.1250475 C376.116843,88.4085308 369.80171,94.8316471 359.837834,94.8316471 C352.821019,94.8316471 347.768913,90.0841264 347.768913,79.7512871 L347.768913,74.1659686 C365.310949,51.4057958 386.782401,36.1858029 386.782401,19.0109485 C386.782401,11.1915026 381.870631,6.58361484 373.871462,6.58361484 C346.388771,6.58361484 329.559606,44.9460046 327.965595,78.1235321 L327.965595,78.1235321 C327.848249,78.0917547 327.723687,78.0756916 327.591673,78.0756916 C326.468983,78.0756916 324.644611,79.3323882 322.539567,82.1250475 C319.03116,86.7329353 306.400894,100.556599 290.402557,100.556599 L288.718522,100.556599 C301.910133,95.5298119 312.435354,79.4720212 312.435354,65.0898261 C312.435354,53.5002902 306.120221,43.8656158 290.542893,43.8656158 C281.98238,43.8656158 276.228592,47.2168069 271.878167,52.1039606 C270.334468,47.7753387 266.12438,40.9333236 261.633618,40.9333236 C259.809247,40.9333236 257.42353,41.7711214 256.160503,44.8430465 C251.067021,56.654313 247.173073,68.352509 244.217324,79.3082984 C240.038785,83.076367 232.987225,94.8317755 219.423582,105.443752 C225.177369,86.4536693 231.913511,62.2971668 231.913511,54.7569869 C231.913511,51.4057958 226.721069,40.9333236 221.107617,40.9333236 C218.7219,40.9333236 216.195847,42.1900203 214.792484,47.0771739 C211.705086,45.4015784 204.267263,43.8656158 198.934484,43.8656158 C187.286572,43.8656158 177.182359,51.1265298 170.72689,58.8063428 C166.10626,64.3954268 163.12339,71.2066742 161.589469,78.1880528 L161.589469,78.1880528 C157.678191,79.5605371 150.690081,93.2562269 135.112659,105.443752 C140.866447,86.4536693 147.602588,62.2971668 147.602588,54.7569869 C147.602588,51.4057958 142.410146,40.9333236 136.796694,40.9333236 C134.410977,40.9333236 131.884924,42.1900203 130.481561,47.0771739 C127.394163,45.4015784 119.95634,43.8656158 114.623561,43.8656158 C102.975649,43.8656158 92.8714364,51.1265298 86.4159671,58.8063428 C81.4119221,64.8592037 76.8744044,70.9255634 75.6140085,78.6474261 C71.3054684,82.3233556 61.4033955,94.97128 46.1706384,94.97128 C32.5580186,94.97128 23.4361599,90.3633923 23.4361599,78.7738564 C23.4361599,69.278815 26.5235582,64.1123953 31.8563372,60.4819383 C34.1017177,61.1801031 36.3470983,61.599002 38.5924789,61.599002 C44.3462667,61.599002 52.6261076,60.3423054 52.6261076,54.4777209 C52.6261076,49.3113013 46.7319836,48.3338706 40.4168507,48.3338706 C38.7328152,48.3338706 37.1891161,48.4735036 35.7857532,48.7527695 C32.5580186,45.8204773 30.1723017,41.2125895 30.1723017,35.2083721 C30.1723017,34.5102073 30.1723017,33.6724095 30.312638,32.9742447 C35.9260895,37.0236006 41.539541,39.6766269 49.1177005,39.6766269 C64.1336832,39.6766269 73.3958781,31.996814 73.3958781,22.2225066 C73.3958781,8.81774224 61.8883026,5.04765225 50.380727,5.04765225 C38.0311338,5.04765225 28.6286026,8.25921039 21.8924608,12.3085663 C16.8403544,9.23664113 12.0689207,1.55682819 8.56051351,1.55682819 C7.15715064,1.55682819 5.75378777,2.81352486 5.75378777,4.62875337 C5.75378777,8.67810928 8.98152237,15.1012255 13.6126198,20.2676452 C11.0865667,24.1773681 9.82354009,28.5059899 9.82354009,32.9742447 C9.82354009,42.8881851 13.191611,49.7302002 20.068089,54.4777209 C8.7008498,58.9459757 0,67.4635864 0,82.4043134 C0,102.790726 15.9983367,111.029071 37.7504612,111.029071 C55.261653,111.029071 70.6345894,103.419027 76.8810385,93.0849791 L76.8810385,93.0849791 C80.1070672,104.607132 86.1505167,111.727236 98.063879,111.727236 C107.045401,111.727236 113.360534,108.934576 117.991632,104.605954 C117.28995,107.67788 116.588269,110.889438 115.746251,113.961363 C95.1168169,118.569251 78.5571351,118.569251 78.5571351,130.29842 C78.5571351,140.770892 88.801684,148.869604 100.870605,148.869604 C121.219366,148.869604 125.569791,136.302637 130.060552,121.36191 C143.87497,115.132078 155.225996,103.860093 160.674388,93.9932077 C162.409079,104.904008 170.788148,111.727236 182.374802,111.727236 C191.356324,111.727236 197.671457,108.934576 202.302555,104.605954 C201.600873,107.67788 200.899192,110.889438 200.057174,113.961363 C179.42774,118.569251 162.868058,118.569251 162.868058,130.29842 C162.868058,140.770892 173.112607,148.869604 185.181528,148.869604 C205.530289,148.869604 209.880714,136.302637 214.371475,121.36191 C224.275629,116.895474 232.913579,109.837334 239.017919,102.563393 C236.35009,117.533274 235.531069,129.466685 235.531069,135.883738 C235.531069,138.955663 236.373087,141.050158 238.197458,143.144652 C239.600821,144.820248 242.968892,148.869604 246.898308,148.869604 C249.003352,148.869604 250.968061,146.775109 251.950415,144.959881 C253.494114,142.027588 257.002521,112.565033 260.931937,89.9444934 C262.194963,82.4043134 265.422698,76.1208301 268.229424,70.9544105 C272.299176,63.4142305 278.754645,58.8063428 283.947088,58.8063428 C288.578185,58.8063428 291.946256,62.7160657 291.946256,66.7654216 C291.946256,82.4043134 284.929442,96.0883437 269.352114,96.0883437 C269.352114,96.0883437 268.089088,99.0206359 268.089088,101.673662 C268.089088,109.632741 276.649601,112.4254 286.332805,112.4254 C293.349619,112.4254 300.927779,111.727236 306.260558,109.632741 C316.565494,105.732033 325.261203,97.7394637 328.351729,89.4179663 C331.045265,104.841115 344.000332,111.029071 357.732789,111.029071 C367.942977,111.029071 378.028117,103.937094 383.606224,95.6080322 L383.606224,95.6080322 C385.880128,105.573062 393.990998,111.727236 404.994932,111.727236 C417.905871,111.727236 425.203358,106.002284 430.115128,98.0432052 C431.658827,105.723018 434.746225,111.029071 440.079004,111.029071 C452.774334,111.029071 467.553048,99.2132955 471.401707,88.172773 C471.346609,91.6101236 471.34281,95.2547953 471.34281,99.1602689 C471.34281,107.67788 472.88651,112.844299 477.517607,112.844299 C478.499961,112.844299 479.622651,112.565033 480.745342,112.146134 C490.147873,108.515677 492.673926,105.723018 492.673926,102.232194 C492.673926,98.3224711 489.726864,93.5749504 489.726864,86.0347704 L489.726864,85.0573397 C491.972245,73.7470698 499.971413,58.6667098 507.409236,58.6667098 C512.321006,58.6667098 513.724369,60.7612043 513.724369,63.6934965 C513.724369,71.9318412 509.373944,78.4945905 509.373944,93.1560515 C509.373944,102.51146 511.759661,111.029071 520.600847,111.029071 C535.897502,111.029071 551.615167,95.110913 551.615167,82.9628453 C551.615167,79.7512871 551.053821,78.0756916 549.650459,78.0756916 C546.984069,78.0756916 534.49414,94.97128 529.021024,94.97128 C527.898334,94.97128 527.477325,94.1334823 527.477325,92.5975197 C527.477325,87.1518341 533.371449,73.3281709 533.371449,59.7837735 C533.371449,49.8698332 526.635308,43.7259828 514.005042,43.7259828 C506.567218,43.7259828 501.23444,46.658275 497.44536,50.567998 C495.620988,46.3790091 491.831908,40.9333236 487.902492,40.9333236 C486.078121,40.9333236 484.253749,42.0503873 482.429377,44.8430465 C474.9148,56.1542782 472.492836,66.3468018 471.712813,79.3057534 L471.712813,79.3057534 Z M49.398373,18.8713155 C54.0294705,18.8713155 57.8185503,20.5469111 57.8185503,24.3170011 C57.8185503,27.5285592 54.7311519,28.9248888 50.2403908,28.9248888 C43.7849216,28.9248888 38.7328152,26.9700274 34.3823903,24.3170011 C38.1714701,20.5469111 43.7849216,18.8713155 49.398373,18.8713155 Z M104.659684,96.7865085 C98.3445515,96.7865085 96.6605161,91.480456 96.6605161,86.0347704 C96.6605161,66.4861557 114.763897,55.0362528 128.797526,53.0813913 C126.411809,61.4593691 123.043738,74.0263357 121.219366,82.5439464 C117.570623,92.5975197 110.694145,96.7865085 104.659684,96.7865085 Z M100.730268,138.117865 C97.2218613,138.117865 91.4680735,136.023371 91.4680735,131.974015 C91.4680735,129.041723 97.7832064,129.460622 111.395826,126.807595 C108.448764,133.370345 104.940357,138.117865 100.730268,138.117865 Z M188.970607,96.7865085 C182.655474,96.7865085 180.971439,91.480456 180.971439,86.0347704 C180.971439,66.4861557 199.07482,55.0362528 213.108449,53.0813913 C210.722732,61.4593691 207.354661,74.0263357 205.530289,82.5439464 C201.881546,92.5975197 195.005068,96.7865085 188.970607,96.7865085 Z M185.041191,138.117865 C181.532784,138.117865 175.778996,136.023371 175.778996,131.974015 C175.778996,129.041723 182.094129,129.460622 195.706749,126.807595 C192.759687,133.370345 189.25128,138.117865 185.041191,138.117865 Z M369.240365,20.2676452 C370.9244,20.2676452 371.626082,21.2450759 371.626082,23.3395703 C371.626082,31.996814 362.22355,37.4424995 349.593285,56.7118483 C353.663037,33.5327766 363.205904,20.2676452 369.240365,20.2676452 Z M411.590738,96.7865085 C405.275605,96.7865085 403.591569,91.480456 403.591569,86.0347704 C403.591569,67.1843205 418.186543,55.8740506 431.799163,53.3606572 C429.694119,62.2971668 429.132774,74.4452346 428.992437,80.170186 C425.624367,92.0389878 418.046207,96.7865085 411.590738,96.7865085 Z M550.741963,44.4241477 C547.514229,48.1942376 547.09322,50.428365 547.09322,54.8966198 C547.09322,55.7344176 547.654565,56.2929495 548.777255,56.2929495 L555.092388,56.2929495 C552.987344,65.508725 551.724317,75.2830323 551.724317,83.6610101 C551.724317,98.881003 555.513397,111.029071 564.775592,111.029071 C580.072247,111.029071 600,95.110913 600,82.9628453 C600,79.7512871 599.438655,78.0756916 598.035292,78.0756916 C596.912602,78.0756916 595.08823,79.3323882 592.983186,82.1250475 C588.492424,87.9896319 576.56384,94.97128 573.195769,94.97128 C570.950389,94.97128 569.968035,91.2011901 569.968035,85.3366056 C569.968035,79.3323882 571.090725,66.3465227 572.915097,55.5947846 C576.984849,55.5947846 584.703345,56.2929495 586.948725,56.2929495 C589.05377,56.2929495 590.878141,48.4735036 590.878141,46.658275 C590.878141,44.9826795 590.737805,44.4241477 589.334442,44.4241477 C586.247044,44.4241477 581.896619,44.2845147 575.44115,44.1448817 L581.194938,34.0913084 C579.791575,28.226724 578.107539,22.7810385 572.073079,22.7810385 C567.020973,22.7810385 562.249539,31.7175481 558.320123,44.2845147 C555.232724,44.4241477 552.566335,44.4241477 550.741963,44.4241477 Z" id="Logo--type" sketch:type="MSShapeGroup"></path>
            </g>
        </g>
    </g>
</svg>