<?xml version="1.0" encoding="UTF-8" standalone="no"?>
<svg width="253px" height="358px" viewBox="0 0 253 358" version="1.1" xmlns="http://www.w3.org/2000/svg" xmlns:xlink="http://www.w3.org/1999/xlink" xmlns:sketch="http://www.bohemiancoding.com/sketch/ns">
    <!-- Generator: Sketch 3.3.3 (12072) - http://www.bohemiancoding.com/sketch -->
    <title>eggplant_logo_mark</title>
    <desc>Created with Sketch.</desc>
    <defs></defs>
    <g id="Page-1" stroke="none" stroke-width="1" fill="none" fill-rule="evenodd" sketch:type="MSPage">
        <g id="Logos-for-ze-web" sketch:type="MSArtboardGroup" transform="translate(-594.000000, -2245.000000)">
            <g id="eggplant_logo_mark" sketch:type="MSLayerGroup" transform="translate(593.000000, 2244.000000)">
                <path d="M127.565625,42.6645808 C338.07706,42.6645808 221.277026,317.23138 221.277026,317.23138 C221.277026,317.23138 187.697074,358.228512 127.565624,358.228512 C67.4341733,358.228512 33.7119597,317.23138 33.7119597,317.23138 C33.7119597,317.23138 -82.94581,42.6645808 127.565625,42.6645808 Z" id="Triangle-1" fill="#57163E" sketch:type="MSShapeGroup" transform="translate(127.532814, 200.446546) rotate(-180.000000) translate(-127.532814, -200.446546) "></path>
                <path d="M144.10691,-1.70478383 C144.10691,-16.2169575 151.282735,-22.1444651 167.479597,-22.1444651 L167.479597,-50.1468284 C124.424646,-50.1468284 107.817737,-40.3357814 107.817737,-9.2674659 L107.817737,8.51505681 C107.817737,23.8448178 101.462006,29.7723253 84.8550961,29.7723253 L84.8550961,57.7746887 C101.462006,57.7746887 107.817737,63.7021962 107.817737,79.0319572 L107.817737,96.6100831 C107.817737,127.882795 124.424646,137.693842 167.479597,137.693842 L167.479597,109.691479 C151.282735,109.691479 144.10691,103.763972 144.10691,89.047401 L144.10691,67.7901325 C144.10691,54.9131333 137.956202,47.7592448 126.269859,43.6713086 C137.956202,39.7877691 144.10691,32.6338807 144.10691,19.7568815 L144.10691,-1.70478383 Z" id="{" fill="#D3FF43" sketch:type="MSShapeGroup" transform="translate(127.500000, 43.773507) rotate(-270.000000) translate(-127.500000, -43.773507) "></path>
                <path d="M124.5609,287.217336 C155.46885,287.217336 181.446698,269.593239 181.446698,249.126546 C181.446698,244.767898 179.929743,241.925302 178.03355,241.925302 C174.241164,241.925302 160.019714,265.424098 135.93806,265.424098 C117.544985,265.424098 105.219729,259.170386 105.219729,243.441354 C105.219729,230.554917 109.391354,223.54318 116.596889,218.616013 C119.630798,219.563545 122.664707,220.132064 125.698616,220.132064 C133.473009,220.132064 144.660549,218.426506 144.660549,210.467237 C144.660549,203.455499 136.696537,202.128955 128.163668,202.128955 C125.888236,202.128955 123.802423,202.318461 121.90623,202.697474 C117.544985,198.717839 114.321457,192.464127 114.321457,184.315351 C114.321457,183.367819 114.321457,182.230781 114.511076,181.283249 C122.095849,186.778935 129.680622,190.379557 139.920066,190.379557 C160.209334,190.379557 172.724209,179.956704 172.724209,166.691254 C172.724209,148.498638 157.175424,143.381965 141.62664,143.381965 C124.940139,143.381965 112.235644,147.740613 103.133917,153.236299 C96.307621,149.067158 89.8605639,138.644305 85.1200808,138.644305 C83.2238875,138.644305 81.3276943,140.349862 81.3276943,142.813446 C81.3276943,148.309132 85.6889388,157.026427 91.9463765,164.038165 C88.5332287,169.344344 86.8266547,175.219043 86.8266547,181.283249 C86.8266547,194.738204 91.3775185,204.024019 100.668865,210.467237 C85.3097001,216.531442 73.553302,228.091334 73.553302,248.36852 C73.553302,276.036457 95.169905,287.217336 124.5609,287.217336 L124.5609,287.217336 Z M140.299304,162.1431 C146.556742,162.1431 151.676464,164.417177 151.676464,169.533851 C151.676464,173.892498 147.504839,175.787563 141.43702,175.787563 C132.714531,175.787563 125.888236,173.134473 120.010037,169.533851 C125.129758,164.417177 132.714531,162.1431 140.299304,162.1431 L140.299304,162.1431 Z" id="E" fill="#3D0F2E" sketch:type="MSShapeGroup"></path>
            </g>
        </g>
    </g>
</svg>